<svg width="32" height="32" viewBox="0 0 32 32" fill="none" xmlns="http://www.w3.org/2000/svg">
<path d="M15.0533 16L19.7733 11.28C20.0217 11.0302 20.1611 10.6923 20.1611 10.34C20.1611 9.98777 20.0217 9.64983 19.7733 9.40001C19.6494 9.27504 19.5019 9.17585 19.3394 9.10816C19.177 9.04047 19.0027 9.00562 18.8267 9.00562C18.6507 9.00562 18.4764 9.04047 18.3139 9.10816C18.1514 9.17585 18.004 9.27504 17.88 9.40001L12.2267 15.0533C12.1017 15.1773 12.0025 15.3248 11.9348 15.4872C11.8671 15.6497 11.8323 15.824 11.8323 16C11.8323 16.176 11.8671 16.3503 11.9348 16.5128C12.0025 16.6753 12.1017 16.8227 12.2267 16.9467L17.88 22.6667C18.0046 22.7903 18.1523 22.888 18.3148 22.9544C18.4772 23.0207 18.6512 23.0544 18.8267 23.0533C19.0021 23.0544 19.1761 23.0207 19.3385 22.9544C19.501 22.888 19.6488 22.7903 19.7733 22.6667C20.0217 22.4169 20.1611 22.0789 20.1611 21.7267C20.1611 21.3744 20.0217 21.0365 19.7733 20.7867L15.0533 16Z" fill="#232B34"/>
</svg>
