<svg width="20" height="20" viewBox="0 0 20 20" fill="none" xmlns="http://www.w3.org/2000/svg">
<path fill-rule="evenodd" clip-rule="evenodd" d="M15.3166 10.0023L15.3165 11.0283C15.3162 12.2823 15.3158 13.5362 15.3198 14.7897C15.3204 14.9389 15.2804 14.9882 15.1288 14.9826C14.8229 14.9713 14.5165 14.9751 14.2106 14.9813C14.0802 14.9838 14.0252 14.9457 14.0252 14.8047C14.0284 11.5977 14.0284 8.39011 14.0252 5.18313C14.0252 5.04769 14.0696 4.99776 14.205 5.00088C14.5108 5.00774 14.8173 5.00899 15.1238 5.00025C15.2742 4.99588 15.3198 5.04769 15.3191 5.19874C15.3158 6.43079 15.3161 7.66246 15.3164 8.89406L15.3166 10.0023ZM7.74486 9.98923L7.74469 11.0155C7.74438 12.2701 7.74406 13.5246 7.74798 14.7791C7.74861 14.932 7.71678 14.9888 7.55137 14.9838C7.15709 14.9713 6.76281 14.9763 6.36791 14.9813H6.36789H6.36788H6.36786L6.36733 14.9813C6.23251 14.9832 6.18819 14.9345 6.18819 14.7978C6.19131 11.599 6.19194 8.40072 6.18757 5.20186C6.18757 5.05019 6.23313 4.99838 6.38231 5.00088C6.77179 5.00774 7.16127 5.00837 7.55075 5.00025C7.70055 4.99713 7.74736 5.04707 7.74674 5.19874C7.74393 6.39668 7.74428 7.59427 7.74463 8.79178L7.74486 9.98923ZM5.12383 11.0297L5.124 10.0073L5.12392 9.13407C5.12373 7.82415 5.12355 6.51415 5.12712 5.20373C5.12712 5.05768 5.09092 4.999 4.9355 5.00025C4.18837 5.00649 3.44062 5.00649 2.69349 5.00025C2.54057 4.999 2.5 5.05268 2.5 5.20123C2.503 7.75479 2.5028 10.308 2.5026 12.8614V12.8614L2.5025 14.7766C2.5025 14.9726 2.50936 14.9795 2.70285 14.9795C2.90077 14.9795 3.09868 14.9791 3.29659 14.9787C3.84082 14.9778 4.38504 14.9768 4.92926 14.9832C5.09154 14.9851 5.12775 14.9339 5.12712 14.7791C5.1232 13.5295 5.12351 12.2795 5.12383 11.0297ZM12.6964 14.761V9.9886L12.6962 8.96245C12.6959 7.70851 12.6956 6.45456 12.6995 5.20061C12.7001 5.05081 12.6552 4.999 12.5041 5.00088C12.109 5.00512 11.7135 5.00446 11.3182 5.0038H11.3181H11.3181H11.318H11.318C11.132 5.00349 10.9461 5.00317 10.7602 5.00337C10.5586 5.004 10.5505 5.01336 10.5505 5.21497V14.7753C10.5505 14.9695 10.5592 14.9794 10.7515 14.9794C11.1349 14.9799 11.5183 14.9797 11.9017 14.9796H11.9037L12.4798 14.9794C12.6964 14.9794 12.6964 14.9794 12.6964 14.761ZM17.4967 11.0282L17.4969 10.0048L17.4967 8.97506C17.4964 7.71649 17.4961 6.45761 17.5 5.19874C17.5006 5.04707 17.4538 4.99713 17.304 5.00025C16.9145 5.00837 16.525 5.00774 16.1356 5.00088C15.9864 4.99838 15.9402 5.05019 15.9402 5.20186C15.9446 8.40072 15.9439 11.599 15.9408 14.7978C15.9402 14.9345 15.9845 14.9832 16.1193 14.9813L16.1199 14.9813H16.1199H16.1199C16.5148 14.9763 16.9091 14.9713 17.3034 14.9832C17.4663 14.9882 17.5006 14.9333 17.5 14.7791C17.4961 13.5291 17.4964 12.2787 17.4967 11.0282V11.0282V11.0282ZM9.61176 14.7697V9.99734V7.53375C9.61176 7.33743 9.61164 7.14115 9.61152 6.94489C9.61117 6.35618 9.61082 5.76765 9.61363 5.17876C9.61425 5.05206 9.57431 4.99588 9.44386 5.00212C9.30404 5.00837 9.16298 5.01086 9.02379 5.0015C8.86962 4.99089 8.82968 5.05643 8.82968 5.20311C8.83317 7.71074 8.83347 10.2188 8.83377 12.7266C8.83385 13.3535 8.83392 13.9805 8.83405 14.6074C8.83405 14.6221 8.8341 14.6367 8.83415 14.6513C8.83435 14.7097 8.83455 14.768 8.83155 14.8259C8.82593 14.9401 8.87961 14.9844 8.99134 14.9807C9.08573 14.9772 9.18043 14.978 9.275 14.9788C9.31551 14.9791 9.35599 14.9794 9.39642 14.9794C9.61176 14.9794 9.61176 14.9794 9.61176 14.7697Z" fill="#434E5B"/>
</svg>
