<svg width="18" height="20" viewBox="0 0 18 20" fill="none" xmlns="http://www.w3.org/2000/svg">
<path d="M10.0802 9.99999L13.296 6.42499C13.4368 6.26807 13.5159 6.05524 13.5159 5.83333C13.5159 5.61141 13.4368 5.39858 13.296 5.24166C13.1552 5.08474 12.9642 4.99658 12.765 4.99658C12.5659 4.99658 12.3749 5.08474 12.234 5.24166L9.02569 8.82499L5.81736 5.24166C5.67654 5.08474 5.48554 4.99658 5.28638 4.99658C5.08722 4.99658 4.89622 5.08474 4.7554 5.24166C4.61457 5.39858 4.53546 5.61141 4.53546 5.83333C4.53546 6.05524 4.61457 6.26807 4.7554 6.42499L7.97121 9.99999L4.7554 13.575C4.6853 13.6525 4.62966 13.7446 4.5917 13.8462C4.55373 13.9477 4.53418 14.0566 4.53418 14.1667C4.53418 14.2767 4.55373 14.3856 4.5917 14.4871C4.62966 14.5887 4.6853 14.6809 4.7554 14.7583C4.82492 14.8364 4.90763 14.8984 4.99877 14.9407C5.0899 14.983 5.18765 15.0048 5.28638 15.0048C5.38511 15.0048 5.48286 14.983 5.57399 14.9407C5.66512 14.8984 5.74784 14.8364 5.81736 14.7583L9.02569 11.175L12.234 14.7583C12.3036 14.8364 12.3863 14.8984 12.4774 14.9407C12.5685 14.983 12.6663 15.0048 12.765 15.0048C12.8637 15.0048 12.9615 14.983 13.0526 14.9407C13.1438 14.8984 13.2265 14.8364 13.296 14.7583C13.3661 14.6809 13.4217 14.5887 13.4597 14.4871C13.4977 14.3856 13.5172 14.2767 13.5172 14.1667C13.5172 14.0566 13.4977 13.9477 13.4597 13.8462C13.4217 13.7446 13.3661 13.6525 13.296 13.575L10.0802 9.99999Z" fill="#434E5B"/>
</svg>
