<svg width="16" height="16" viewBox="0 0 16 16" fill="none" xmlns="http://www.w3.org/2000/svg">
<path d="M14 5.96004C13.9931 5.8988 13.9796 5.83846 13.96 5.78004V5.72004C13.9279 5.65149 13.8852 5.58848 13.8333 5.53337L9.83333 1.53337C9.77822 1.48152 9.71521 1.43876 9.64667 1.40671C9.62677 1.40388 9.60657 1.40388 9.58667 1.40671C9.51894 1.36787 9.44415 1.34294 9.36667 1.33337H6.66667C6.13623 1.33337 5.62753 1.54409 5.25245 1.91916C4.87738 2.29423 4.66667 2.80294 4.66667 3.33337V4.00004H4C3.46957 4.00004 2.96086 4.21075 2.58579 4.58583C2.21071 4.9609 2 5.46961 2 6.00004V12.6667C2 13.1971 2.21071 13.7058 2.58579 14.0809C2.96086 14.456 3.46957 14.6667 4 14.6667H9.33333C9.86377 14.6667 10.3725 14.456 10.7475 14.0809C11.1226 13.7058 11.3333 13.1971 11.3333 12.6667V12H12C12.5304 12 13.0391 11.7893 13.4142 11.4143C13.7893 11.0392 14 10.5305 14 10V6.00004C14 6.00004 14 6.00004 14 5.96004ZM10 3.60671L11.7267 5.33337H10.6667C10.4899 5.33337 10.3203 5.26314 10.1953 5.13811C10.0702 5.01309 10 4.84352 10 4.66671V3.60671ZM10 12.6667C10 12.8435 9.92976 13.0131 9.80474 13.1381C9.67971 13.2631 9.51014 13.3334 9.33333 13.3334H4C3.82319 13.3334 3.65362 13.2631 3.5286 13.1381C3.40357 13.0131 3.33333 12.8435 3.33333 12.6667V6.00004C3.33333 5.82323 3.40357 5.65366 3.5286 5.52864C3.65362 5.40361 3.82319 5.33337 4 5.33337H4.66667V10C4.66667 10.5305 4.87738 11.0392 5.25245 11.4143C5.62753 11.7893 6.13623 12 6.66667 12H10V12.6667ZM12.6667 10C12.6667 10.1769 12.5964 10.3464 12.4714 10.4714C12.3464 10.5965 12.1768 10.6667 12 10.6667H6.66667C6.48986 10.6667 6.32029 10.5965 6.19526 10.4714C6.07024 10.3464 6 10.1769 6 10V3.33337C6 3.15656 6.07024 2.98699 6.19526 2.86197C6.32029 2.73695 6.48986 2.66671 6.66667 2.66671H8.66667V4.66671C8.66667 5.19714 8.87738 5.70585 9.25245 6.08092C9.62753 6.45599 10.1362 6.66671 10.6667 6.66671H12.6667V10Z" fill="white"/>
</svg>
