<svg width="10" height="10" viewBox="0 0 10 10" fill="none" xmlns="http://www.w3.org/2000/svg">
<rect width="10" height="10" rx="5" fill="#ED6B4F"/>
<path d="M5.47193 5.00136L6.90527 3.57136C6.96803 3.5086 7.0033 3.42346 7.0033 3.3347C7.0033 3.24593 6.96803 3.1608 6.90527 3.09803C6.8425 3.03526 6.75737 3 6.6686 3C6.57983 3 6.4947 3.03526 6.43193 3.09803L5.00193 4.53136L3.57193 3.09803C3.50916 3.03526 3.42403 3 3.33527 3C3.2465 3 3.16137 3.03526 3.0986 3.09803C3.03583 3.1608 3.00057 3.24593 3.00057 3.3347C3.00057 3.42346 3.03583 3.5086 3.0986 3.57136L4.53193 5.00136L3.0986 6.43136C3.06736 6.46235 3.04256 6.49922 3.02564 6.53984C3.00871 6.58046 3 6.62403 3 6.66803C3 6.71203 3.00871 6.7556 3.02564 6.79622C3.04256 6.83684 3.06736 6.87371 3.0986 6.9047C3.12959 6.93594 3.16645 6.96074 3.20707 6.97766C3.24769 6.99458 3.29126 7.0033 3.33527 7.0033C3.37927 7.0033 3.42284 6.99458 3.46346 6.97766C3.50408 6.96074 3.54095 6.93594 3.57193 6.9047L5.00193 5.47136L6.43193 6.9047C6.46292 6.93594 6.49979 6.96074 6.54041 6.97766C6.58103 6.99458 6.6246 7.0033 6.6686 7.0033C6.7126 7.0033 6.75617 6.99458 6.79679 6.97766C6.83741 6.96074 6.87428 6.93594 6.90527 6.9047C6.93651 6.87371 6.96131 6.83684 6.97823 6.79622C6.99515 6.7556 7.00387 6.71203 7.00387 6.66803C7.00387 6.62403 6.99515 6.58046 6.97823 6.53984C6.96131 6.49922 6.93651 6.46235 6.90527 6.43136L5.47193 5.00136Z" fill="white"/>
</svg>
