<svg width="268" height="208" viewBox="0 0 268 208" fill="none" xmlns="http://www.w3.org/2000/svg">
<path d="M8.11391 170.411C5.73228 178.572 3.72671 188.115 8.48996 195.147C14.256 203.559 27.6683 203.559 36.0666 197.532C44.465 191.631 48.9775 181.712 52.8633 172.169C59.3815 156.097 65.1475 139.648 67.4038 122.446C68.7826 112.401 67.5291 99.9708 58.504 95.5761C44.465 88.7958 32.5569 99.5941 28.0443 111.522C20.6488 130.859 13.8799 150.447 8.11391 170.411Z" fill="#F97777"/>
<path d="M50.6072 66.8222C46.9721 70.7146 43.8384 74.8581 40.9554 79.2528C37.0696 85.4053 34.3119 91.9345 31.3036 98.5893C30.1754 100.849 21.1503 120.939 23.1559 122.32C34.5626 130.482 45.844 139.522 58.8802 144.545C59.3816 144.67 56.8747 154.339 56.624 155.218C55.7465 158.733 54.8691 162.375 54.2423 165.89C52.8635 173.047 51.7354 180.33 50.4819 187.487C49.7298 191.505 49.103 195.523 48.4763 199.541C48.2256 201.299 105.134 205.191 110.273 205.191C125.315 205.442 149.006 209.711 158.156 194.267C160.287 190.626 161.415 186.482 162.418 182.339C168.059 158.106 170.44 133.119 169.939 108.258C169.814 102.356 169.438 96.5803 168.059 90.93C166.053 82.643 161.666 75.2348 157.154 68.2034C153.017 61.6742 146.499 58.1584 139.605 54.7683C118.922 44.8489 93.8525 41.5843 72.9193 50.8759C64.2702 54.6427 56.8747 60.1674 50.6072 66.8222Z" fill="#F5BA00"/>
<path d="M145.245 125.584C144.618 126.84 144.117 128.221 143.49 129.477C141.359 134.499 135.844 143.289 135.844 148.813C133.337 156.849 132.083 165.513 133.588 173.8C134.214 177.065 135.217 180.329 136.345 183.594C137.724 187.612 139.228 191.63 141.735 195.146C143.992 198.159 149.507 203.056 153.769 201.424C158.156 199.666 161.54 191.63 163.17 187.612C173.198 164.006 177.209 138.015 179.591 112.526C179.716 110.768 179.967 108.885 179.591 107.127C179.089 104.49 177.334 102.355 175.705 100.221C173.448 97.4586 170.941 94.5707 167.432 93.9428C164.173 93.315 160.663 95.0729 158.407 97.5841C156.15 100.095 154.772 103.234 153.393 106.373C150.76 112.903 148.003 119.181 145.245 125.584Z" fill="#FF735F"/>
<path d="M163.421 122.947C161.54 122.445 134.465 115.79 134.465 119.181C134.716 104.49 135.468 89.7991 136.847 75.1084C137.348 70.4626 137.849 65.6913 139.604 61.4222C141.359 57.0275 144.618 53.1351 148.88 51.5028C152.139 50.2472 155.649 50.3727 159.033 51.1261C169.688 53.3862 178.588 62.1755 181.22 72.7227C182.348 77.2429 182.348 82.0143 182.348 86.6601C182.223 100.472 181.22 114.284 180.343 128.095C174.702 127.97 169.061 124.454 163.421 122.947Z" fill="#F5BA00"/>
<path d="M177.21 48.365C177.586 49.6206 177.837 50.8762 177.962 52.2574C178.589 61.0467 172.697 68.4549 166.931 74.3563C164.675 76.7419 161.416 78.2487 159.41 80.7599C157.029 83.5223 157.154 88.0425 153.143 89.2981C151.388 89.8004 149.382 89.1726 148.129 87.7914C146.625 86.1591 146.625 84.2757 147.377 82.2667C148.254 79.881 149.006 76.8675 150.511 74.8585C151.639 73.2262 153.895 72.0962 155.65 71.0917C159.034 69.0827 161.792 65.1903 162.293 61.2978C163.296 53.8897 162.293 45.4771 164.8 38.4456C165.302 37.19 165.803 36.0599 166.806 35.181C167.809 34.3021 169.187 33.7998 170.441 34.3021C172.196 34.9299 172.948 37.0644 173.575 38.8223C174.577 41.9613 176.207 45.1004 177.21 48.365Z" fill="#F97777"/>
<path d="M172.8 43.1148C173.048 44.186 173.214 45.2572 173.296 46.4355C173.709 53.9338 169.825 60.2539 166.023 65.2885C164.535 67.3237 162.386 68.6091 161.064 70.7515C159.494 73.1081 159.576 76.9644 156.931 78.0356C155.774 78.4641 154.452 77.9285 153.625 76.7502C152.634 75.3576 152.634 73.7509 153.129 72.037C153.708 70.0017 154.204 67.4308 155.196 65.7169C155.94 64.3244 157.427 63.3603 158.584 62.5034C160.816 60.7895 162.634 57.4688 162.965 54.1481C163.626 47.828 162.965 40.6511 164.618 34.6524C164.948 33.5812 165.279 32.6172 165.94 31.8673C166.601 31.1175 167.511 30.689 168.337 31.1175C169.494 31.6531 169.99 33.4741 170.403 34.9738C171.065 37.6517 172.139 40.3297 172.8 43.1148Z" fill="#E86161"/>
<path d="M167.558 141.656C168.435 157.477 168.185 173.675 163.923 189.119C162.669 193.765 160.538 200.294 156.026 202.805C151.012 205.693 143.115 203.307 138.477 200.67C135.343 198.913 132.46 196.778 130.455 193.765C127.446 189.119 127.196 183.092 127.572 177.567C128.575 162.5 132.21 148.562 135.218 133.872C138.352 117.925 142.112 102.104 146.374 86.2837C148.129 79.6289 150.511 74.6065 156.151 70.3374C160.162 67.3239 166.806 63.3059 167.182 71.2163C168.31 94.5708 166.304 118.051 167.558 141.656Z" fill="#F97777"/>
<path d="M104.257 61.2969C103.755 62.1758 103.379 63.0548 103.128 63.9337C102.878 65.1893 103.003 66.4449 103.128 67.575C104.257 76.741 106.137 85.7815 116.039 88.6694C122.557 90.5528 130.58 89.925 136.596 86.5348C138.477 85.4048 140.357 84.2747 141.861 82.6424C143.365 81.0101 144.493 79.0011 144.493 76.741C151.137 78.2477 157.906 71.4674 161.29 66.6961C169.187 55.6466 171.819 41.7093 170.566 28.3997C170.315 25.1351 169.814 21.6194 167.808 18.9826C166.429 17.0992 164.424 15.8436 162.544 14.588C153.519 8.81211 143.867 8.43543 134.089 13.0812C125.19 17.2248 118.922 26.1396 114.66 34.6778C112.906 38.3191 112.655 43.0905 111.151 46.8573C109.521 51.3775 107.39 55.7722 104.883 59.9157C104.758 60.5436 104.507 60.9202 104.257 61.2969Z" fill="#F97777"/>
<path d="M116.791 14.8395C118.796 10.3193 121.805 6.05016 125.565 3.53892C132.334 -1.23242 142.111 -0.353486 149.757 1.40438C154.145 2.40887 158.532 4.2923 163.17 4.2923C167.306 4.2923 171.568 0.148769 175.579 1.52995C177.334 2.15776 178.713 3.66449 179.089 5.54792C179.716 8.5614 177.835 11.4493 176.457 14.2117C175.328 16.3462 174.326 18.6063 172.947 20.6153C171.067 23.1266 167.933 25.2611 164.799 25.6378C163.671 25.7634 162.668 25.6378 161.54 25.5122C155.022 24.8844 149.632 23.001 144.618 28.149C141.234 31.6648 139.604 36.4361 137.097 40.4541C136.47 41.4586 135.844 42.4631 134.841 43.0909C133.587 43.8442 131.833 43.8442 130.454 44.2209C124.061 45.7277 119.799 56.526 113.03 54.1403C107.264 52.1313 108.518 46.8577 110.774 42.7142C113.657 37.4406 113.03 31.1625 113.908 25.2611C114.158 21.8709 115.161 18.2296 116.791 14.8395Z" fill="#19034D"/>
<path d="M118.296 39.7008C116.792 41.7098 116.04 44.0954 115.538 46.4811C115.162 48.6157 114.912 50.7502 115.538 52.7592C116.165 54.7682 117.795 56.6516 119.925 57.0283C121.555 57.2794 123.31 56.6516 124.563 55.5216C127.572 52.8848 131.081 44.8488 130.204 40.7053C128.951 34.9294 121.304 35.9339 118.296 39.7008Z" fill="#F97777"/>
<path d="M124.313 41.9604C122.683 42.5883 121.43 43.9694 120.552 45.6017C119.8 47.234 119.424 48.9919 119.173 50.7498" stroke="#19034D" stroke-miterlimit="10"/>
<path d="M166.805 43.0912C166.931 43.8445 166.555 44.7235 165.677 44.8491C164.925 44.9746 164.048 44.5979 163.922 43.719C163.797 42.9656 164.173 42.0867 165.051 41.9611C165.803 41.8356 166.68 42.3378 166.805 43.0912Z" fill="#19034D"/>
<path d="M150.385 44.4725C150.51 45.2258 150.009 45.9792 149.132 46.1048C148.379 46.2303 147.627 45.7281 147.502 44.8492C147.377 44.0958 147.878 43.3424 148.755 43.2168C149.508 43.0913 150.26 43.5935 150.385 44.4725Z" fill="#19034D"/>
<path d="M129.075 165.137C128.449 169.281 127.947 173.299 127.697 177.442C127.321 183.093 127.446 188.994 130.58 193.64C132.585 196.653 135.468 198.788 138.602 200.546C143.24 203.182 151.137 205.568 156.151 202.68C160.538 200.169 162.669 193.514 164.048 188.994C166.179 181.209 167.307 173.173 167.808 165.137H129.075Z" fill="url(#paint0_linear)"/>
<path d="M84.075 140.779C81.8187 134.249 79.5624 127.72 77.1808 121.191C77.3062 121.693 75.9273 123.828 75.6766 124.33C75.1752 125.46 74.6738 126.59 74.1724 127.72C73.1696 130.106 72.0415 132.366 71.0387 134.626C69.0331 139.021 67.0276 143.541 64.5206 147.684C62.515 147.057 60.6348 146.052 59.0053 144.671C58.3785 148.689 57.125 152.33 56.2476 156.348C55.8715 158.357 55.4955 160.492 55.1195 162.501C54.8688 163.505 54.7434 164.635 54.4927 165.64C54.3674 166.016 54.242 168.277 53.866 168.528C64.5206 162.25 74.2978 154.465 82.8215 145.55C83.4482 144.797 84.2003 144.043 84.3257 143.039C84.5764 142.285 84.3257 141.532 84.075 140.779Z" fill="#F0AF09"/>
<path d="M131.457 71.4673C131.332 74.7319 131.207 77.9965 131.081 81.2611C131.081 83.019 130.956 84.6513 130.956 86.4091C130.956 86.6603 131.081 88.1408 131.081 88.7686C133.91 88.28 135.333 87.6704 136.842 86.6512C139.474 85.3956 141.987 83.3957 143.366 80.6333C143.867 79.6288 144.243 78.4987 144.494 77.3687C140.107 76.3642 134.842 74.6063 131.457 71.4673Z" fill="#E86161"/>
<path d="M96.9854 204.437C113.907 206.446 132.71 208.706 149.005 203.809C146.373 200.042 143.74 196.275 140.356 193.011C136.972 189.872 132.835 187.361 128.197 186.858C125.816 186.607 123.309 186.733 120.927 187.109C116.665 187.612 111.275 189.872 107.013 189.495C103.504 189.244 98.8656 186.105 95.4812 184.849C72.7931 175.809 45.8432 163.629 20.8988 170.159C8.36399 173.423 0.717726 183.97 9.49213 195.773C14.3807 202.428 22.1523 201.172 29.7986 201.298C50.3558 201.675 71.0383 201.424 91.4701 203.809C93.3503 204.06 95.2305 204.311 96.9854 204.437Z" fill="#F97777"/>
<path d="M148.254 63.8084L147 63.5573C147.752 60.9205 148.63 58.9115 149.883 57.2792C151.513 55.2702 153.644 53.8891 155.9 53.6379C156.652 53.5124 157.404 53.6379 158.031 53.7635C159.284 54.1402 160.538 55.2703 161.165 56.777L160.036 57.2792C159.535 56.1492 158.658 55.2703 157.655 54.8936C157.153 54.768 156.652 54.6424 156.025 54.768C154.145 55.0191 152.265 56.1492 150.886 57.907C149.758 59.4138 148.88 61.2972 148.254 63.8084Z" fill="#19034D"/>
<path d="M153.268 68.8315C152.516 68.8315 151.513 69.3338 151.137 69.9616C151.012 70.3383 151.012 70.715 151.262 70.9661C151.262 71.2172 151.513 71.4683 151.764 71.4683C152.641 71.7195 153.393 71.2172 154.02 70.5894C154.521 69.836 154.271 68.8315 153.268 68.8315Z" fill="#E86161"/>
<path opacity="0.49" d="M217.955 174.169L185.435 52.8543C180.915 35.7747 165.597 23.8442 147.893 23.4674C114.368 22.7139 95.032 61.2684 115.749 87.7668C149.776 131.094 187.318 179.82 187.318 179.82L217.955 174.169Z" fill="url(#paint1_linear)"/>
<path d="M252.418 201.424H97.3617C95.6069 201.424 94.228 200.043 94.228 198.285V197.155C94.228 195.397 95.6069 194.016 97.3617 194.016H252.418C254.173 194.016 255.552 195.397 255.552 197.155V198.285C255.552 200.043 254.173 201.424 252.418 201.424Z" fill="white"/>
<path d="M256.053 201.425H118.17L130.203 122.07C130.579 119.307 132.961 117.298 135.718 117.298H262.571C265.83 117.298 268.337 120.312 267.836 123.576L256.053 201.425Z" fill="#EEF1F5"/>
<path d="M199.772 160.366C203.441 160.366 206.415 157.386 206.415 153.711C206.415 150.036 203.441 147.056 199.772 147.056C196.103 147.056 193.128 150.036 193.128 153.711C193.128 157.386 196.103 160.366 199.772 160.366Z" fill="#5451D6"/>
<path d="M260.716 208H2.67396C1.3001 208 0.249512 206.345 0.249512 204.18V202.906C0.249512 200.741 1.3001 199.086 2.67396 199.086H260.797C262.17 199.086 263.221 200.741 263.221 202.906V204.18C263.14 206.345 262.09 208 260.716 208Z" fill="#4644B5"/>
<defs>
<linearGradient id="paint0_linear" x1="132.979" y1="207.402" x2="150.846" y2="168.543" gradientUnits="userSpaceOnUse">
<stop stop-color="#201B59" stop-opacity="0.9148"/>
<stop offset="0.5554" stop-color="#FFCC00" stop-opacity="0"/>
</linearGradient>
<linearGradient id="paint1_linear" x1="197.01" y1="124.41" x2="103.319" y2="22.5683" gradientUnits="userSpaceOnUse">
<stop offset="0.00446914" stop-color="white"/>
<stop offset="0.551" stop-color="white" stop-opacity="0.3"/>
</linearGradient>
</defs>
</svg>
