<svg width="222" height="224" viewBox="0 0 222 224" fill="none" xmlns="http://www.w3.org/2000/svg">
<path d="M196.877 154.957H210.879V149.04H196.877V154.957Z" fill="#EBEBEB"/>
<path d="M204.691 162.418L211.75 162.27L215.23 162.212C216.388 162.186 217.541 162.212 218.693 162.18L218.455 162.418V156.501L218.72 156.766L211.719 156.734C209.387 156.734 207.05 156.67 204.718 156.644L204.86 156.501C204.86 157.469 204.818 158.442 204.792 159.425L204.691 162.418ZM204.691 162.418L204.596 159.515C204.57 158.532 204.533 157.532 204.527 156.528V156.343H204.675C207.007 156.311 209.345 156.258 211.676 156.253L218.677 156.221H218.942V156.485L218.91 162.402V162.64H218.677C217.498 162.64 216.314 162.64 215.135 162.614L211.613 162.556L204.691 162.418Z" fill="#EBEBEB"/>
<path d="M101.557 104.3L108.621 104.152L112.095 104.094C113.253 104.068 114.406 104.094 115.559 104.068L115.321 104.3L115.295 98.3832L115.559 98.6476L108.558 98.6159C106.226 98.6159 103.889 98.5577 101.557 98.526L101.7 98.3832C101.7 99.3509 101.657 100.324 101.631 101.313L101.557 104.3ZM101.557 104.3L101.483 101.35C101.456 100.366 101.425 99.3667 101.414 98.362V98.2193H101.562C103.894 98.1928 106.231 98.1347 108.563 98.1294L115.564 98.0977H115.829V98.362L115.802 104.279V104.522H115.569C114.39 104.522 113.206 104.522 112.032 104.491L108.505 104.432L101.557 104.3Z" fill="#EBEBEB"/>
<path d="M109.369 111.761H123.371V105.844H109.369V111.761Z" fill="#EBEBEB"/>
<path d="M93.6271 111.761L100.692 111.613L104.171 111.555C105.329 111.529 106.476 111.555 107.629 111.529L107.397 111.761L107.365 105.844L107.629 106.109L100.628 106.077C98.2963 106.077 95.9644 106.019 93.6271 105.987L93.7752 105.844C93.7752 106.812 93.7276 107.785 93.7065 108.774L93.6271 111.761ZM93.6271 111.761L93.5531 108.832C93.5531 107.848 93.495 106.849 93.4844 105.844V105.701H93.6271C95.9644 105.701 98.2963 105.617 100.628 105.612L107.629 105.58H107.899V105.844L107.872 111.761V111.999H107.635C106.455 111.999 105.271 111.999 104.097 111.967L100.575 111.909L93.6271 111.761Z" fill="#EBEBEB"/>
<path d="M123.115 36.8174H137.117V30.9003H123.115V36.8174Z" fill="#EBEBEB"/>
<path d="M3.31074 162.418L10.3752 162.27L13.8546 162.212C15.0073 162.186 16.1601 162.212 17.3128 162.18L17.0801 162.418L17.0484 156.501L17.3128 156.766L10.3118 156.734C7.97986 156.734 5.64265 156.67 3.31074 156.644L3.45351 156.501C3.45351 157.469 3.41121 158.442 3.38477 159.425L3.31074 162.418ZM3.31074 162.418L3.23671 159.515C3.21027 158.532 3.17854 157.532 3.16797 156.528V156.343H3.31074C5.64265 156.311 7.97986 156.258 10.3118 156.253L17.3128 156.221H17.5772V156.485V162.402V162.64H17.3392C16.1601 162.64 14.9756 162.64 13.8017 162.614L10.28 162.556L3.31074 162.418Z" fill="#EBEBEB"/>
<path d="M11.123 12.6204L18.1875 12.4723L21.6669 12.4142C22.8249 12.3877 23.9723 12.4142 25.1251 12.3824L24.8924 12.6204L24.8607 6.69807L25.1251 6.96246L18.124 6.93073C15.7921 6.93073 13.4602 6.86728 11.123 6.84084L11.2711 6.69807C11.2711 7.66573 11.2235 8.63869 11.197 9.6275L11.123 12.6204ZM11.123 12.6204L11.0648 9.69096C11.0648 8.70743 11.0067 7.70803 10.9961 6.70335V6.56059H11.1389C13.4761 6.53415 15.808 6.47598 18.1399 6.47069L25.1409 6.43896H25.4106V6.69807L25.3419 12.6204V12.8583H25.1039C23.9247 12.8583 22.7403 12.8583 21.5664 12.8266L18.0447 12.7685L11.123 12.6204Z" fill="#EBEBEB"/>
<path d="M3.31043 20.0815H17.3125V14.1645L3.31043 14.1645V20.0815Z" fill="#EBEBEB"/>
<path d="M204.691 12.6204L211.75 12.4723L215.23 12.4142C216.388 12.3877 217.541 12.4142 218.693 12.3824L218.455 12.6204V6.70335L218.72 6.96774L211.719 6.93602C209.387 6.93602 207.05 6.87256 204.718 6.84613L204.86 6.70335C204.86 7.67102 204.818 8.64397 204.792 9.63279L204.691 12.6204ZM204.691 12.6204L204.596 9.69096C204.57 8.70743 204.533 7.70803 204.527 6.70335V6.56059H204.675C207.007 6.53415 209.345 6.47598 211.676 6.47069L218.677 6.43896H218.942V6.69807L218.926 12.6204V12.8583H218.693C217.514 12.8583 216.33 12.8583 215.151 12.8266L211.629 12.7685L204.691 12.6204Z" fill="#EBEBEB"/>
<path d="M68.3152 181.603H30.2695V223.73H68.3152V181.603Z" fill="#EBEBEB"/>
<path d="M10.6293 223.736H30.2734L30.2734 181.602H10.6293L10.6293 223.736Z" fill="#DBDBDB"/>
<path d="M11.9766 220.854C13.436 217.857 14.8778 214.861 16.302 211.864L20.5798 202.754L24.81 193.653C26.2201 190.615 27.602 187.565 28.9557 184.505C27.4962 187.502 26.0544 190.507 24.6302 193.521L20.3683 202.584L16.1381 211.685C14.7315 214.727 13.3443 217.783 11.9766 220.854Z" fill="#EBEBEB"/>
<path d="M11.9766 184.505C13.3443 187.569 14.7262 190.618 16.1222 193.653L20.3524 202.754L24.6144 211.817C26.0421 214.831 27.4839 217.827 28.9398 220.806C27.572 217.746 26.1901 214.697 24.7942 211.658L20.5639 202.558L16.302 193.495C14.8743 190.498 13.4325 187.502 11.9766 184.505Z" fill="#EBEBEB"/>
<path d="M68.3152 117.974H30.2695V157.199H68.3152V117.974Z" fill="#EBEBEB"/>
<path d="M10.6293 157.205H30.2734L30.2734 117.974H10.6293L10.6293 157.205Z" fill="#DBDBDB"/>
<path d="M46.0625 127.08H46.8715H47.4743L47.818 126.377L48.3045 127.08L48.9602 125.636L49.5842 127.08H51.3662H52.1752L52.4713 126.118L52.7463 127.08H53.275V117.974H46.0625V127.08Z" fill="#DBDBDB"/>
<path d="M11.9766 154.703C13.436 151.918 14.8778 149.116 16.302 146.296L20.5639 137.835L24.7942 129.375C26.2042 126.555 27.5861 123.715 28.9398 120.856C27.4804 123.648 26.0386 126.447 24.6144 129.253L20.3524 137.687L16.1222 146.148C14.7262 149 13.3443 151.851 11.9766 154.703Z" fill="#EBEBEB"/>
<path d="M11.9766 120.877C13.3443 123.722 14.7262 126.555 16.1222 129.375L20.3524 137.835L24.6144 146.296C26.0421 149.116 27.4839 151.915 28.9398 154.693C27.572 151.845 26.1901 149.005 24.7942 146.174L20.5639 137.714L16.302 129.28C14.8743 126.47 13.4325 123.669 11.9766 120.877Z" fill="#EBEBEB"/>
<path d="M32.7751 154.767H37V150.542H32.7751V154.767Z" fill="white"/>
<path d="M65.78 157.205H27.7344V181.602H65.78V157.205Z" fill="#DBDBDB"/>
<path d="M8.09023 181.603H27.7344L27.7344 157.205H8.09023L8.09023 181.603Z" fill="#C7C7C7"/>
<path d="M43.5312 166.31H44.335H44.9431L45.2868 165.607L45.7733 166.31L46.429 164.867L47.0529 166.31H48.8296H49.6439L49.9348 165.348L50.215 166.31H50.7438V157.205H43.5312V166.31Z" fill="white"/>
<path d="M9.44531 180.138C10.9012 178.375 12.343 176.597 13.7707 174.802L18.0327 169.44L22.2629 164.052C23.6518 162.254 25.032 160.449 26.4033 158.637C24.9509 160.4 23.5091 162.179 22.0778 163.973L17.8159 169.34L13.5857 174.723C12.1932 176.531 10.8131 178.336 9.44531 180.138Z" fill="#DBDBDB"/>
<path d="M9.44531 158.653C10.8166 160.465 12.1985 162.27 13.5909 164.068L17.8212 169.456L22.0831 174.818C23.4932 176.602 24.9315 178.375 26.398 180.138C25.0337 178.326 23.6536 176.521 22.2576 174.723L18.0274 169.34L13.7654 163.973C12.3413 162.203 10.9012 160.43 9.44531 158.653Z" fill="#DBDBDB"/>
<path d="M213.913 186.88H175.867V223.736H213.913V186.88Z" fill="#DBDBDB"/>
<path d="M156.227 223.736H175.871V186.88H156.227V223.736Z" fill="#C7C7C7"/>
<path d="M191.66 195.985H192.464H193.072L193.416 195.282L193.902 195.985L194.558 194.542L195.182 195.985H196.959H197.773L198.069 195.018L198.344 195.985H198.873V186.88H191.66V195.985Z" fill="white"/>
<path d="M157.578 221.541C159.034 218.865 160.476 216.179 161.904 213.482L166.166 205.382L170.396 197.249C171.806 194.531 173.186 191.806 174.536 189.074C173.084 191.75 171.642 194.436 170.211 197.133L165.949 205.228L161.745 213.366C160.349 216.084 158.96 218.809 157.578 221.541Z" fill="#DBDBDB"/>
<path d="M157.578 189.074C158.949 191.806 160.331 194.531 161.724 197.249L165.928 205.382L170.19 213.482C171.617 216.179 173.059 218.865 174.515 221.541C173.151 218.805 171.771 216.08 170.375 213.366L166.144 205.228L161.882 197.133C160.469 194.436 159.034 191.75 157.578 189.074Z" fill="#DBDBDB"/>
<path d="M147.762 4.58301V94.5283H209.661V4.58301H147.762ZM207.376 92.2176H150.046V6.84089H207.376V92.2176Z" fill="#EBEBEB"/>
<path d="M207.377 6.84082H150.047V92.2175H207.377V6.84082Z" fill="white"/>
<path d="M150.045 53.3152L207.375 53.3152V51.0309L150.045 51.0309V53.3152Z" fill="#EBEBEB"/>
<path d="M143.555 101.053L213.867 101.053V94.4966L143.555 94.4966V101.053Z" fill="#DBDBDB"/>
<path d="M145.422 103.676L212.006 105.072V101.053H145.422V103.676Z" fill="#EBEBEB"/>
<path d="M150.047 6.84082H207.377V65.4983H150.047V6.84082ZM205.262 8.95594H152.162V63.3832H205.262V8.95594Z" fill="#DBDBDB"/>
<path d="M189.08 6.84082H187.938V63.3832H189.08V6.84082Z" fill="#DBDBDB"/>
<path d="M169.486 6.84082H168.344V63.3832H169.486V6.84082Z" fill="#DBDBDB"/>
<path d="M12.3438 4.58301V94.5283H74.2426V4.58301H12.3438ZM71.9583 92.2176H14.6281V6.84089H71.9583V92.2176Z" fill="#EBEBEB"/>
<path d="M71.9552 6.84082H14.625V92.2175H71.9552V6.84082Z" fill="white"/>
<path d="M14.6268 53.3152L71.957 53.3152V51.0309L14.6268 51.0309V53.3152Z" fill="#EBEBEB"/>
<path d="M8.13357 101.053L78.4453 101.053V94.4966L8.13357 94.4966V101.053Z" fill="#DBDBDB"/>
<path d="M10 103.676L76.5839 105.072V101.053H10V103.676Z" fill="#EBEBEB"/>
<path d="M14.625 6.84082H71.9552V65.4983H14.625V6.84082ZM69.8401 8.95594H16.7401V63.3832H69.8401V8.95594Z" fill="#DBDBDB"/>
<path d="M53.6617 6.84082H52.5195V63.3832H53.6617V6.84082Z" fill="#DBDBDB"/>
<path d="M34.064 6.84082H32.9219V63.3832H34.064V6.84082Z" fill="#DBDBDB"/>
<path d="M157.908 180.164H105.199V223.714H157.908V180.164Z" fill="#FBA0B1"/>
<path opacity="0.1" d="M157.908 180.164H105.199V223.714H157.908V180.164Z" fill="black"/>
<path d="M178.793 180.169H157.906V223.72H178.793V180.169Z" fill="#FBA0B1"/>
<path opacity="0.2" d="M178.793 180.169H157.906V223.72H178.793V180.169Z" fill="black"/>
<path d="M177.353 220.716C175.809 217.621 174.277 214.515 172.758 211.399L168.226 202.029L163.752 192.622C162.272 189.481 160.804 186.33 159.348 183.167C160.899 186.266 162.432 189.372 163.948 192.485L168.474 201.855L172.948 211.262C174.435 214.402 175.904 217.554 177.353 220.716Z" fill="#FBA0B1"/>
<path d="M177.353 183.167C175.9 186.34 174.432 189.492 172.948 192.622L168.474 202.029L163.948 211.399C162.429 214.512 160.895 217.617 159.348 220.716C160.804 217.543 162.272 214.392 163.752 211.262L168.226 201.855L172.758 192.49C174.277 189.37 175.809 186.263 177.353 183.167Z" fill="#FBA0B1"/>
<path d="M135.28 189.576H134.45H133.821L133.466 188.852L132.964 189.576L132.282 188.085L131.642 189.576H129.802H128.961L128.654 188.582L128.369 189.576H127.824V180.169H135.28V189.576Z" fill="white"/>
<path d="M161.087 136.619H121.762V180.164H161.087V136.619Z" fill="#FBA0B1"/>
<path d="M181.391 136.619H161.086V180.169H181.391V136.619Z" fill="#FBA0B1"/>
<path opacity="0.1" d="M181.391 136.619H161.086V180.169H181.391V136.619Z" fill="black"/>
<g opacity="0.1">
<path d="M158.203 177.166C155.316 174.067 152.454 170.962 149.616 167.849L141.14 158.458L132.79 149.051C130.019 145.91 127.277 142.758 124.562 139.596C127.453 142.695 130.316 145.802 133.15 148.919L141.61 158.283L149.96 167.69C152.741 170.845 155.489 174.004 158.203 177.166Z" fill="black"/>
<path d="M158.203 139.617C155.485 142.79 152.743 145.942 149.975 149.072L141.626 158.458L133.166 167.828C130.345 170.941 127.483 174.046 124.578 177.145C127.296 173.972 130.039 170.821 132.806 167.69L141.139 158.304L149.6 148.94C152.445 145.82 155.313 142.713 158.203 139.617Z" fill="black"/>
</g>
<path d="M178.535 172.798H174.977V177.821H178.535V172.798Z" fill="white"/>
<path d="M0.722656 223.736L28.2932 223.603L55.8637 223.561L111 223.471L166.135 223.561L193.706 223.603L221.276 223.736L193.706 223.862L166.135 223.91L111 224L55.8637 223.91L28.2932 223.862L0.722656 223.736Z" fill="#263238"/>
<path d="M132.002 73.7473C131.706 73.557 131.409 73.3719 131.113 73.1921L131.319 72.8484L132.218 73.4142L132.002 73.7473Z" fill="#263238"/>
<path d="M119.088 126.731H118.707V126.334C119.413 126.35 120.119 126.324 120.822 126.255L120.864 126.652C120.288 126.694 119.685 126.731 119.088 126.731ZM123.011 126.297L122.927 125.911C123.614 125.756 124.29 125.549 124.947 125.293L125.089 125.663C124.413 125.922 123.719 126.131 123.011 126.287V126.297ZM127.046 124.711L126.85 124.367C127.458 124.012 128.036 123.609 128.579 123.162L128.833 123.463C128.273 123.93 127.676 124.349 127.046 124.716V124.711ZM130.393 121.961L130.102 121.692C130.577 121.17 131.013 120.615 131.408 120.031L131.736 120.253C131.331 120.858 130.882 121.433 130.393 121.972V121.961ZM132.815 118.371L132.455 118.202C132.757 117.565 133.003 116.903 133.19 116.224L133.571 116.33C133.379 117.033 133.126 117.717 132.815 118.376V118.371ZM133.957 114.183L133.56 114.151C133.56 113.866 133.597 113.575 133.597 113.295C133.596 112.902 133.573 112.511 133.529 112.121C133.117 112.093 132.708 112.042 132.302 111.967L132.371 111.576C133.016 111.693 133.671 111.753 134.327 111.756H134.465V112.153H134.322H133.925C133.968 112.535 133.989 112.92 133.989 113.305C133.994 113.591 133.978 113.892 133.957 114.188V114.183ZM136.638 111.888L136.548 111.502C137.228 111.341 137.887 111.1 138.51 110.783L138.69 111.137C138.038 111.47 137.349 111.723 136.638 111.893V111.888ZM130.197 111.396C129.514 111.15 128.851 110.849 128.214 110.497L128.41 110.154C129.026 110.494 129.668 110.784 130.33 111.021L130.197 111.396ZM133.042 110C132.81 109.339 132.505 108.706 132.133 108.113L132.466 107.901C132.858 108.518 133.177 109.178 133.418 109.868L133.042 110ZM140.509 109.916L140.255 109.614C140.791 109.161 141.282 108.656 141.72 108.107L142.026 108.356C141.574 108.931 141.066 109.459 140.509 109.932V109.916ZM126.422 109.281L126.311 109.176C125.787 108.716 125.371 108.147 125.089 107.51L125.46 107.362C125.717 107.945 126.1 108.465 126.581 108.885L126.686 108.98L126.422 109.281ZM143.253 106.579L142.915 106.373C143.285 105.76 143.628 105.13 143.93 104.512L144.289 104.686C143.983 105.315 143.634 105.955 143.253 106.579ZM130.816 106.5C130.333 106.032 129.801 105.617 129.23 105.263L129.15 105.21L129.357 104.871L129.441 104.924C130.031 105.296 130.579 105.731 131.075 106.22L130.816 106.5ZM125.565 105.479L125.237 105.257C125.464 104.939 125.764 104.681 126.112 104.504C126.46 104.327 126.846 104.237 127.236 104.242V104.639C126.911 104.637 126.59 104.712 126.3 104.858C126.009 105.004 125.758 105.217 125.565 105.479ZM145.13 102.693L144.76 102.555C145.005 101.892 145.215 101.216 145.389 100.53L145.77 100.625C145.599 101.326 145.388 102.017 145.135 102.693H145.13ZM146.188 98.4995L145.791 98.4466C145.886 97.7452 145.94 97.039 145.955 96.3315H146.352C146.337 97.0566 146.282 97.7804 146.188 98.4995ZM145.881 94.2164C145.817 93.5065 145.717 92.8006 145.58 92.1012L145.971 92.0219C146.109 92.7302 146.211 93.4449 146.278 94.1635L145.881 94.2164ZM145.061 90.0601C144.86 89.3939 144.623 88.7223 144.348 88.0561L144.718 87.908C144.993 88.5796 145.246 89.267 145.442 89.9438L145.061 90.0601ZM143.475 86.1207C143.158 85.5021 142.804 84.8781 142.417 84.2647L142.756 84.0585C143.137 84.6772 143.496 85.3117 143.813 85.941L143.475 86.1207ZM141.249 82.4933C140.842 81.9222 140.403 81.3564 139.948 80.8065L140.255 80.5527C140.715 81.1079 141.159 81.6843 141.571 82.2607L141.249 82.4933ZM138.542 79.2043C138.06 78.6755 137.553 78.1838 137.035 77.6973L137.304 77.4065C137.833 77.9035 138.362 78.4164 138.827 78.9346L138.542 79.2043ZM135.438 76.2802C134.909 75.8307 134.332 75.3865 133.767 74.9635L133.999 74.6462C134.576 75.0693 135.147 75.5187 135.691 75.9788L135.438 76.2802Z" fill="#263238"/>
<path d="M116.495 126.541C116.139 126.497 115.786 126.433 115.438 126.35L115.533 125.964C115.533 125.964 115.913 126.06 116.548 126.149L116.495 126.541Z" fill="#263238"/>
<path d="M111.159 125.753C110.91 127.868 115.23 129.052 115.558 126.281C115.886 123.511 111.407 123.622 111.159 125.753Z" fill="#263238"/>
<path d="M116.819 129.253C116.417 130.052 114.994 130.163 113.524 129.137C112.526 128.375 111.682 127.429 111.039 126.35C112.282 126.221 113.539 126.33 114.741 126.673C116.48 127.26 117.242 128.444 116.819 129.253Z" fill="#EBEBEB"/>
<path d="M111.051 126.35C111.886 126.726 112.706 127.133 113.525 127.535C114.345 127.937 115.154 128.365 115.953 128.809C115.117 128.434 114.297 128.027 113.478 127.625C112.658 127.223 111.849 126.795 111.051 126.35Z" fill="#263238"/>
<path d="M114.892 129.237C114.702 129.017 114.526 128.786 114.363 128.545C114.204 128.305 114.059 128.056 113.93 127.799C114.12 128.019 114.296 128.251 114.458 128.492C114.619 128.73 114.764 128.98 114.892 129.237Z" fill="#263238"/>
<path d="M113.113 127.381C113.404 127.306 113.699 127.246 113.996 127.202C114.296 127.159 114.598 127.133 114.901 127.122C114.315 127.268 113.716 127.355 113.113 127.381Z" fill="#263238"/>
<path d="M112.654 127.73C112.472 127.504 112.342 127.24 112.273 126.958C112.455 127.185 112.585 127.448 112.654 127.73Z" fill="#263238"/>
<path d="M117.515 123.717C117.309 122.844 115.955 122.411 114.29 123.066C113.14 123.578 112.099 124.305 111.223 125.208C112.411 125.62 113.668 125.799 114.924 125.737C116.706 125.589 117.727 124.616 117.515 123.717Z" fill="#EBEBEB"/>
<path d="M111.223 125.208C112.122 125.039 113.015 124.827 113.904 124.621C114.792 124.415 115.68 124.193 116.547 123.944C115.654 124.114 114.76 124.325 113.872 124.531C112.983 124.737 112.106 124.96 111.223 125.208Z" fill="#263238"/>
<path d="M115.626 123.283C115.396 123.447 115.175 123.624 114.965 123.812C114.755 124.01 114.555 124.218 114.367 124.436C114.6 124.276 114.821 124.099 115.028 123.907C115.239 123.711 115.439 123.503 115.626 123.283Z" fill="#263238"/>
<path d="M113.457 124.679C113.993 124.958 114.556 125.18 115.139 125.34C114.604 125.059 114.04 124.838 113.457 124.679Z" fill="#263238"/>
<path d="M113.116 124.235C113.001 124.321 112.896 124.421 112.804 124.531C112.713 124.645 112.633 124.767 112.566 124.896C112.682 124.808 112.786 124.707 112.878 124.595C112.974 124.487 113.055 124.366 113.116 124.235Z" fill="#263238"/>
<path d="M111.158 125.753C111.31 125.77 111.452 125.832 111.569 125.931C111.685 126.03 111.769 126.161 111.811 126.307C111.853 126.454 111.851 126.61 111.804 126.755C111.758 126.9 111.669 127.028 111.55 127.123C111.431 127.218 111.286 127.276 111.134 127.289C110.982 127.302 110.829 127.269 110.696 127.195C110.562 127.122 110.454 127.01 110.384 126.875C110.313 126.74 110.285 126.586 110.302 126.435C110.325 126.231 110.429 126.045 110.589 125.917C110.75 125.79 110.954 125.73 111.158 125.753Z" fill="#455A64"/>
<path d="M111.337 124.214C111.438 124.226 111.536 124.257 111.625 124.307C111.714 124.357 111.792 124.423 111.855 124.503C111.918 124.583 111.965 124.674 111.992 124.772C112.02 124.87 112.028 124.972 112.017 125.073C112.005 125.174 111.973 125.272 111.924 125.361C111.874 125.45 111.808 125.528 111.728 125.591C111.648 125.654 111.557 125.701 111.459 125.729C111.361 125.756 111.258 125.765 111.157 125.753C110.953 125.729 110.767 125.625 110.64 125.464C110.512 125.303 110.454 125.098 110.478 124.893C110.502 124.689 110.606 124.503 110.767 124.376C110.928 124.248 111.133 124.19 111.337 124.214Z" fill="#455A64"/>
<path d="M63.4118 175.543C63.4118 175.543 52.1382 198.116 52.1329 198.116C51.2023 202.775 50.4725 206.883 50.2875 209.041C50.2847 209.053 50.2847 209.066 50.2875 209.078C50.1899 209.578 50.2098 210.094 50.3456 210.585C50.3429 210.597 50.3429 210.61 50.3456 210.622C51.546 211.838 88.5922 220.367 90.0041 220.23C91.4159 220.092 91.1145 216.111 89.9406 214.635C88.7667 213.16 76.039 203.531 76.039 203.531L87.0588 180.92L63.4118 175.543Z" fill="#D3766A"/>
<path d="M89.4456 220.251C88.0549 220.388 51.5639 211.854 50.3689 210.643C50.3671 210.631 50.3671 210.618 50.3689 210.606C50.2305 210.116 50.2087 209.599 50.3054 209.099C50.3009 209.087 50.3009 209.074 50.3054 209.062C50.4852 206.905 51.2202 202.796 52.1455 198.132L54.8423 192.728L78.2196 199.137L76.0622 203.568C76.0622 203.568 88.2241 213.176 89.4033 214.672C90.5825 216.169 90.8416 220.119 89.4456 220.251Z" fill="#EBEBEB"/>
<path d="M89.952 219.659C88.5402 219.764 51.404 210.299 50.2195 209.041C49.7648 208.57 50.8276 203.076 52.3029 196.477L52.3505 196.271L76.3782 202.114L76.2672 202.516C76.2672 202.516 88.8574 212.499 90.0154 214.022C91.1735 215.545 91.3585 219.558 89.952 219.659Z" fill="#263238"/>
<path d="M89.8923 218.109C83.6739 216.364 58.4194 209.892 52.1375 208.634C52.0846 208.634 52.074 208.66 52.1375 208.676C58.266 210.542 83.5734 216.808 89.8817 218.194C90.0033 218.241 90.0245 218.146 89.8923 218.109Z" fill="white"/>
<path d="M78.263 203.103C75.9152 202.013 72.806 201.622 70.4793 202.902C70.3894 202.949 70.4793 203.076 70.5428 203.071C73.091 202.911 75.649 203.025 78.1731 203.409C78.2101 203.412 78.2469 203.401 78.2772 203.38C78.3076 203.358 78.3298 203.327 78.3403 203.292C78.3507 203.256 78.3487 203.218 78.3347 203.184C78.3207 203.149 78.2954 203.121 78.263 203.103Z" fill="white"/>
<path d="M79.7628 204.626C77.4203 203.542 74.3111 203.15 71.9792 204.425C71.8893 204.472 71.9792 204.599 72.0479 204.599C74.5961 204.437 77.1544 204.55 79.6782 204.937C79.7168 204.941 79.7554 204.931 79.7873 204.909C79.8191 204.887 79.8422 204.855 79.8523 204.817C79.8625 204.78 79.859 204.74 79.8427 204.705C79.8263 204.67 79.798 204.642 79.7628 204.626Z" fill="white"/>
<path d="M81.2706 206.154C78.9229 205.065 75.8136 204.673 73.487 205.948C73.3971 206 73.487 206.127 73.5557 206.122C76.1022 205.962 78.6584 206.076 81.1807 206.46C81.2178 206.463 81.2545 206.452 81.2849 206.431C81.3153 206.41 81.3375 206.379 81.3479 206.343C81.3584 206.307 81.3564 206.269 81.3424 206.235C81.3283 206.2 81.303 206.172 81.2706 206.154Z" fill="white"/>
<path d="M90.8564 218.474C91.4539 218.897 90.7401 221.092 90.2166 221.15C89.6931 221.208 49.2468 210.707 48.6069 210.373C47.9671 210.04 48.8449 207.64 49.6645 207.73C50.4841 207.819 90.8564 218.474 90.8564 218.474Z" fill="#FBA0B1"/>
<path d="M57.4229 201.992C55.0751 199.962 51.913 203.61 54.2502 205.646C56.5874 207.682 59.7759 204.028 57.4229 201.992Z" fill="white"/>
<path d="M54.9102 190.925L82.0048 197.757C82.0048 197.757 107.259 152.181 106.693 140.596C105.916 124.616 87.1551 75.4817 87.1551 75.4817H64.6926C64.6926 75.4817 79.5989 128.598 79.8051 137.534C79.895 142.208 54.9102 190.925 54.9102 190.925Z" fill="#455A64"/>
<path d="M83.1647 192.257C81.7211 191.681 68.8242 187.958 59.2004 185.912C59.1898 185.916 59.1806 185.922 59.1741 185.931C59.1676 185.94 59.1641 185.951 59.1641 185.962C59.1641 185.973 59.1676 185.984 59.1741 185.993C59.1806 186.002 59.1898 186.009 59.2004 186.013C62.2303 187.07 81.351 192.109 83.1435 192.358C83.1858 192.374 83.2281 192.3 83.1647 192.257Z" fill="#263238"/>
<path d="M81.6672 126.123C79.88 118.625 77.9658 111.148 75.9564 103.718C73.9471 96.2891 71.7949 88.791 69.4313 81.4198C69.1458 80.5156 68.8443 79.622 68.5535 78.7231C68.5451 78.6943 68.5256 78.6701 68.4993 78.6557C68.4731 78.6413 68.4421 78.638 68.4134 78.6464C68.3846 78.6548 68.3604 78.6743 68.346 78.7006C68.3317 78.7269 68.3283 78.7578 68.3367 78.7865C70.4518 86.1313 72.567 93.4601 74.571 100.831C76.5751 108.203 78.484 115.595 80.2818 123.04C80.7313 124.88 81.1702 126.715 81.5985 128.56C82.0963 130.452 82.4812 132.371 82.7512 134.308C82.9736 136.159 82.8462 138.035 82.3758 139.839C81.8656 141.612 81.1984 143.336 80.3823 144.99C77.1427 152.022 73.9048 159.057 70.6686 166.093C67.4325 173.147 66.909 174.755 63.7945 181.867C63.4085 182.75 63.0225 183.633 62.6523 184.511C62.6523 184.569 62.7105 184.622 62.7422 184.558C66.2851 177.589 66.8297 175.913 70.1451 168.816C73.4606 161.72 76.7549 154.539 80.0439 147.396C81.5245 144.17 83.2642 140.881 83.4862 137.275C83.7083 133.51 82.5239 129.734 81.6672 126.123Z" fill="#263238"/>
<path d="M82.8906 184.468L83.7578 209.321C83.9006 214.08 84.1068 218.241 84.4188 220.383C84.4162 220.395 84.4162 220.408 84.4188 220.42C84.4365 220.928 84.5704 221.426 84.8101 221.874L84.8418 221.906C86.2854 222.821 124.299 222.8 125.627 222.35C126.954 221.901 125.78 218.093 124.305 216.914C122.829 215.735 108.267 209.236 108.267 209.236L107.162 184.41L82.8906 184.468Z" fill="#D3766A"/>
<path d="M83.5781 204.234C83.5781 204.234 83.7579 209.321 83.7579 209.337C83.9007 214.096 84.1069 218.258 84.4189 220.399C84.4163 220.411 84.4163 220.424 84.4189 220.436C84.4911 220.935 84.6225 221.423 84.8102 221.89L84.8419 221.922C86.2855 222.837 124.299 222.816 125.627 222.366C126.954 221.917 125.78 218.109 124.305 216.93C122.829 215.751 108.267 209.252 108.267 209.252L108.156 204.076L83.5781 204.234Z" fill="#EBEBEB"/>
<path d="M125.652 222.324C124.309 222.752 85.9935 222.16 84.5446 221.208C84.0158 220.854 83.7514 215.27 83.6562 208.517V208.306L108.382 208.411V208.834C108.382 208.834 122.95 215.619 124.425 216.83C125.9 218.041 127 221.911 125.652 222.324Z" fill="#263238"/>
<path d="M125.242 220.854C118.785 220.595 92.7166 220.161 86.3131 220.399C86.2602 220.399 86.2602 220.436 86.3131 220.436C92.706 220.833 118.78 221.06 125.242 220.965C125.374 220.933 125.379 220.854 125.242 220.854Z" fill="white"/>
<path d="M110.445 208.93C107.912 208.401 104.792 208.755 102.825 210.516C102.746 210.585 102.825 210.691 102.931 210.67C105.372 209.924 107.886 209.441 110.429 209.226C110.46 209.216 110.487 209.197 110.506 209.172C110.526 209.146 110.537 209.116 110.539 209.083C110.541 209.051 110.533 209.019 110.516 208.992C110.499 208.965 110.474 208.943 110.445 208.93Z" fill="white"/>
<path d="M112.261 210.061C109.723 209.532 106.609 209.892 104.642 211.674C104.562 211.743 104.642 211.849 104.742 211.822C107.185 211.076 109.7 210.594 112.246 210.384C112.284 210.379 112.319 210.361 112.345 210.333C112.372 210.304 112.387 210.268 112.389 210.229C112.391 210.191 112.379 210.153 112.356 210.122C112.332 210.091 112.299 210.07 112.261 210.061Z" fill="white"/>
<path d="M114.075 211.198C111.543 210.669 108.428 211.024 106.456 212.785C106.382 212.853 106.456 212.959 106.561 212.938C109.003 212.193 111.516 211.709 114.06 211.494C114.09 211.484 114.117 211.466 114.137 211.44C114.156 211.415 114.168 211.384 114.17 211.352C114.171 211.32 114.163 211.288 114.146 211.26C114.13 211.233 114.105 211.211 114.075 211.198Z" fill="white"/>
<path d="M126.26 220.96C126.942 221.234 126.757 223.535 126.26 223.709C125.763 223.884 83.958 223.053 83.2758 222.884C82.5937 222.715 82.8687 220.172 83.6989 220.05C84.529 219.928 126.26 220.96 126.26 220.96Z" fill="#FBA0B1"/>
<path d="M89.9148 212.684C87.1599 211.251 84.9285 215.534 87.6887 216.967C90.4489 218.4 92.6751 214.117 89.9148 212.684Z" fill="white"/>
<path d="M86.8747 75.4394C86.7743 75.8994 81.1745 98.0394 80.4765 98.4518C79.6833 98.9224 100.824 127.365 103.33 141.331C104.917 150.262 108.618 202.32 108.618 202.32H81.661C81.661 202.32 79.0171 158.109 78.1393 143.541C77.7956 137.888 56.5916 111.756 54.5769 94.3326C53.9424 88.8439 57.8871 75.4182 57.8871 75.4182L86.8747 75.4394Z" fill="#455A64"/>
<path d="M80.9786 181.285C80.6613 173.962 80.3705 166.622 79.8364 159.309C79.535 155.164 78.9428 151.15 78.5303 147.02C78.5303 146.804 78.3347 146.751 78.3399 146.973C78.5303 154.328 79.1384 161.604 79.5297 168.954C79.921 176.304 80.2964 178.017 80.7142 185.346C80.9468 189.492 81.1531 193.638 81.4756 197.778C81.4791 197.788 81.4858 197.798 81.4948 197.804C81.5039 197.811 81.5147 197.814 81.5258 197.814C81.537 197.814 81.5478 197.811 81.5569 197.804C81.5659 197.798 81.5726 197.788 81.5761 197.778C81.5919 190.417 81.3011 188.635 80.9786 181.285Z" fill="#263238"/>
<path d="M103.357 141.68C103.127 139.746 102.752 137.831 102.236 135.953C101.681 134.132 100.949 132.37 100.052 130.692C98.2174 127.17 96.1287 123.765 94.1141 120.343C92.0995 116.922 90.0002 113.427 87.8745 110.011C86.6795 108.093 85.4791 106.177 84.2735 104.263C83.0468 102.333 81.7512 100.44 80.4875 98.5366C80.4776 98.5205 80.4618 98.5089 80.4435 98.5045C80.4251 98.5 80.4058 98.503 80.3896 98.5128C80.3735 98.5226 80.3619 98.5385 80.3575 98.5568C80.353 98.5752 80.356 98.5945 80.3658 98.6106C82.4281 102.069 84.4692 105.532 86.5314 108.991C88.5936 112.449 90.6242 115.918 92.6547 119.386C94.6852 122.855 96.6575 126.218 98.5717 129.687C99.5142 131.334 100.326 133.053 100.999 134.827C101.625 136.665 102.08 138.557 102.358 140.479C103.077 144.958 103.664 149.469 104.563 153.905C104.566 153.916 104.573 153.925 104.582 153.931C104.591 153.938 104.602 153.941 104.613 153.941C104.624 153.941 104.635 153.938 104.644 153.931C104.653 153.925 104.66 153.916 104.663 153.905C104.383 149.823 103.897 145.735 103.357 141.68Z" fill="#263238"/>
<path d="M106.243 197.698C104.704 197.498 92.9602 197.09 83.1355 197.513C83.072 197.513 83.0773 197.609 83.1355 197.614C86.3346 197.894 104.424 198.021 106.227 197.81C106.275 197.804 106.296 197.709 106.243 197.698Z" fill="#263238"/>
<path d="M83.9924 96.9396C81.2459 97.9403 78.5919 99.1788 76.0607 100.641C76.039 100.651 76.022 100.669 76.0136 100.691C76.0052 100.714 76.006 100.738 76.0158 100.76C76.0256 100.782 76.0437 100.799 76.066 100.807C76.0883 100.816 76.113 100.815 76.1348 100.805C78.8104 99.6522 81.5442 98.5524 84.1563 97.2569C84.1984 97.2351 84.2301 97.1976 84.2445 97.1525C84.2589 97.1073 84.2547 97.0583 84.233 97.0163C84.2113 96.9742 84.1737 96.9425 84.1286 96.9281C84.0835 96.9137 84.0345 96.9179 83.9924 96.9396Z" fill="#263238"/>
<path d="M84.8014 78.6122C84.8014 78.5223 84.6322 78.5011 84.6322 78.6122C84.6328 81.6001 84.4827 84.5862 84.1828 87.5591C84.0559 88.9392 82.9454 96.5484 80.5553 96.0196C80.1535 95.9244 79.9525 95.5331 79.8891 94.925C79.8958 94.1357 80.0023 93.3504 80.2064 92.5878C80.4707 91.0015 80.6823 89.4151 80.8197 87.7812C81.1001 84.779 81.0682 81.7558 80.7246 78.7602C80.7201 78.7433 80.7101 78.7284 80.6963 78.7177C80.6824 78.707 80.6654 78.7012 80.6479 78.7012C80.6304 78.7012 80.6134 78.707 80.5995 78.7177C80.5856 78.7284 80.5757 78.7433 80.5712 78.7602C80.6405 82.9218 80.3965 87.0827 79.8415 91.2077C79.5401 93.1906 78.5407 96.1782 80.6188 96.4955C82.6969 96.8128 84.0982 91.8052 84.352 90.4357C85.0134 86.5306 85.1645 82.5562 84.8014 78.6122Z" fill="#263238"/>
<path d="M80.6183 96.1834C80.4065 96.6996 80.2298 97.2296 80.0895 97.7697C79.9374 98.1845 79.8621 98.6235 79.8675 99.0652C79.87 99.0833 79.878 99.1001 79.8904 99.1135C79.9027 99.1269 79.9189 99.1363 79.9367 99.1403C79.9544 99.1443 79.973 99.1428 79.9899 99.136C80.0069 99.1292 80.0213 99.1175 80.0314 99.1023C80.2812 98.7125 80.4685 98.2861 80.5866 97.8385C80.7717 97.3467 80.962 96.8655 81.1154 96.3685C81.1399 96.3026 81.1373 96.2296 81.108 96.1656C81.0788 96.1017 81.0253 96.052 80.9594 96.0274C80.8935 96.0029 80.8205 96.0055 80.7566 96.0348C80.6926 96.064 80.6429 96.1175 80.6183 96.1834Z" fill="#263238"/>
<path d="M81.7458 150.648C81.492 146.883 81.5078 142.912 79.9056 139.422C79.0546 137.721 78.0753 136.088 76.9762 134.536C75.8834 132.865 74.8047 131.185 73.7401 129.497C69.5098 122.744 65.4276 115.854 61.7103 108.795C59.9178 105.395 58.268 101.884 57.3691 98.1295C56.4924 94.1788 56.3259 90.1035 56.8773 86.0945C57.0042 85.0951 57.1417 84.101 57.3056 83.1069C57.3061 83.0934 57.302 83.0802 57.2938 83.0694C57.2857 83.0587 57.2741 83.0511 57.261 83.048C57.2478 83.0448 57.234 83.0464 57.2219 83.0523C57.2098 83.0582 57.2002 83.0682 57.1946 83.0804C56.3245 86.8928 56.0269 90.8135 56.3115 94.7136C56.7184 98.4424 57.7686 102.072 59.4154 105.442C61.0546 108.991 63.0058 112.407 64.9306 115.807C66.9153 119.332 68.9581 122.806 71.0591 126.229C73.1743 129.645 75.3528 132.992 77.5367 136.355C78.6506 137.941 79.5188 139.686 80.1118 141.532C80.5927 143.457 80.8691 145.428 80.9367 147.412C81.4655 155.735 83.5806 183.406 84.3315 191.686C84.4214 192.744 84.5166 193.801 84.617 194.859C84.614 194.87 84.6136 194.882 84.6158 194.893C84.6179 194.904 84.6226 194.914 84.6295 194.924C84.6365 194.933 84.6454 194.94 84.6556 194.945C84.6658 194.95 84.677 194.953 84.6884 194.953C84.6998 194.953 84.7111 194.95 84.7213 194.945C84.7315 194.94 84.7404 194.933 84.7473 194.924C84.7542 194.914 84.7589 194.904 84.7611 194.893C84.7633 194.882 84.7628 194.87 84.7598 194.859C84.4425 186.547 82.2904 158.944 81.7458 150.648Z" fill="#263238"/>
<path d="M68.807 82.7366C68.807 82.6784 68.7119 82.6995 68.7119 82.7366C68.6325 85.0473 68.7119 87.4374 67.8077 89.6107C66.9933 91.6148 65.3541 93.0213 63.5193 94.0736C62.4522 94.6723 61.3523 95.2108 60.225 95.6864C60.1456 95.7234 60.1774 95.8503 60.2673 95.8238C62.3824 95.147 64.5662 94.412 66.3376 92.9949C68.2307 91.472 69.0609 89.267 69.1508 86.8875C69.1832 85.4956 69.068 84.1042 68.807 82.7366Z" fill="#263238"/>
<path d="M80.542 45.0716C83.5666 54.357 91.7362 70.1728 94.6551 72.0817C97.2408 73.7685 109.408 71.886 114.749 70.6011C116.737 70.1199 112.263 54.9651 110.143 55.5203C107.6 56.1866 100.022 57.8945 99.4723 57.4715C98.9223 57.0485 91.2815 47.6362 85.8668 42.0946C80.9386 37.0765 79.3998 41.5605 80.542 45.0716Z" fill="#D3766A"/>
<path d="M113.58 70.7174C114.601 70.5905 123.236 70.1886 127.196 68.0365C129.312 66.8891 134.71 63.0924 134.171 61.7282C133.679 60.4855 131.945 61.1624 131.945 61.1624C131.945 61.1624 134.33 59.4333 133.632 57.7095C132.934 55.9856 130.052 57.2811 130.052 57.2811C130.052 57.2811 132.373 55.3247 131.554 53.659C130.734 51.9934 128.058 53.7753 128.058 53.7753C128.058 53.7753 130.263 52.0885 129.01 50.9992C127.498 49.6879 123.781 53.2624 121.269 54.0979C120.698 54.2883 109.445 57.1331 109.445 57.1331L113.58 70.7174Z" fill="#D3766A"/>
<path d="M127.962 53.7279C125.223 56.3453 123.568 57.0169 119.909 57.7572C119.84 57.7572 119.846 57.8841 119.909 57.8735C123.558 57.4769 125.752 56.9323 128.084 53.8548C128.211 53.7014 128.089 53.601 127.962 53.7279Z" fill="#263238"/>
<path d="M129.961 57.2177C126.878 59.6924 125.091 60.4327 121.315 61.4902C121.263 61.4902 121.284 61.6013 121.342 61.5907C125.128 60.861 127.307 60.2688 130.061 57.3922C130.188 57.2653 130.104 57.1067 129.961 57.2177Z" fill="#263238"/>
<path d="M131.759 61.2046C128.587 63.3832 126.678 64.2874 122.881 64.8426C122.863 64.8426 122.846 64.8499 122.833 64.8628C122.82 64.8757 122.812 64.8932 122.812 64.9114C122.812 64.9296 122.82 64.9471 122.833 64.96C122.846 64.9729 122.863 64.9801 122.881 64.9801C126.81 64.7898 129.227 63.6846 131.802 61.3104C131.992 61.1623 131.955 61.0724 131.759 61.2046Z" fill="#263238"/>
<path d="M106.492 57.6196C106.492 57.6196 109.638 54.0609 111.362 52.8024C113.086 51.5439 121.25 49.2173 121.853 50.9517C122.631 53.1937 118.183 55.4622 115.862 56.2871C115.862 56.2871 117.665 61.4691 114.805 63.7852C111.944 66.1012 106.492 57.6196 106.492 57.6196Z" fill="#D3766A"/>
<path d="M121.869 51.6443C121.103 54.1983 117.983 55.0866 115.788 56.0543C115.756 56.0683 115.727 56.0897 115.704 56.1168C115.682 56.1438 115.666 56.1759 115.657 56.2103C115.649 56.2446 115.649 56.2805 115.657 56.3149C115.665 56.3493 115.681 56.3814 115.704 56.4086C116.317 58.6295 116.529 61.9396 114.974 63.8115C114.932 63.8644 115.001 63.9384 115.053 63.8908C116.994 62.1141 117.047 58.841 116.222 56.4509C118.49 55.4938 121.579 54.4627 121.891 51.6549C121.896 51.6443 121.875 51.6443 121.869 51.6443Z" fill="#263238"/>
<path d="M113.573 73.3243L109.586 55.166L99.7192 56.9586C95.8274 52.5009 88.049 43.591 84.9134 40.9154C81.2119 37.7744 78.7901 40.1328 80.1544 44.8918C83.2372 55.7688 92.2528 71.7379 94.6112 73.2449C98.0324 75.4394 113.573 73.3243 113.573 73.3243Z" fill="#FBA0B1"/>
<path d="M110.121 71.7379C109.666 70.6804 108.534 65.9848 108.286 64.8162C108.037 63.6476 107.117 58.9203 106.848 57.72C106.848 57.6513 106.922 57.6142 106.938 57.6777C107.223 58.8622 108.497 63.526 108.778 64.6893C109.058 65.8526 110.11 70.5429 110.184 71.7221C110.185 71.7262 110.186 71.7306 110.185 71.7348C110.184 71.7391 110.183 71.7431 110.181 71.7468C110.176 71.7543 110.169 71.7596 110.16 71.7617C110.152 71.7638 110.143 71.7625 110.136 71.758C110.128 71.7536 110.123 71.7463 110.121 71.7379Z" fill="#263238"/>
<path opacity="0.1" d="M100.956 74.2339C98.1803 74.2339 95.7427 73.9695 94.6111 73.245C92.2369 71.7116 83.2212 55.7953 80.1173 44.8972C79.3347 42.1687 79.8053 40.2228 81.0426 39.657L100.956 74.2339Z" fill="black"/>
<path d="M56.2124 77.9299C56.2812 78.0304 89.277 82.2606 89.6312 81.9539C89.8178 81.0354 89.9502 80.1067 90.0278 79.1726C90.0278 79.1726 87.0032 43.2473 85.438 41.1375C84.0685 39.2973 79.9123 37.9648 77.0833 39.1651C71.1451 41.6821 56.9263 73.779 57.0796 75.1221C57.069 75.1062 56.1278 77.803 56.2124 77.9299Z" fill="#FBA0B1"/>
<path d="M83.5057 46.769C81.4911 46.5839 78.9106 42.2796 78.4189 39.5458C78.3872 39.3555 79.1909 37.7638 80.074 35.7862C80.6027 34.5859 81.1738 33.2322 81.5968 31.9631L88.9151 36.5688C87.9277 38.0054 87.1197 39.5575 86.5092 41.1903C86.4545 41.3627 86.4156 41.5397 86.3929 41.7191C86.3947 41.749 86.3947 41.7791 86.3929 41.809C86.2078 42.8666 85.4569 46.9487 83.5057 46.769Z" fill="#D3766A"/>
<path d="M86.3926 41.7297C86.3943 41.7597 86.3943 41.7897 86.3926 41.8196C86.1107 41.7644 85.8332 41.6884 85.5624 41.5922C80.9832 39.9424 81.7922 33.9355 82.1148 32.2751L83.9391 33.4279L88.9361 36.6006C87.949 38.0366 87.1427 39.5888 86.5354 41.2221C86.4725 41.3866 86.4247 41.5565 86.3926 41.7297Z" fill="#263238"/>
<path d="M82.3631 23.4868C80.8508 26.21 80.5864 34.956 82.2626 37.2774C84.6845 40.6404 89.5492 41.9518 92.632 38.8637C95.6196 35.8391 95.7571 24.4333 93.8112 22.2336C90.9346 18.9658 84.5946 19.4628 82.3631 23.4868Z" fill="#D3766A"/>
<path d="M89.3869 30.5566C89.3869 30.5566 89.3393 30.5566 89.3393 30.6095C89.3393 31.2123 89.2335 31.8997 88.6836 32.0795V32.1165C89.3551 32.0425 89.4821 31.1277 89.3869 30.5566Z" fill="#263238"/>
<path d="M88.8715 29.9117C87.9038 29.8059 87.761 31.7412 88.6547 31.8417C89.5483 31.9422 89.6805 30.0015 88.8715 29.9117Z" fill="#263238"/>
<path d="M92.8554 30.7629C92.8554 30.7629 92.8978 30.7947 92.8978 30.8211C92.829 31.4186 92.8555 32.1166 93.3789 32.3546C93.3789 32.3546 93.3789 32.3969 93.3789 32.3916C92.718 32.2435 92.6968 31.3182 92.8554 30.7629Z" fill="#263238"/>
<path d="M93.4435 30.1812C94.4112 30.1812 94.3318 32.1218 93.4435 32.1218C92.5551 32.1218 92.6292 30.1759 93.4435 30.1812Z" fill="#263238"/>
<path d="M89.6551 29.5203C89.3854 29.5785 89.1263 29.5837 88.8619 29.6155C88.588 29.6871 88.2982 29.6667 88.037 29.5573C87.961 29.5072 87.9037 29.4333 87.874 29.3473C87.8444 29.2612 87.8441 29.1677 87.8731 29.0814C87.9598 28.9237 88.0866 28.7917 88.2408 28.6989C88.395 28.606 88.5709 28.5555 88.7509 28.5526C89.1161 28.4824 89.4944 28.5543 89.8084 28.7536C89.8738 28.8027 89.9239 28.8693 89.953 28.9456C89.9821 29.022 89.9891 29.105 89.9731 29.1852C89.957 29.2653 89.9187 29.3393 89.8624 29.3986C89.8062 29.4579 89.7343 29.5001 89.6551 29.5203Z" fill="#263238"/>
<path d="M94.3078 28.378C94.051 28.306 93.7986 28.2195 93.5516 28.1189C93.2735 28.0665 93.0206 27.9233 92.8325 27.7118C92.7855 27.6343 92.7657 27.5433 92.7762 27.4532C92.7867 27.3632 92.827 27.2793 92.8907 27.2147C93.0351 27.1043 93.2068 27.0352 93.3875 27.0147C93.5681 26.9942 93.751 27.0231 93.9165 27.0984C94.2737 27.1961 94.5824 27.422 94.7837 27.7329C94.8255 27.8067 94.8451 27.891 94.84 27.9756C94.8349 28.0603 94.8054 28.1416 94.7551 28.2099C94.7047 28.2781 94.6357 28.3303 94.5563 28.3602C94.4769 28.39 94.3906 28.3962 94.3078 28.378Z" fill="#263238"/>
<path d="M88.9472 35.3263C89.7259 35.1399 90.5375 35.1399 91.3162 35.3263C91.3849 35.3263 91.4536 35.1888 91.4695 35.1254L91.5118 33.8563C91.6757 33.9515 92.5006 34.3851 92.5006 34.1524C92.5867 32.0898 92.4609 30.0238 92.1252 27.9869C92.1215 27.975 92.1141 27.9647 92.1041 27.9574C92.0941 27.95 92.0821 27.946 92.0697 27.946C92.0573 27.946 92.0452 27.95 92.0352 27.9574C92.0252 27.9647 92.0178 27.975 92.0141 27.9869C91.9295 29.8958 92.1728 31.7994 92.1146 33.7188C91.8228 33.5571 91.5094 33.4378 91.184 33.3646C91.1152 33.3646 91.184 34.7129 91.184 34.9139C90.4562 34.6632 89.6592 34.7068 88.9631 35.0355C88.6881 35.21 88.5771 35.4427 88.9472 35.3263Z" fill="#263238"/>
<path d="M87.384 36.5848C87.5162 36.7328 87.6484 36.9338 87.8599 36.9655C88.0822 36.9761 88.3041 36.9382 88.5103 36.8544C88.5103 36.8544 88.5473 36.8544 88.5103 36.8862C88.4192 36.9984 88.299 37.0834 88.1629 37.1319C88.0267 37.1804 87.8798 37.1905 87.7383 37.1611C87.6227 37.1242 87.5203 37.0546 87.4434 36.9608C87.3665 36.867 87.3183 36.7529 87.3047 36.6323C87.3153 36.5742 87.3629 36.5636 87.384 36.5848Z" fill="#263238"/>
<path opacity="0.2" d="M84.9191 20.7107C84.8398 22.0697 84.5172 26.284 83.8616 27.1406C83.2059 27.9973 81.8205 29.9908 81.1172 30.3133C81.2124 27.5055 81.646 24.8352 82.3704 23.4392C82.9643 22.3207 83.8437 21.3794 84.9191 20.7107Z" fill="#263238"/>
<path d="M92.4536 24.83C92.0839 25.2063 91.6239 25.4817 91.1176 25.6298C90.6112 25.7779 90.0754 25.7938 89.5611 25.676C89.0349 25.5589 88.5477 25.3081 88.1466 24.9478C87.7455 24.5875 87.4441 24.1299 87.2715 23.6191C87.2715 23.5874 87.2134 23.6191 87.2239 23.6191C87.3583 24.1705 87.6414 24.6746 88.0423 25.0764C88.4431 25.4782 88.9465 25.7624 89.4977 25.8981C90.0479 26.0031 90.6161 25.9606 91.1446 25.7749C91.6731 25.5891 92.1429 25.2668 92.5064 24.8406C92.5382 24.8458 92.4959 24.7983 92.4536 24.83Z" fill="#263238"/>
<path d="M89.7975 16.9935C88.9849 16.9385 88.1715 17.0889 87.4323 17.4308C86.693 17.7727 86.0517 18.2951 85.5673 18.95C85.1546 19.6164 84.9795 20.4028 85.0703 21.1814H85.139C85.1491 20.4982 85.3435 19.8305 85.7019 19.2487C86.0603 18.667 86.5692 18.1929 87.1748 17.8766C87.8368 17.506 88.5755 17.2935 89.3332 17.2559C90.091 17.2183 90.8471 17.3565 91.5425 17.6598C92.2265 17.9418 92.7885 18.4569 93.1289 19.1139C93.1606 19.1826 93.2981 19.1509 93.2716 19.0822C92.838 17.9294 91.4368 17.0728 89.7975 16.9935Z" fill="#263238"/>
<path d="M99.8985 21.6045C99.6685 20.7093 99.129 19.9244 98.3756 19.3889C97.3181 18.6327 96.0807 18.6433 94.8434 18.6856C94.8064 18.6856 94.8117 18.7385 94.8434 18.7332C95.8954 18.6234 96.9567 18.8198 97.8997 19.299C98.6672 19.7596 99.2519 20.4713 99.5548 21.3136C99.843 22.1776 99.8096 23.1165 99.4609 23.9578C99.1121 24.7991 98.4714 25.4862 97.6565 25.8929C97.1822 26.1158 96.6673 26.2392 96.1435 26.2556C95.6196 26.272 95.098 26.1809 94.6107 25.9881C94.5737 25.9881 94.542 26.0251 94.579 26.0462C95.2383 26.3375 95.966 26.4385 96.6798 26.338C97.3935 26.2375 98.065 25.9395 98.6183 25.4775C99.1715 25.0155 99.5846 24.408 99.8109 23.7236C100.037 23.0392 100.067 22.3052 99.8985 21.6045Z" fill="#263238"/>
<path d="M81.8347 25.2053C81.8347 25.2053 80.3753 21.8793 81.9352 20.1344C82.8182 19.1508 85.4727 19.4892 85.4727 19.4892C86.2656 18.4827 87.4259 17.8322 88.6983 17.6808C90.9667 17.3265 93.5524 18.86 93.5524 18.86C93.5524 18.86 95.7627 17.8024 97.6611 19.0874C100.305 20.8799 99.644 25.0732 96.7568 26.2153C94.7263 27.0243 92.1988 25.089 92.1988 25.089C91.945 25.089 89.2059 26.485 87.4027 23.9997C87.4027 23.9997 85.6895 25.3058 84.32 24.1954C84.0595 24.5985 83.6813 24.9117 83.2367 25.0924C82.792 25.2731 82.3025 25.3126 81.8347 25.2053Z" fill="#263238"/>
<path d="M82.6998 30.7312C82.6998 30.7312 81.3144 27.6272 79.9449 28.0873C78.5754 28.5473 79.2416 32.767 80.5953 33.5919C80.7603 33.7066 80.9466 33.787 81.1433 33.8284C81.3399 33.8698 81.5428 33.8714 81.7401 33.8329C81.9373 33.7944 82.1248 33.7168 82.2915 33.6045C82.4582 33.4923 82.6006 33.3477 82.7104 33.1794L82.6998 30.7312Z" fill="#D3766A"/>
<path d="M80.1641 29.2822V29.3192C81.1053 29.9273 81.4596 30.9796 81.6446 32.0319C81.6048 31.9185 81.5409 31.8151 81.4572 31.7288C81.3736 31.6426 81.2722 31.5755 81.16 31.5323C81.0479 31.489 80.9277 31.4707 80.8078 31.4784C80.6879 31.4861 80.5711 31.5198 80.4655 31.5771C80.4337 31.5771 80.4655 31.6353 80.4655 31.6353C80.6581 31.613 80.8528 31.6522 81.0218 31.7471C81.1908 31.8421 81.3255 31.988 81.4067 32.1641C81.5502 32.4501 81.6602 32.7517 81.7345 33.063C81.7345 33.1635 81.9355 33.1476 81.9249 33.063C82.1946 31.6987 81.5336 29.6841 80.1641 29.2822Z" fill="#263238"/>
<path d="M155.988 36.8918L99.0586 54.3296L109.323 87.8403L166.253 70.4025L155.988 36.8918Z" fill="#FBA0B1"/>
<path opacity="0.2" d="M155.988 36.8918L99.0586 54.3296L109.323 87.8403L166.253 70.4025L155.988 36.8918Z" fill="black"/>
<path opacity="0.2" d="M155.987 36.8919L136.855 42.752L147.12 76.2627L166.252 70.4026L155.987 36.8919Z" fill="black"/>
<path d="M155.07 38.5994C154.425 41.5676 153.798 44.5358 153.188 47.504L151.385 56.4298L149.64 65.3926C149.069 68.3749 148.512 71.3625 147.969 74.3554C148.614 71.3907 149.241 68.4225 149.851 65.4508L151.654 56.525L153.399 47.5833C153.97 44.5869 154.527 41.5923 155.07 38.5994Z" fill="#FBA0B1"/>
<path d="M164.469 69.2791C162.353 67.1076 160.219 64.9449 158.065 62.791L151.614 56.361L145.12 49.9787C142.949 47.8635 140.767 45.7484 138.574 43.6333C140.689 45.8083 142.824 47.9711 144.978 50.1214L151.429 56.5514L157.922 62.9337C160.097 65.07 162.279 67.1851 164.469 69.2791Z" fill="#FBA0B1"/>
<path d="M109.995 58.648L110.309 58.552L108.96 54.1483L108.646 54.2443L109.995 58.648Z" fill="#263238"/>
<path d="M109.249 58.8717L109.562 58.7756L108.214 54.3719L107.9 54.4679L109.249 58.8717Z" fill="#263238"/>
<path d="M108.499 59.1114L108.812 59.0154L107.464 54.6117L107.15 54.7077L108.499 59.1114Z" fill="#263238"/>
<path d="M107.753 59.3272L108.066 59.2312L106.718 54.8272L106.405 54.9232L107.753 59.3272Z" fill="#263238"/>
<path d="M107.003 59.5601L107.316 59.4641L105.968 55.0604L105.654 55.1564L107.003 59.5601Z" fill="#263238"/>
<path d="M106.257 59.784L106.57 59.688L105.221 55.2843L104.908 55.3803L106.257 59.784Z" fill="#263238"/>
<path d="M105.503 60.0306L105.816 59.9346L104.468 55.5309L104.154 55.6269L105.503 60.0306Z" fill="#263238"/>
<path d="M104.757 60.2528L105.07 60.1567L103.721 55.7533L103.407 55.8493L104.757 60.2528Z" fill="#263238"/>
<path d="M104.003 60.4901L104.316 60.394L102.968 55.9903L102.654 56.0863L104.003 60.4901Z" fill="#263238"/>
<path d="M112.129 53.5427L110.828 53.5744L113.647 52.7019L112.547 53.4105L113.044 55.0285C113.937 54.8752 114.54 55.6208 114.995 57.1014L112.177 57.9897C111.722 56.5144 111.801 55.5573 112.626 55.1819L112.129 53.5427Z" fill="#263238"/>
<path d="M114.965 54.6689L115.7 54.4416L115.039 52.2841L116.921 51.7078L117.582 53.8652L118.323 53.6378L117.328 56.398L114.965 54.6689Z" fill="#263238"/>
<path opacity="0.1" d="M99.0625 54.3306L99.9033 57.0802L139.255 50.5868L136.854 42.7556L99.0625 54.3306Z" fill="black"/>
<path d="M173.63 74.2021L154.494 80.0609L147.117 76.2643L166.254 70.4001L173.63 74.2021Z" fill="#FBA0B1"/>
<path opacity="0.2" d="M173.63 74.2021L154.494 80.0609L147.117 76.2643L166.254 70.4001L173.63 74.2021Z" fill="black"/>
<path d="M105.34 95.1206L124.476 89.2565L128.458 81.9805L109.322 87.8393L105.34 95.1206Z" fill="#FBA0B1"/>
<path opacity="0.1" d="M105.34 95.1206L124.476 89.2565L128.458 81.9805L109.322 87.8393L105.34 95.1206Z" fill="black"/>
<path d="M73.8462 49.1591C76.6434 58.5132 84.4218 74.5405 87.3089 76.497C89.8523 78.2472 102.062 76.6556 107.402 75.4976C109.401 75.0693 105.287 59.8087 103.172 60.311C100.613 60.9191 92.9933 62.4262 92.4539 62.0084C91.9146 61.5907 84.5222 51.9616 79.2344 46.3143C74.4331 41.1745 72.7886 45.6216 73.8462 49.1591Z" fill="#D3766A"/>
<path d="M102.07 61.5536C102.07 61.5536 106.115 56.9955 108.981 55.2559C112.007 53.5243 115.407 52.5535 118.891 52.4269C122.65 52.2788 131.846 54.5103 131.661 57.2705C131.497 59.7716 122.217 57.0114 122.217 57.0114C122.217 57.0114 132.142 58.2646 131.391 61.2416C130.64 64.2187 120.049 60.3956 120.049 60.3956C120.049 60.3956 130.217 61.9079 128.98 64.8638C128.028 67.0899 118.24 64.1711 118.24 64.1711C118.24 64.1711 126.976 65.5353 126.093 67.8725C125.12 70.4477 115.914 68.322 115.914 68.322C112.683 73.8636 108.87 75.1961 106.052 75.7936C105.349 75.9153 102.07 61.5536 102.07 61.5536Z" fill="#D3766A"/>
<path d="M118.811 56.3557C119.98 56.4615 121.169 56.5619 122.327 56.7682C123.485 56.9744 124.633 57.2282 125.77 57.5455C127.259 57.9282 128.699 58.48 130.063 59.19C127.552 58.106 123.417 57.2917 122.259 57.0749C121.101 56.8581 119.953 56.5989 118.8 56.3927C118.769 56.4033 118.779 56.3557 118.811 56.3557Z" fill="#263238"/>
<path d="M117.985 60.5279C119.47 60.7235 120.962 60.8663 122.442 61.1307C123.923 61.3951 125.292 61.7758 126.746 62.1406C126.857 62.1671 126.805 62.22 126.694 62.1935C125.224 61.8868 123.849 61.7176 122.379 61.4321C120.909 61.1465 119.449 60.7975 117.974 60.5596C117.953 60.5596 117.958 60.5226 117.985 60.5279Z" fill="#263238"/>
<path d="M116.626 63.9756C118.919 64.2245 121.18 64.7101 123.373 65.4244C123.484 65.4562 123.41 65.5143 123.294 65.4879C121.063 64.9591 119.312 64.5361 116.621 64.0549C116.579 64.0496 116.579 63.9703 116.626 63.9756Z" fill="#263238"/>
<path d="M106.19 78.205L102.637 59.9516L92.7327 61.5062C88.9466 56.9587 81.3851 47.8637 78.297 45.114C74.6749 41.8832 72.1949 44.1887 73.4376 48.9741C76.2824 59.9146 84.9121 76.0741 87.2493 77.6604C90.6017 79.9341 106.19 78.205 106.19 78.205Z" fill="#FBA0B1"/>
<path d="M102.775 76.5287C102.346 75.4447 101.342 70.7385 101.104 69.5594C100.866 68.3802 100.078 63.6423 99.8398 62.4314C99.8398 62.368 99.9139 62.3257 99.9297 62.3944C100.184 63.5841 101.352 68.2744 101.601 69.4483C101.849 70.6222 102.796 75.3283 102.838 76.5128C102.84 76.5212 102.839 76.5301 102.834 76.5375C102.83 76.545 102.823 76.5503 102.814 76.5525C102.806 76.5546 102.797 76.5532 102.789 76.5488C102.782 76.5443 102.777 76.5371 102.775 76.5287Z" fill="#263238"/>
<path d="M99.5091 78.7179C97.8857 78.8131 96.2624 78.8501 94.639 78.8395C93.0097 78.8466 91.3815 78.753 89.7637 78.5593C88.9347 78.4772 88.1243 78.263 87.363 77.9247C86.6787 77.4415 86.0845 76.8419 85.6075 76.1533C84.649 74.8301 83.7815 73.4433 83.0112 72.0024C81.4249 69.1523 80.0606 66.1858 78.7281 63.2352C77.3956 60.2846 76.1847 57.2495 75.0742 54.1931C76.4226 57.149 77.7551 60.1101 79.1405 63.0449C80.5259 65.9796 81.9272 68.9037 83.4395 71.7644C84.1943 73.1913 85.0275 74.5753 85.9353 75.9101C86.3591 76.5746 86.896 77.1598 87.5217 77.6392C88.2427 77.9717 89.012 78.1877 89.8007 78.279C93.0212 78.6692 96.2665 78.8159 99.5091 78.7179Z" fill="#263238"/>
<path d="M76.1035 56.7735C75.8863 56.5542 75.6898 56.3152 75.5165 56.0597C75.3371 55.8066 75.1996 55.5263 75.1094 55.2295C75.189 55.3608 75.2755 55.4879 75.3685 55.6102L75.6276 55.9857C75.8016 56.2387 75.9605 56.5017 76.1035 56.7735Z" fill="#263238"/>
<path d="M84.4531 51.8718C85.7909 53.2149 86.9913 54.6902 88.2339 56.1021C89.4765 57.5139 90.6663 59.0051 91.9354 60.4116L92.406 60.9404C92.4906 61.0197 92.5699 61.1096 92.6492 61.1836C92.7285 61.2577 92.7285 61.2524 92.7655 61.2841C92.7655 61.2841 92.8025 61.2841 92.8237 61.2841C93.2256 61.2841 93.7332 61.1942 94.188 61.136L97.0011 60.7183C98.8729 60.4433 100.75 60.1578 102.627 59.904L102.701 60.3693L102.59 59.9093H102.617C100.761 60.3059 98.9152 60.6601 97.0328 61.0038C96.0968 61.1731 95.1609 61.3211 94.2197 61.4639C93.7385 61.5474 93.253 61.6039 92.7655 61.6331C92.7269 61.6381 92.6878 61.6381 92.6492 61.6331C92.5974 61.6175 92.549 61.5924 92.5064 61.5591C92.4531 61.5176 92.4019 61.4735 92.3531 61.4269L92.094 61.1731C91.9248 60.9986 91.7661 60.8241 91.6075 60.6443C90.3649 59.2007 89.1593 57.7413 87.9748 56.2607L86.2034 54.0345C85.6217 53.3418 85.0929 52.5804 84.4531 51.8718Z" fill="#263238"/>
<path d="M85.1445 52.0305C85.3437 52.2752 85.5206 52.5371 85.6733 52.8131C85.8224 53.0858 85.9276 53.3802 85.9853 53.6856C85.9218 53.5428 85.8425 53.4159 85.7685 53.2784L85.5517 52.8713C85.4009 52.5986 85.265 52.3179 85.1445 52.0305Z" fill="#263238"/>
<path d="M127.39 11.8643C127.39 14.0404 126.785 16.1737 125.643 18.0261C124.501 19.8785 122.867 21.3772 120.923 22.355C118.979 23.3328 116.802 23.7512 114.634 23.5636C112.466 23.376 110.392 22.5897 108.645 21.2925L102.887 22.7625L105.282 17.4059C104.439 15.8309 103.966 14.0845 103.9 12.2993C103.833 10.5141 104.174 8.7372 104.898 7.10376C105.621 5.47031 106.707 4.02331 108.074 2.87278C109.44 1.72225 111.051 0.898493 112.784 0.464148C114.517 0.0298028 116.326 -0.00369266 118.074 0.366208C119.821 0.736109 121.462 1.49967 122.87 2.59882C124.278 3.69797 125.417 5.10377 126.201 6.70932C126.984 8.31487 127.391 10.0779 127.39 11.8643Z" fill="white"/>
<path d="M127.391 11.8591C127.39 14.0379 126.79 16.1746 125.656 18.0352C125.381 18.5043 125.077 18.9563 124.747 19.3889C124.396 19.8031 124.02 20.1952 123.621 20.5628C122.832 21.3065 121.942 21.9349 120.977 22.4294C120.009 22.9234 118.976 23.2794 117.91 23.4869C117.374 23.5935 116.832 23.6607 116.286 23.6879C115.743 23.7328 115.196 23.7328 114.652 23.6879C112.453 23.5172 110.344 22.7392 108.561 21.4406L108.72 21.4723L102.977 22.9846L102.512 23.1062L102.707 22.662L105.082 17.2949V17.517C104.218 15.9115 103.735 14.1287 103.671 12.3068C103.607 10.4848 103.963 8.67252 104.711 7.01017C105.461 5.3525 106.576 3.88628 107.974 2.72178C109.37 1.57444 111.008 0.758134 112.764 0.33412C114.521 -0.0898939 116.35 -0.11061 118.116 0.273528C119.866 0.671552 121.504 1.45563 122.912 2.56843C124.312 3.67783 125.443 5.09022 126.218 6.6994C126.994 8.30858 127.395 10.0727 127.391 11.8591ZM127.391 11.8591C127.39 9.17283 126.459 6.56969 124.757 4.49159C123.055 2.4135 120.686 0.988525 118.053 0.458601C116.32 0.113702 114.531 0.167952 112.823 0.617235C111.12 1.05707 109.541 1.882 108.207 3.02847C106.885 4.18735 105.831 5.62 105.119 7.22697C104.416 8.82942 104.087 10.5707 104.156 12.3191C104.238 14.0501 104.7 15.7418 105.51 17.2738L105.568 17.3848L105.515 17.4959L103.099 22.8471L102.829 22.5298L108.598 21.1021H108.688L108.757 21.155C110.467 22.4537 112.505 23.2502 114.642 23.4552C115.17 23.4941 115.7 23.4941 116.228 23.4552C117.844 23.3997 119.429 22.9975 120.876 22.276C121.841 21.8061 122.732 21.1968 123.52 20.4676C123.919 20.1054 124.295 19.7187 124.646 19.3096C124.983 18.8889 125.296 18.4493 125.582 17.9929C126.737 16.153 127.362 14.0309 127.391 11.8591Z" fill="#263238"/>
<path d="M116.46 13.1335V14.429C116.464 14.5584 116.441 14.6873 116.393 14.8076C116.345 14.928 116.273 15.0373 116.182 15.1288C116.09 15.2204 115.981 15.2923 115.861 15.3402C115.74 15.3881 115.611 15.4109 115.482 15.4072C115.354 15.4072 115.227 15.3819 115.108 15.3327C114.99 15.2834 114.882 15.2113 114.792 15.1204C114.702 15.0295 114.63 14.9216 114.581 14.8029C114.533 14.6843 114.508 14.5572 114.509 14.429V12.3615C114.509 12.3615 114.509 12.3615 114.509 12.3192C114.509 12.2769 114.509 12.3192 114.509 12.2821C114.516 12.0257 114.62 11.7815 114.801 11.5996C114.982 11.4177 115.225 11.3119 115.482 11.3039C115.784 11.3186 116.085 11.2719 116.369 11.1665C116.652 11.0611 116.911 10.8993 117.129 10.6909C117.348 10.4825 117.522 10.2318 117.642 9.95407C117.761 9.67631 117.822 9.37728 117.822 9.0751C117.822 8.77292 117.761 8.47388 117.642 8.19613C117.522 7.91838 117.348 7.6677 117.129 7.45929C116.911 7.25088 116.652 7.08908 116.369 6.98371C116.085 6.87834 115.784 6.83159 115.482 6.84629C115.096 6.84508 114.716 6.9456 114.381 7.13774C114.046 7.32989 113.767 7.60688 113.573 7.94087C113.508 8.05351 113.421 8.1522 113.318 8.23127C113.214 8.31034 113.097 8.36823 112.971 8.40164C112.845 8.43504 112.714 8.4433 112.585 8.42593C112.456 8.40856 112.332 8.36592 112.219 8.30044C112.109 8.23508 112.013 8.14856 111.936 8.04584C111.859 7.94312 111.803 7.82624 111.772 7.70191C111.74 7.57758 111.734 7.44826 111.753 7.32138C111.771 7.19451 111.815 7.07259 111.881 6.96263C112.229 6.36365 112.72 5.86042 113.31 5.49813C113.901 5.13585 114.572 4.92584 115.263 4.88696C115.955 4.84809 116.645 4.98157 117.272 5.27542C117.9 5.56926 118.444 6.01427 118.857 6.5705C119.27 7.12673 119.538 7.77675 119.637 8.46222C119.737 9.14768 119.664 9.84713 119.427 10.4977C119.189 11.1484 118.794 11.7298 118.276 12.1898C117.758 12.6499 117.134 12.9741 116.46 13.1335ZM116.46 17.4959V17.8555C116.463 17.9845 116.44 18.1128 116.392 18.2325C116.343 18.3522 116.271 18.4608 116.18 18.5519C116.088 18.6429 115.979 18.7143 115.859 18.7618C115.739 18.8094 115.611 18.832 115.482 18.8284C115.224 18.8284 114.976 18.7259 114.794 18.5435C114.611 18.361 114.509 18.1135 114.509 17.8555V17.4959C114.512 17.2382 114.615 16.9918 114.797 16.8091C114.978 16.6263 115.224 16.5218 115.482 16.5177C115.611 16.5162 115.739 16.5406 115.858 16.5892C115.977 16.6379 116.086 16.7099 116.177 16.801C116.268 16.8921 116.34 17.0006 116.389 17.1199C116.437 17.2392 116.462 17.367 116.46 17.4959Z" fill="#FBA0B1"/>
</svg>
