<svg width="305" height="224" viewBox="0 0 305 224" fill="none" xmlns="http://www.w3.org/2000/svg">
<path d="M67.9838 62.1051L11.2812 100.231L67.1329 184.155L123.835 146.029L67.9838 62.1051Z" fill="#F5F5F5"/>
<path d="M94.5343 142.059L93.8925 146.062L65.7031 141.978L66.3449 137.975L94.5343 142.059Z" fill="#E0E0E0"/>
<path d="M80.3314 127.78L84.3743 128.364L79.8917 156.262L75.8438 155.673L80.3314 127.78Z" fill="#E0E0E0"/>
<path d="M54.4013 92.3237C54.4417 92.3796 48.7614 96.2757 41.7115 101.01C34.6617 105.744 28.9156 109.544 28.8752 109.483C28.8348 109.422 34.5151 105.531 41.565 100.792C48.6148 96.0522 54.3356 92.2628 54.4013 92.3237Z" fill="#E0E0E0"/>
<path d="M75.2349 87.0612C75.2753 87.1222 65.825 93.5429 54.1308 101.406C42.4366 109.27 32.9054 115.594 32.8751 115.538C32.8448 115.482 42.2749 109.051 53.9842 101.188C65.6936 93.3245 75.1945 87.0003 75.2349 87.0612Z" fill="#E0E0E0"/>
<path d="M79.4068 93.3395C79.4472 93.4005 69.9968 99.8263 58.3027 107.69C46.6085 115.553 37.0773 121.877 37.0469 121.816C37.0166 121.755 46.4569 115.335 58.1561 107.466C69.8553 99.5978 79.3663 93.2786 79.4068 93.3395Z" fill="#E0E0E0"/>
<path d="M83.5951 99.6232C83.6355 99.6842 74.1852 106.11 62.491 113.968C50.7968 121.827 41.2656 128.161 41.2656 128.1C41.2656 128.039 50.6705 121.613 62.3697 113.75C74.069 105.887 83.5547 99.5623 83.5951 99.6232Z" fill="#E0E0E0"/>
<path d="M87.7454 105.907C87.7859 105.968 78.3355 112.389 66.6413 120.252C54.9472 128.115 45.4159 134.44 45.3907 134.379C45.3654 134.318 54.8107 127.897 66.52 120.034C78.2294 112.17 87.7454 105.846 87.7454 105.907Z" fill="#E0E0E0"/>
<path d="M257.594 118.339L209.973 150.359L256.878 220.839L304.499 188.82L257.594 118.339Z" fill="#F5F5F5"/>
<path d="M279.893 185.501L279.352 188.864L255.676 185.435L256.222 182.072L279.893 185.501Z" fill="#E0E0E0"/>
<path d="M267.977 173.508L271.373 174L267.608 197.428L264.207 196.935L267.977 173.508Z" fill="#E0E0E0"/>
<path d="M246.166 143.756C246.206 143.817 241.44 147.093 235.518 151.071C229.595 155.048 224.763 158.228 224.723 158.182C224.682 158.137 229.453 154.85 235.371 150.867C241.289 146.885 246.125 143.669 246.166 143.756Z" fill="#E0E0E0"/>
<path d="M263.677 139.311C263.717 139.372 255.788 144.777 245.989 151.375C236.19 157.974 228.169 163.287 228.129 163.226C228.089 163.165 236.018 157.761 245.817 151.157C255.616 144.553 263.621 139.25 263.677 139.311Z" fill="#E0E0E0"/>
<path d="M267.192 144.584C267.233 144.645 259.303 150.049 249.504 156.653C239.705 163.257 231.685 168.56 231.645 168.499C231.604 168.438 239.508 163.059 249.333 156.455C259.157 149.851 267.162 144.528 267.192 144.584Z" fill="#E0E0E0"/>
<path d="M270.692 149.851C270.733 149.912 262.798 155.317 253.004 161.921C243.21 168.524 235.185 173.828 235.145 173.767C235.104 173.706 243.033 168.306 252.833 161.697C262.632 155.089 270.657 149.801 270.692 149.851Z" fill="#E0E0E0"/>
<path d="M274.239 155.139C274.279 155.2 266.35 160.6 256.551 167.204C246.752 173.807 238.732 179.111 238.692 179.055C238.651 178.999 246.58 173.589 256.379 166.985C266.178 160.382 274.173 155.078 274.239 155.139Z" fill="#E0E0E0"/>
<path d="M182.246 65.1928L130.285 37.2585L89.3638 114.163L141.324 142.097L182.246 65.1928Z" fill="#F5F5F5"/>
<path d="M132.433 118.037L129.138 119.17L120.77 95.9201L124.07 94.7822L132.433 118.037Z" fill="#E0E0E0"/>
<path d="M137.493 101.355L138.696 104.693L115.722 112.602L114.52 109.265L137.493 101.355Z" fill="#E0E0E0"/>
<path d="M153.819 67.0521C153.779 67.1283 148.513 64.3751 142.049 60.9057C135.586 57.4362 130.386 54.556 130.426 54.4798C130.466 54.4036 135.737 57.1568 142.201 60.6263C148.665 64.0957 153.86 66.9708 153.819 67.0521Z" fill="#E0E0E0"/>
<path d="M166.285 80.8842C166.245 80.9604 157.522 76.3481 146.803 70.5877C136.084 64.8273 127.432 60.093 127.473 60.0168C127.513 59.9406 136.231 64.5479 146.95 70.3134C157.668 76.0788 166.325 80.8081 166.285 80.8842Z" fill="#E0E0E0"/>
<path d="M163.222 86.6396C163.182 86.7158 154.459 82.1085 143.741 76.343C133.022 70.5776 124.37 65.8484 124.41 65.7722C124.451 65.696 133.168 70.3084 143.887 76.0687C154.606 81.8291 163.263 86.5634 163.222 86.6396Z" fill="#E0E0E0"/>
<path d="M160.16 92.395C160.12 92.4711 151.397 87.8639 140.678 82.1035C129.959 76.3431 121.307 71.624 121.348 71.5326C121.388 71.4411 130.106 76.0637 140.825 81.8241C151.543 87.5845 160.2 92.3188 160.16 92.395Z" fill="#E0E0E0"/>
<path d="M157.097 98.1502C157.057 98.2264 148.334 93.6191 137.616 87.8587C126.897 82.0983 118.24 77.364 118.285 77.2878C118.331 77.2116 127.043 81.8189 137.762 87.5793C148.481 93.3397 157.138 98.074 157.097 98.1502Z" fill="#E0E0E0"/>
<path opacity="0.2" d="M157.37 0H156.066V22.3406H157.37V0Z" fill="black"/>
<path d="M126.285 49.3698H187.162C187.162 49.3698 181.542 22.3508 156.263 22.3508C133.78 22.3508 126.285 49.3698 126.285 49.3698Z" fill="#FBA0B1"/>
<path d="M157.37 0H156.066V22.3406H157.37V0Z" fill="#FBA0B1"/>
<path d="M292.268 223.421C292.268 223.492 226.95 223.553 146.389 223.553C65.8287 223.553 0.5 223.507 0.5 223.421C0.5 223.335 65.8085 223.289 146.389 223.289C226.97 223.289 292.268 223.345 292.268 223.421Z" fill="#263238"/>
<path d="M16.662 191.607C17.5164 191.669 18.3497 191.903 19.112 192.296C19.8743 192.688 20.5502 193.232 21.0991 193.893C22.1906 195.222 22.9635 196.787 23.3581 198.464C24.2122 201.675 23.6866 205.469 22.7769 208.664C19.3202 207.42 17.1825 203.712 16.2072 201.761C14.6911 198.683 13.7865 192.181 16.6468 191.602" fill="#FBA0B1"/>
<path d="M27.7567 212.56C27.2376 211.751 26.9408 210.818 26.8965 209.857C26.8521 208.895 27.0617 207.939 27.504 207.085C27.9602 206.239 28.5795 205.493 29.3257 204.89C30.072 204.287 30.9301 203.84 31.8502 203.574C32.6941 203.31 33.6746 203.204 34.4073 203.696C34.7377 203.947 34.9949 204.283 35.1523 204.668C35.3096 205.053 35.3613 205.474 35.3018 205.886C35.1692 206.711 34.8203 207.486 34.2911 208.131C32.6082 210.422 30.5666 212.327 27.7213 212.56" fill="#FBA0B1"/>
<path d="M28.1416 223.294C28.0666 223.078 28.0141 222.855 27.9849 222.629C27.894 222.151 27.7727 221.536 27.6261 220.8C27.1725 218.783 27.0462 216.706 27.2521 214.648C27.4904 212.581 28.2738 210.615 29.5212 208.954C29.9024 208.457 30.3419 208.009 30.8301 207.618C30.9628 207.512 31.1011 207.414 31.2445 207.323C31.2901 207.285 31.3413 207.254 31.3961 207.232C30.7569 207.781 30.1729 208.392 29.6526 209.056C28.471 210.718 27.7269 212.654 27.4897 214.684C27.1662 217.051 27.5655 219.22 27.7979 220.78C27.9192 221.557 28.0203 222.187 28.0759 222.623C28.1157 222.845 28.1377 223.069 28.1416 223.294Z" fill="#263238"/>
<path d="M17.7656 196.498C17.8233 196.578 17.8709 196.665 17.9071 196.757C17.9981 196.961 18.1194 197.215 18.2609 197.535C18.5692 198.21 18.9987 199.191 19.5192 200.405C20.5603 202.838 21.9551 206.221 23.4106 209.99C24.866 213.759 26.1042 217.198 26.9481 219.702C27.3828 220.952 27.7213 221.968 27.9589 222.674C28.065 223.009 28.1459 223.279 28.2116 223.487C28.2476 223.58 28.273 223.677 28.2874 223.776C28.2361 223.69 28.1954 223.598 28.1661 223.502C28.0903 223.299 27.9942 223.035 27.8679 222.705L26.8016 219.758C25.897 217.274 24.6336 213.84 23.1832 210.076C21.7328 206.312 20.3582 202.919 19.3575 200.471C18.8522 199.267 18.463 198.286 18.175 197.57C18.0436 197.245 17.9374 196.986 17.8566 196.778C17.8186 196.687 17.7882 196.594 17.7656 196.498Z" fill="#263238"/>
<path d="M24.0279 216.192C22.988 214.452 21.551 212.986 19.8357 211.914C18.1203 210.843 16.1759 210.197 14.1631 210.031C13.1524 209.96 11.9092 210.132 11.4544 211.047C10.9996 211.961 11.606 213.078 12.3034 213.82C13.7852 215.378 15.6927 216.46 17.7854 216.931C19.8782 217.401 22.0626 217.237 24.0633 216.462" fill="#FBA0B1"/>
<path d="M15.7188 212.784C15.933 212.773 16.1478 212.782 16.3606 212.809C16.6097 212.823 16.8578 212.852 17.1035 212.896C17.3915 212.952 17.7301 212.982 18.0839 213.084C18.4793 213.168 18.8692 213.276 19.2513 213.409C19.694 213.552 20.1277 213.721 20.5501 213.917C21.5216 214.354 22.4405 214.901 23.2892 215.547C24.128 216.209 24.8877 216.966 25.5532 217.803C25.8406 218.167 26.1055 218.549 26.3466 218.946C26.5645 219.288 26.7636 219.643 26.943 220.007C27.0948 220.304 27.2298 220.609 27.3473 220.922C27.4486 221.153 27.5347 221.39 27.605 221.633C27.6798 221.835 27.7357 222.045 27.7718 222.258C27.7162 222.258 27.4736 221.384 26.7913 220.084C26.6056 219.734 26.4015 219.395 26.1799 219.068C25.9336 218.683 25.667 218.311 25.3814 217.955C24.0596 216.313 22.3739 215.005 20.4591 214.135C20.0194 213.942 19.6 213.759 19.1906 213.627C18.8148 213.49 18.4319 213.373 18.0435 213.277C16.6284 212.886 15.7137 212.84 15.7188 212.784Z" fill="#263238"/>
<path d="M107.98 119.14L90.0903 211.489L87.7656 223.578L207.032 222.999C212.389 222.974 217.139 218.194 218.853 211.093L240.007 123.909C241.316 118.52 238.446 112.912 234.383 112.917L113.64 113.044C111.012 113.039 108.657 115.538 107.98 119.14Z" fill="#FBA0B1"/>
<g opacity="0.5">
<path d="M107.965 119.14L90.0747 211.489L87.75 223.578L207.016 222.999C212.373 222.974 217.124 218.194 218.837 211.093L239.992 123.909C241.301 118.52 238.43 112.912 234.367 112.917L113.625 113.044C110.997 113.039 108.642 115.538 107.965 119.14Z" fill="black"/>
</g>
<path d="M195.602 205.22L182.968 102.91C182.462 98.7191 179.132 95.59 175.205 95.6053L147.511 95.6916C146.482 95.7033 145.466 95.9255 144.525 96.3447C143.584 96.7639 142.738 97.3713 142.038 98.1299L128.899 112.185L51.8808 112.602C47.1758 112.627 43.5574 117.108 44.179 122.137L55.9086 216.695C56.4139 220.881 59.7443 224.005 63.6609 224L197.911 223.731C212.86 224.041 214.29 219.606 214.29 219.606C197.128 223.421 195.602 205.246 195.602 205.22Z" fill="#FBA0B1"/>
<g opacity="0.5">
<path d="M137.711 184.759L133.183 189.646L98.3125 158.111L102.841 153.225L137.711 184.759Z" fill="white"/>
<path d="M131.289 152.143L136.293 156.669L104.743 190.728L99.7344 186.202L131.289 152.143Z" fill="white"/>
</g>
</svg>
