<svg width="88" height="88" viewBox="0 0 88 88" fill="none" xmlns="http://www.w3.org/2000/svg">
<g clip-path="url(#clip0)">
<rect width="88" height="88" rx="18" fill="url(#paint0_linear)"/>
<g filter="url(#filter0_d)">
<path d="M72 70.292C72 72.4862 69.7215 73.9381 67.7327 73.0111L56.7423 67.8888C55.7857 67.443 54.6652 67.5326 53.7916 68.1248L45.3871 73.8224C44.344 74.5295 42.9701 74.5093 41.9482 73.7719L34.2274 68.2001C33.346 67.5641 32.1896 67.4545 31.2045 67.9136L20.2673 73.0111C18.2785 73.938 16 72.4862 16 70.2919L16 19C16 17.8954 16.8954 17 18 17L70 17C71.1046 17 72 17.8954 72 19L72 70.292Z" fill="white"/>
</g>
<ellipse cx="44" cy="42" rx="18" ry="18" fill="#CCF29F"/>
<path d="M47.8297 37.3182H42.4176C42.1305 37.3182 41.8552 37.4283 41.6522 37.6244C41.4492 37.8204 41.3352 38.0864 41.3352 38.3636C41.3352 38.6409 41.4492 38.9068 41.6522 39.1029C41.8552 39.2989 42.1305 39.4091 42.4176 39.4091H44.5824C45.9246 39.4078 47.2194 39.8882 48.2154 40.7571C49.2114 41.6259 49.8377 42.8213 49.9726 44.111C50.1075 45.4008 49.7414 46.6929 48.9453 47.7366C48.1493 48.7803 46.9802 49.5011 45.6648 49.7591V50.9091C45.6648 51.4636 45.4368 51.9955 45.0308 52.3876C44.6248 52.7797 44.0742 53 43.5 53C42.9258 53 42.3752 52.7797 41.9692 52.3876C41.5632 51.9955 41.3352 51.4636 41.3352 50.9091V49.8636H39.1703C38.5961 49.8636 38.0455 49.6433 37.6395 49.2512C37.2335 48.8591 37.0055 48.3273 37.0055 47.7727C37.0055 47.2182 37.2335 46.6864 37.6395 46.2942C38.0455 45.9021 38.5961 45.6818 39.1703 45.6818H44.5824C44.8695 45.6818 45.1448 45.5717 45.3478 45.3756C45.5508 45.1796 45.6648 44.9136 45.6648 44.6364C45.6648 44.3591 45.5508 44.0932 45.3478 43.8971C45.1448 43.7011 44.8695 43.5909 44.5824 43.5909H42.4176C41.0754 43.5922 39.7806 43.1118 38.7846 42.2429C37.7885 41.3741 37.1623 40.1787 37.0274 38.889C36.8925 37.5992 37.2586 36.3071 38.0547 35.2634C38.8507 34.2197 40.0198 33.4989 41.3352 33.2409V32.0909C41.3352 31.5364 41.5632 31.0045 41.9692 30.6124C42.3752 30.2203 42.9258 30 43.5 30C44.0742 30 44.6248 30.2203 45.0308 30.6124C45.4368 31.0045 45.6648 31.5364 45.6648 32.0909V33.1364H47.8297C48.4039 33.1364 48.9545 33.3567 49.3605 33.7488C49.7665 34.1409 49.9945 34.6727 49.9945 35.2273C49.9945 35.7818 49.7665 36.3136 49.3605 36.7058C48.9545 37.0979 48.4039 37.3182 47.8297 37.3182Z" fill="#5DCF23"/>
</g>
<defs>
<filter id="filter0_d" x="3.99998" y="8.99998" width="80" height="81.3392" filterUnits="userSpaceOnUse" color-interpolation-filters="sRGB">
<feFlood flood-opacity="0" result="BackgroundImageFix"/>
<feColorMatrix in="SourceAlpha" type="matrix" values="0 0 0 0 0 0 0 0 0 0 0 0 0 0 0 0 0 0 127 0"/>
<feOffset dy="4"/>
<feGaussianBlur stdDeviation="6"/>
<feColorMatrix type="matrix" values="0 0 0 0 0 0 0 0 0 0 0 0 0 0 0 0 0 0 0.05 0"/>
<feBlend mode="normal" in2="BackgroundImageFix" result="effect1_dropShadow"/>
<feBlend mode="normal" in="SourceGraphic" in2="effect1_dropShadow" result="shape"/>
</filter>
<linearGradient id="paint0_linear" x1="44" y1="0" x2="44" y2="88" gradientUnits="userSpaceOnUse">
<stop stop-color="#83CF23"/>
<stop offset="1" stop-color="#5ACF23"/>
</linearGradient>
<clipPath id="clip0">
<rect width="88" height="88" fill="white"/>
</clipPath>
</defs>
</svg>
