<svg width="304" height="224" viewBox="0 0 304 224" fill="none" xmlns="http://www.w3.org/2000/svg">
<path d="M304 196.848H0V196.998H304V196.848Z" fill="#EBEBEB"/>
<path d="M273.539 206.522H253.402V206.672H273.539V206.522Z" fill="#EBEBEB"/>
<path d="M245.748 206.522H202.695V206.672H245.748V206.522Z" fill="#EBEBEB"/>
<path d="M178.953 200.942H167.285V201.092H178.953V200.942Z" fill="#EBEBEB"/>
<path d="M52.7429 201.952H31.8945V202.103H52.7429V201.952Z" fill="#EBEBEB"/>
<path d="M96.065 201.952H58.1562V202.103H96.065V201.952Z" fill="#EBEBEB"/>
<path d="M136.888 204.49H114.508V204.64H136.888V204.49Z" fill="#EBEBEB"/>
<path d="M144.099 170.032H26.7C25.7803 170.031 24.8988 169.668 24.2491 169.025C23.5993 168.381 23.2344 167.509 23.2344 166.599V3.40305C23.2424 2.49879 23.6108 1.63417 24.2597 0.996996C24.9086 0.35982 25.7855 0.00154904 26.7 0H144.099C145.019 0 145.902 0.361702 146.554 1.00554C147.205 1.64937 147.57 2.52259 147.57 3.43311V166.599C147.57 167.51 147.205 168.383 146.554 169.027C145.902 169.671 145.019 170.032 144.099 170.032ZM26.7 0.12025C25.8206 0.121842 24.9778 0.468409 24.3565 1.08388C23.7353 1.69935 23.3864 2.53344 23.3864 3.40305V166.599C23.3864 167.469 23.7353 168.303 24.3565 168.918C24.9778 169.534 25.8206 169.88 26.7 169.882H144.099C144.979 169.88 145.822 169.534 146.444 168.919C147.066 168.303 147.417 167.469 147.418 166.599V3.40305C147.417 2.53288 147.066 1.69881 146.444 1.08351C145.822 0.468214 144.979 0.121839 144.099 0.12025H26.7Z" fill="#EBEBEB"/>
<path d="M275.611 170.032H158.206C157.286 170.031 156.404 169.668 155.753 169.025C155.102 168.381 154.736 167.509 154.734 166.599V3.40305C154.744 2.49824 155.114 1.63363 155.764 0.99662C156.413 0.35961 157.291 0.00153215 158.206 0H275.611C276.524 0.00312918 277.4 0.3621 278.047 0.999106C278.695 1.63611 279.062 2.49983 279.07 3.40305V166.599C279.07 167.508 278.706 168.379 278.058 169.022C277.409 169.666 276.53 170.029 275.611 170.032ZM158.206 0.12025C157.326 0.121839 156.483 0.468214 155.86 1.08351C155.238 1.69881 154.888 2.53288 154.886 3.40305V166.599C154.888 167.469 155.238 168.303 155.86 168.919C156.483 169.534 157.326 169.88 158.206 169.882H275.611C276.491 169.88 277.334 169.534 277.956 168.919C278.579 168.303 278.929 167.469 278.931 166.599V3.40305C278.929 2.53288 278.579 1.69881 277.956 1.08351C277.334 0.468214 276.491 0.121839 275.611 0.12025H158.206Z" fill="#EBEBEB"/>
<path d="M86.357 94.8345L220.391 94.8345V8.74214L86.357 8.74214V94.8345Z" fill="#E6E6E6"/>
<path d="M83.6116 94.8345L218.703 94.8345V8.74214L83.6116 8.74214V94.8345Z" fill="#F0F0F0"/>
<path d="M215.906 90.1568V13.4138L86.3962 13.4138V90.1568L215.906 90.1568Z" fill="#FAFAFA"/>
<path d="M200.012 90.1568L183.633 13.4138H162.164L178.544 90.1568H200.012Z" fill="white"/>
<path d="M175.069 90.1568L158.69 13.4138H148.992L165.372 90.1568H175.069Z" fill="white"/>
<path d="M136.594 90.1568L120.214 13.4138H103.652L120.032 90.1568H136.594Z" fill="white"/>
<path d="M86.7578 90.1568V13.4138H86.4052V90.1568H86.7578Z" fill="#E6E6E6"/>
<path d="M147.13 94.8345H155.18V8.74214H147.13V94.8345Z" fill="#F0F0F0"/>
<path d="M155.531 90.1568V13.4138H155.179V90.1568H155.531Z" fill="#E6E6E6"/>
<path d="M151.017 94.8345H151.297V8.74214H151.017V94.8345Z" fill="#E6E6E6"/>
<path d="M246.803 192.855H271.227V129.845H246.803V192.855Z" fill="#F0F0F0"/>
<path d="M146.09 196.848L266.535 196.848V192.855L146.09 192.855V196.848Z" fill="#F0F0F0"/>
<path d="M246.799 129.845H141.402V192.855H246.799V129.845Z" fill="#F5F5F5"/>
<path d="M237.204 137.601H151.008V158.266H237.204V137.601Z" fill="#F0F0F0"/>
<path d="M237.204 164.435H151.008V185.099H237.204V164.435Z" fill="#F0F0F0"/>
<path d="M183.208 149.349H204.993C205.638 149.349 206.16 148.833 206.16 148.195V147.672C206.16 147.034 205.638 146.518 204.993 146.518H183.208C182.563 146.518 182.041 147.034 182.041 147.672V148.195C182.041 148.833 182.563 149.349 183.208 149.349Z" fill="#F5F5F5"/>
<path d="M183.208 176.183H204.993C205.638 176.183 206.16 175.666 206.16 175.028V174.505C206.16 173.868 205.638 173.351 204.993 173.351H183.208C182.563 173.351 182.041 173.868 182.041 174.505V175.028C182.041 175.666 182.563 176.183 183.208 176.183Z" fill="#F5F5F5"/>
<path d="M188.706 119.233C188.706 119.233 188.414 129.845 177.154 129.845C165.893 129.845 165.602 119.233 165.602 119.233H188.706Z" fill="#F0F0F0"/>
<path d="M215.038 119.233C215.038 119.233 214.74 129.845 203.486 129.845C192.232 129.845 191.934 119.233 191.934 119.233H215.038Z" fill="#F0F0F0"/>
<path d="M188.706 112.204C188.706 112.204 188.414 122.816 177.154 122.816C165.893 122.816 165.602 112.204 165.602 112.204H188.706Z" fill="#F0F0F0"/>
<path d="M215.038 112.204C215.038 112.204 214.74 122.816 203.486 122.816C192.232 122.816 191.934 112.204 191.934 112.204H215.038Z" fill="#F0F0F0"/>
<path d="M241.377 119.233C241.377 119.233 241.067 129.869 229.825 129.869C218.584 129.869 218.273 119.257 218.273 119.257L241.377 119.233Z" fill="#F0F0F0"/>
<path d="M241.377 112.204C241.377 112.204 241.08 122.816 229.825 122.816C218.571 122.816 218.273 112.204 218.273 112.204H241.377Z" fill="#F0F0F0"/>
<path d="M234.28 71.8789H249.613V43.2897H234.28V71.8789Z" fill="#E6E6E6"/>
<path d="M230.843 71.8789H248.852V43.2897H230.843V71.8789Z" fill="#F5F5F5"/>
<path d="M246.113 69.3356V45.8269H233.588V69.3356H246.113Z" fill="white"/>
<path d="M257.502 90.3552H272.836V61.766H257.502V90.3552Z" fill="#E6E6E6"/>
<path d="M254.069 90.3552H272.078V61.766H254.069V90.3552Z" fill="#F5F5F5"/>
<path d="M269.332 87.8119V64.3032H256.807V87.8119H269.332Z" fill="white"/>
<path d="M44.2335 69.8948H66.1641V29.0101H44.2335V69.8948Z" fill="#E6E6E6"/>
<path d="M39.325 69.8948H65.0859V29.0101H39.325V69.8948Z" fill="#F5F5F5"/>
<path d="M61.1562 66.2632V32.6416H43.2385V66.2632H61.1562Z" fill="white"/>
<path d="M35.6924 141.671C32.7922 133.254 23.9458 130.115 21.3801 124.8C18.0178 117.838 19.246 107.394 23.2041 103.625C26.6636 100.348 34.3183 122.498 35.1817 124.975C38.1548 133.482 38.5743 139.802 38.6108 145.916C39.1215 140.715 39.5958 135.942 39.9545 132.256C41.1218 120.231 41.2982 116.371 41.3103 115.181C40.9516 114.579 40.526 113.924 40.2767 113.563C38.1609 110.491 33.1023 106.835 30.877 102.374C27.6303 95.8565 29.1746 88.0584 32.318 85.1543C35.6012 82.1481 39.9545 89.2969 41.8879 96.4036C43.8214 103.51 41.8879 110.322 41.9487 116.245C41.9487 117.405 41.6386 121.8 41.0914 127.903C42.6844 121.337 44.855 116.942 48.3874 112.872C52.765 107.833 56.7414 101.689 59.7753 102.482C62.8092 103.276 60.1887 111.399 57.0636 117.105C54.2729 122.179 42.8303 127.248 40.7631 131.33C39.997 139.603 38.9391 150.077 37.9542 159.835C39.389 154.797 38.8479 154.37 43.2438 146.656C45.8582 142.068 55.0633 136.435 55.7199 139.567C56.3766 142.7 54.1391 148.676 50.4303 152.843C47.439 156.21 41.663 156.204 40.0943 158.296C39.7295 158.783 38.4831 160.647 37.7657 161.723C36.5497 173.634 35.3823 184.149 34.902 187.733L34.3366 187.769C34.4703 186.843 35.1026 180.782 35.9174 172.738C35.0054 168.469 25.8489 165.98 23.4473 161.543C20.9302 156.901 19.3615 151.478 21.0882 147.852C22.5292 144.846 30.6582 148.94 33.5705 153.955C35.51 157.292 36.5254 160.857 36.6105 165.643C37.1577 160.178 37.7474 154.31 38.2946 148.772C37.8022 147.377 36.5618 144.191 35.6924 141.671Z" fill="#E6E6E6"/>
<path d="M44.2862 196.848H26.1435C25.1464 196.848 24.3195 195.699 24.0945 194.106L22.7812 183.68H47.6241L46.3291 194.106C46.1345 195.699 45.2772 196.848 44.2862 196.848Z" fill="#E6E6E6"/>
<path d="M48.1405 184.456H22.2641C22.0016 184.483 21.7378 184.42 21.5166 184.277C21.2953 184.135 21.13 183.922 21.0481 183.674L20.5191 180.259C20.4401 179.736 21.0055 179.279 21.7351 179.279H48.6695C49.3991 179.279 49.9645 179.736 49.8855 180.259L49.3565 183.674C49.2766 183.924 49.1117 184.138 48.89 184.28C48.6682 184.423 48.4034 184.485 48.1405 184.456Z" fill="#F0F0F0"/>
<path d="M151.998 224C217.105 224 269.884 220.953 269.884 217.194C269.884 213.435 217.105 210.388 151.998 210.388C86.8923 210.388 34.1133 213.435 34.1133 217.194C34.1133 220.953 86.8923 224 151.998 224Z" fill="#F5F5F5"/>
<path d="M209.813 31.4211C203.247 35.239 208.543 39.1892 207.533 43.0191C206.524 46.8491 206.628 48.0155 208.318 50.2341C210.008 52.4527 204.858 53.3966 208.64 55.3927C212.422 57.3889 227.227 55.6032 224.369 42.7666C221.511 29.93 213.443 29.3167 209.813 31.4211Z" fill="#263238"/>
<path d="M208.343 55.3928H208.288C207.224 55.044 206.616 54.6172 206.428 54.082C206.184 53.3846 206.671 52.6631 207.188 51.8995C207.796 50.9616 208.404 50.0958 207.753 49.23C207.577 49.0075 207.413 48.8031 207.255 48.6287C205.893 46.9393 205.327 46.2238 206.72 42.8628C207.236 41.6122 206.89 40.4578 206.519 39.2914C205.856 37.151 205.108 34.7219 209.717 31.3069C209.753 31.2897 209.793 31.2853 209.832 31.2945C209.87 31.3037 209.904 31.3258 209.928 31.3571C209.952 31.3885 209.964 31.427 209.962 31.4661C209.96 31.5052 209.944 31.5425 209.918 31.5714C205.497 34.8482 206.178 37.0548 206.841 39.1952C207.212 40.3977 207.595 41.6002 207.036 42.9891C205.71 46.1877 206.166 46.7529 207.516 48.4003L208.015 49.0015C208.829 50.0417 208.106 51.1119 207.467 52.0619C206.999 52.7533 206.561 53.4086 206.75 53.9498C206.902 54.3827 207.437 54.7434 208.392 55.05C208.427 55.0639 208.458 55.0894 208.477 55.1224C208.496 55.1553 208.504 55.1938 208.498 55.2316C208.492 55.2693 208.474 55.304 208.446 55.33C208.418 55.356 208.381 55.3718 208.343 55.3747V55.3928Z" fill="#263238"/>
<path d="M212.892 69.7445C212.247 72.7147 211.505 75.6788 210.751 78.6309C209.998 81.583 209.201 84.5291 208.392 87.4632L208.088 88.5635L207.936 89.1166L207.791 89.6157C207.729 89.8198 207.655 90.0205 207.572 90.2169C207.221 91.0763 206.688 91.8513 206.009 92.4896C205.373 93.0724 204.63 93.5295 203.82 93.8364C202.637 94.2658 201.376 94.45 200.118 94.3775C199.143 94.3225 198.176 94.1776 197.23 93.9446C195.555 93.5297 193.925 92.9517 192.366 92.2191C190.858 91.5285 189.407 90.7244 188.024 89.8141C187.593 89.5359 187.275 89.1162 187.125 88.6289C186.976 88.1415 187.005 87.6177 187.208 87.1495C187.41 86.6813 187.773 86.2988 188.233 86.0691C188.693 85.8395 189.219 85.7775 189.721 85.8939L189.842 85.924C192.606 86.6283 195.425 87.1009 198.269 87.3369C198.848 87.3674 199.428 87.3432 200.002 87.2648C200.482 87.2107 200.847 87.0543 200.829 86.9882C200.811 86.9221 200.707 86.9882 200.561 87.0784C200.434 87.1779 200.327 87.3003 200.245 87.4391C200.245 87.4391 200.245 87.4873 200.209 87.4933V87.4211L200.306 86.8559L200.507 85.7136C201.036 82.7073 201.631 79.7011 202.264 76.6949C202.896 73.6887 203.583 70.6824 204.386 67.7303C204.68 66.6396 205.393 65.7057 206.374 65.1276C207.354 64.5495 208.524 64.373 209.634 64.6357C210.744 64.8984 211.707 65.5795 212.316 66.5339C212.926 67.4882 213.135 68.6403 212.898 69.7445H212.892Z" fill="#7F3E3B"/>
<path d="M207.081 61.0624C203.324 62.8661 202.047 72.4379 202.047 72.4379L213.41 78.8773C213.41 78.8773 217.946 70.4117 216.396 64.8803C215.514 61.7478 213.568 57.9239 207.081 61.0624Z" fill="#FBA0B1"/>
<path d="M190.562 86.0623L187.419 84.2585L186.969 89.6698C186.969 89.6698 189.644 91.4735 191.462 89.4052L191.717 88.1366C191.732 87.7199 191.632 87.307 191.429 86.9418C191.226 86.5766 190.926 86.2727 190.562 86.0623Z" fill="#7F3E3B"/>
<path d="M183.543 85.5631L183.148 87.5051C183.088 87.7338 183.117 87.9767 183.229 88.1852C183.342 88.3936 183.53 88.5523 183.756 88.6295L186.966 89.6937L187.416 84.2825L185.051 84.3306C184.699 84.3488 184.363 84.4785 184.091 84.7005C183.82 84.9224 183.628 85.2249 183.543 85.5631Z" fill="#7F3E3B"/>
<path d="M228.671 211.362L222.889 211.488L221.812 198.459L227.595 198.327L228.671 211.362Z" fill="#7F3E3B"/>
<path d="M222.529 210.784H228.931C229.042 210.781 229.15 210.818 229.235 210.889C229.319 210.96 229.373 211.06 229.387 211.169L230.117 216.178C230.131 216.304 230.118 216.433 230.079 216.554C230.04 216.676 229.975 216.788 229.889 216.883C229.803 216.977 229.697 217.053 229.579 217.105C229.461 217.156 229.334 217.183 229.205 217.182C226.967 217.146 225.897 217.013 223.076 217.013C221.343 217.013 216.388 217.194 213.956 217.194C211.524 217.194 211.439 214.855 212.43 214.638C216.899 213.688 220.054 212.378 221.55 211.127C221.825 210.902 222.172 210.781 222.529 210.784Z" fill="#263238"/>
<g opacity="0.2">
<path d="M221.812 198.459L222.366 205.175L228.154 205.049L227.601 198.333L221.812 198.459Z" fill="black"/>
</g>
<path d="M236.136 60.2027C236.02 58.9686 235.446 57.8207 234.524 56.9811C233.602 56.1416 232.397 55.6699 231.144 55.6573C224.097 55.5611 214.692 57.7677 209.043 60.1486C208.056 60.564 207.204 61.2418 206.583 62.1068C205.962 62.9718 205.595 63.9901 205.523 65.0488C205.448 66.2381 205.448 67.4309 205.523 68.6202C205.183 70.0211 202.586 80.4407 207.639 82.2985C207.756 82.3411 207.876 82.3773 207.998 82.4067C209.128 86.7958 210.721 92.0627 212.947 98.3938C222 96.8306 237.449 93.4336 241.851 92.67C242.228 85.9781 237.674 76.8633 236.136 60.2027Z" fill="#FBA0B1"/>
<path d="M224.72 44.9189C224.398 48.3701 224.562 54.5389 228.186 56.2043C228.186 56.2043 225.043 62.4753 216.184 66.7682C210.949 63.762 213.813 58.6875 213.813 58.6875C218.817 56.9198 218.203 54.2202 216.853 51.8152L224.72 44.9189Z" fill="#7F3E3B"/>
<path d="M213.903 58.6213C213.926 58.5701 213.935 58.5135 213.929 58.4576C213.923 58.4017 213.902 58.3484 213.867 58.3035C213.833 58.2585 213.787 58.2236 213.735 58.2022C213.682 58.1809 213.624 58.1741 213.568 58.1824C209.184 58.8618 206.023 60.8339 205.263 66.1008C204.825 69.107 203.931 73.1895 203.737 77.4583C203.682 78.6608 204.582 80.6028 205.561 81.0658C206.12 85.6954 207.117 90.2228 208.643 93.4935C209.613 93.8754 210.651 94.0619 211.695 94.0423C212.739 94.0227 213.769 93.7973 214.723 93.3793C214.723 93.3793 209.306 67.9406 213.903 58.6213Z" fill="#263238"/>
<path d="M227.077 55.4768C221.866 57.3888 221.562 60.0523 222.116 67.3815C222.724 75.7027 225.435 86.6213 226.864 91.2569C237.522 89.0443 242.216 84.9318 242.216 84.9318C242.216 84.9318 238.605 62.8661 237.352 59.1504C236.1 55.4347 231.005 54.0338 227.077 55.4768Z" fill="#263238"/>
<path opacity="0.2" d="M221.509 47.7329L216.852 51.8094C217.173 52.3597 217.43 52.9448 217.618 53.553C219.618 53.8716 222.026 51.7071 222.117 50.198C222.098 49.3424 221.891 48.5011 221.509 47.7329Z" fill="black"/>
<path d="M224.759 38.3173C225.172 43.8969 225.464 46.2538 223.026 49.4704C219.378 54.3104 212.331 53.5829 210.258 48.2379C208.379 43.4279 208.027 35.1067 213.201 32.1786C214.339 31.529 215.626 31.1775 216.94 31.1576C218.254 31.1377 219.551 31.45 220.709 32.0649C221.866 32.6797 222.846 33.5768 223.555 34.671C224.264 35.7652 224.678 37.0203 224.759 38.3173Z" fill="#7F3E3B"/>
<path d="M212.969 98.3938C212.969 98.3938 209.533 131.745 211.065 148.898C212.658 166.719 220.368 203.834 220.368 203.834H229.761C229.761 203.834 230.193 162.132 227.494 143.439C230.923 124.307 234.066 94.7803 232.315 95.0749L212.969 98.3938Z" fill="#263238"/>
<path d="M230.433 204.087H219.708L219.039 201.231L230.852 200.882L230.433 204.087Z" fill="#FBA0B1"/>
<path opacity="0.2" d="M227.595 107.966C229.115 105.2 230.841 105.068 232.234 106.463C231.468 116.082 229.856 129.37 228.063 140.132C225.339 130.663 222.408 117.381 227.595 107.966Z" fill="black"/>
<path d="M272.65 192.32L267.172 194.942L259.414 184.149L264.892 181.528L272.65 192.32Z" fill="#7F3E3B"/>
<path d="M266.226 194.304L270.725 189.801C270.805 189.725 270.906 189.677 271.015 189.661C271.125 189.646 271.236 189.666 271.333 189.717L275.918 192.26C276.027 192.32 276.121 192.404 276.191 192.505C276.262 192.607 276.307 192.724 276.324 192.846C276.34 192.968 276.327 193.093 276.287 193.209C276.246 193.326 276.178 193.431 276.088 193.517C274.483 195.062 273.625 195.741 271.643 197.726C270.427 198.928 266.816 202.8 264.694 203.882C262.572 204.965 261.095 203.089 261.855 202.463C265.272 199.643 265.77 197.01 265.813 195.188C265.827 194.851 265.976 194.534 266.226 194.304Z" fill="#263238"/>
<g opacity="0.2">
<path d="M259.422 184.149L263.416 189.711L268.895 187.096L264.9 181.528L259.422 184.149Z" fill="black"/>
</g>
<path d="M221.922 96.8427C221.922 96.8427 226.336 131.216 234.082 146.824C242.144 163.058 261.302 188.442 261.302 188.442L268.531 185.785C268.531 185.785 258.523 156.925 248.194 139.555C247.19 120.917 246.978 100.769 242.022 93.3855L221.922 96.8427Z" fill="#263238"/>
<path d="M269.252 185.4L261.542 189.513L259.086 187.192L268.394 181.847L269.252 185.4Z" fill="#FBA0B1"/>
<path d="M265.521 196.415C265.195 196.792 264.756 197.057 264.268 197.172C264.143 197.188 264.015 197.176 263.894 197.138C263.773 197.099 263.662 197.035 263.569 196.95C263.513 196.906 263.471 196.846 263.449 196.779C263.426 196.712 263.424 196.64 263.442 196.571C263.624 195.85 266.153 194.948 266.439 194.852C266.466 194.841 266.496 194.838 266.525 194.843C266.554 194.849 266.581 194.862 266.603 194.882C266.621 194.901 266.631 194.927 266.631 194.954C266.631 194.98 266.621 195.006 266.603 195.026C266.288 195.522 265.926 195.987 265.521 196.415ZM263.861 196.415C263.799 196.471 263.751 196.541 263.721 196.619C263.715 196.648 263.717 196.677 263.727 196.705C263.737 196.732 263.754 196.757 263.776 196.776C263.836 196.833 263.908 196.876 263.987 196.902C264.066 196.928 264.149 196.936 264.232 196.926C264.724 196.872 265.448 196.24 266.147 195.224C265.331 195.5 264.563 195.902 263.873 196.415H263.861Z" fill="#FBA0B1"/>
<path d="M266.602 195.05H266.554C265.83 195.338 263.897 195.543 263.453 195.08C263.35 194.972 263.271 194.779 263.502 194.479C263.682 194.267 263.935 194.13 264.213 194.094C265.198 193.956 266.523 194.785 266.578 194.821C266.597 194.834 266.613 194.851 266.623 194.871C266.634 194.891 266.639 194.913 266.639 194.936C266.638 194.976 266.626 195.016 266.602 195.05ZM263.793 194.605L263.739 194.665C263.587 194.857 263.654 194.924 263.678 194.948C263.939 195.23 265.362 195.17 266.183 194.948C265.607 194.59 264.942 194.398 264.262 194.395C264.086 194.412 263.922 194.486 263.793 194.605Z" fill="#FBA0B1"/>
<path d="M215.505 41.137C215.565 41.588 215.377 41.9848 215.079 42.0269C214.781 42.069 214.471 41.7323 214.428 41.2813C214.386 40.8304 214.556 40.4336 214.854 40.3975C215.152 40.3614 215.444 40.6861 215.505 41.137Z" fill="#263238"/>
<path d="M210.37 41.8226C210.431 42.2735 210.236 42.6703 209.939 42.7124C209.641 42.7545 209.331 42.4178 209.294 41.9669C209.258 41.516 209.422 41.1191 209.72 41.0831C210.018 41.047 210.297 41.3717 210.37 41.8226Z" fill="#263238"/>
<path d="M209.84 41.089L208.703 40.9207C208.703 40.9207 209.378 41.6902 209.84 41.089Z" fill="#263238"/>
<path d="M212.583 42.2615C212.324 43.3422 211.915 44.3822 211.367 45.3519C211.622 45.4854 211.902 45.5626 212.19 45.5781C212.478 45.5937 212.765 45.5473 213.033 45.4421L212.583 42.2615Z" fill="#630F0F"/>
<path d="M215.746 46.8971C215.529 46.9606 215.307 47.0068 215.083 47.0354C215.065 47.0389 215.047 47.0386 215.03 47.0345C215.012 47.0305 214.995 47.0229 214.981 47.0121C214.967 47.0013 214.955 46.9876 214.946 46.9719C214.938 46.9563 214.932 46.939 214.931 46.9212C214.929 46.9038 214.929 46.8861 214.934 46.869C214.938 46.852 214.946 46.836 214.957 46.8221C214.968 46.8081 214.981 46.7963 214.997 46.7875C215.012 46.7787 215.029 46.7731 215.047 46.7709C215.617 46.7091 216.164 46.5131 216.642 46.1992C217.12 45.8854 217.516 45.4629 217.795 44.9671C217.814 44.941 217.841 44.9222 217.873 44.914C217.904 44.9058 217.938 44.9087 217.967 44.9222C217.997 44.9358 218.021 44.9591 218.035 44.9881C218.049 45.0172 218.052 45.0501 218.044 45.0814C217.802 45.5195 217.474 45.9056 217.079 46.2173C216.685 46.529 216.231 46.7601 215.746 46.8971Z" fill="#263238"/>
<path d="M226.952 42.8686C226.78 43.4501 226.489 43.9903 226.097 44.4558C225.704 44.9212 225.22 45.3019 224.672 45.5743C223.231 46.2597 222.204 44.9189 222.35 43.3196C222.483 41.8766 223.396 39.7782 224.964 39.7722C226.533 39.7662 227.39 41.3896 226.952 42.8686Z" fill="#7F3E3B"/>
<path d="M208.644 32.3109C209.465 34.7158 215.332 33.9523 215.94 36.4174C216.548 38.8825 216.341 41.8286 219.509 41.9188C222.677 42.009 223.704 46.5183 223.261 48.7369C222.817 50.9555 223.747 55.2784 229.413 53.8595C235.08 52.4406 237.317 47.3119 233.603 42.4358C231.517 39.7002 232.387 39.4296 232.533 36.4234C232.63 33.9763 232.532 30.6154 228.927 29.6534C225.583 28.7695 224.598 30.0682 221.333 27.7294C216.141 24.0498 206.541 26.1902 208.644 32.3109Z" fill="#263238"/>
<path d="M217.191 39.4778C217.135 39.4895 217.077 39.4836 217.025 39.461C216.972 39.4383 216.929 39.4001 216.899 39.3515C216.291 38.2813 214.68 38.1129 214.668 38.1129C214.596 38.1068 214.53 38.0731 214.484 38.0191C214.437 37.9651 214.414 37.8952 214.419 37.8244C214.422 37.789 214.432 37.7546 214.449 37.7232C214.465 37.6918 214.488 37.6641 214.516 37.6416C214.544 37.6192 214.576 37.6025 214.61 37.5926C214.645 37.5827 214.681 37.5797 214.717 37.5839C214.796 37.5839 216.614 37.7763 217.367 39.087C217.386 39.1168 217.398 39.1499 217.403 39.1845C217.408 39.219 217.406 39.2542 217.397 39.2879C217.388 39.3216 217.372 39.3531 217.35 39.3806C217.328 39.408 217.301 39.4309 217.27 39.4477C217.246 39.4629 217.219 39.4731 217.191 39.4778Z" fill="#263238"/>
<path d="M208.709 39.8084C208.668 39.8305 208.622 39.8421 208.575 39.8421C208.529 39.8421 208.483 39.8305 208.442 39.8084C208.411 39.7895 208.385 39.7647 208.364 39.7356C208.344 39.7064 208.329 39.6734 208.322 39.6386C208.315 39.6038 208.315 39.5679 208.321 39.533C208.328 39.4982 208.342 39.465 208.363 39.4356C208.586 39.074 208.895 38.771 209.262 38.5523C209.629 38.3336 210.045 38.2055 210.472 38.179C210.508 38.1782 210.543 38.1845 210.576 38.1975C210.609 38.2105 210.638 38.2299 210.663 38.2547C210.688 38.2794 210.708 38.3089 210.721 38.3414C210.734 38.3738 210.741 38.4086 210.74 38.4436C210.74 38.5137 210.712 38.581 210.662 38.6306C210.611 38.6803 210.543 38.7081 210.472 38.7081C210.134 38.7366 209.808 38.8435 209.52 39.02C209.231 39.1965 208.989 39.4378 208.813 39.7242C208.788 39.762 208.752 39.7914 208.709 39.8084Z" fill="#263238"/>
<path d="M237.764 59.5231C238.645 59.95 239.381 60.3288 240.159 60.7617C240.937 61.1946 241.673 61.6275 242.421 62.0784C243.904 62.9983 245.37 63.9543 246.786 65.0065C249.761 67.1274 252.439 69.6283 254.751 72.4439L254.988 72.7265C255.146 72.9369 255.304 73.1534 255.42 73.3277C255.64 73.6788 255.827 74.0491 255.979 74.434C256.218 75.0166 256.399 75.6207 256.52 76.2378C256.707 77.23 256.815 78.2351 256.843 79.244C256.883 81.0211 256.802 82.7988 256.599 84.565C256.217 87.9427 255.561 91.2844 254.636 94.5577C254.496 95.0582 254.18 95.4926 253.744 95.7816C253.308 96.0707 252.782 96.1953 252.261 96.1326C251.74 96.07 251.259 95.8242 250.906 95.4402C250.553 95.0562 250.351 94.5595 250.337 94.0406V93.9805C250.24 90.7759 250.191 87.5171 249.984 84.3967C249.904 82.8925 249.746 81.3934 249.51 79.9053C249.414 79.279 249.266 78.6616 249.066 78.0595C249.009 77.8773 248.931 77.7019 248.835 77.5365C248.787 77.4944 248.805 77.5064 248.835 77.5365C248.856 77.5786 248.88 77.6189 248.908 77.6567L248.732 77.4823C247.715 76.4633 246.634 75.5075 245.497 74.6204C244.324 73.7005 243.065 72.8167 241.807 71.9689C240.548 71.1212 239.211 70.2914 237.867 69.4978C237.204 69.095 236.523 68.7102 235.854 68.2953L233.885 67.195L233.733 67.1108C232.878 66.5007 232.275 65.6062 232.034 64.5917C231.793 63.5772 231.93 62.5107 232.42 61.5881C232.91 60.6655 233.721 59.9487 234.702 59.5694C235.684 59.1901 236.771 59.1737 237.764 59.5231Z" fill="#7F3E3B"/>
<path d="M231.847 55.7114C236.802 55.3387 243.545 61.76 243.545 61.76L238.997 71.4761C238.997 71.4761 231.701 70.0752 228.874 66.5098C225.871 62.6979 228.175 55.988 231.847 55.7114Z" fill="#FBA0B1"/>
<path d="M220.362 211.771C219.873 211.812 219.385 211.689 218.976 211.422C218.885 211.341 218.816 211.24 218.774 211.127C218.732 211.014 218.717 210.892 218.732 210.773C218.738 210.699 218.762 210.628 218.802 210.566C218.842 210.504 218.898 210.453 218.963 210.418C219.663 210.039 221.937 211.187 222.192 211.32C222.217 211.333 222.237 211.353 222.25 211.378C222.263 211.402 222.268 211.43 222.265 211.458C222.259 211.484 222.245 211.508 222.226 211.528C222.207 211.547 222.182 211.56 222.155 211.566C221.565 211.69 220.965 211.758 220.362 211.771ZM219.346 210.604C219.259 210.598 219.171 210.614 219.091 210.652C219.065 210.666 219.043 210.687 219.028 210.713C219.013 210.738 219.006 210.767 219.006 210.797C218.993 210.875 219 210.955 219.026 211.029C219.053 211.104 219.098 211.171 219.158 211.223C219.505 211.53 220.441 211.584 221.706 211.38C220.969 210.991 220.172 210.728 219.346 210.604Z" fill="#FBA0B1"/>
<path d="M222.13 211.572H222.069C221.394 211.265 220.051 210.051 220.154 209.414C220.154 209.263 220.288 209.071 220.659 209.035C220.793 209.019 220.928 209.032 221.057 209.071C221.186 209.11 221.305 209.176 221.407 209.263C222.124 209.865 222.258 211.374 222.264 211.44C222.265 211.458 222.262 211.476 222.256 211.493C222.249 211.51 222.24 211.526 222.227 211.539C222.215 211.553 222.2 211.564 222.183 211.571C222.166 211.579 222.148 211.583 222.13 211.584V211.572ZM220.768 209.281H220.701C220.452 209.281 220.44 209.408 220.434 209.438C220.367 209.822 221.279 210.778 221.972 211.193C221.918 210.552 221.666 209.943 221.248 209.45C221.114 209.338 220.944 209.278 220.768 209.281Z" fill="#FBA0B1"/>
<path d="M214.989 40.4037L213.852 40.2354C213.852 40.2354 214.533 41.0049 214.989 40.4037Z" fill="#263238"/>
<path d="M241.923 92.0204L242.866 93.9384C242.969 94.0827 242.811 94.2751 242.549 94.3232L213.037 99.4218C212.83 99.4578 212.642 99.3857 212.605 99.2655L212.046 97.2813C212.003 97.1431 212.162 96.9927 212.386 96.9567L241.522 91.9182C241.592 91.8995 241.666 91.899 241.736 91.9169C241.806 91.9348 241.871 91.9705 241.923 92.0204Z" fill="white"/>
<path d="M235.903 95.7002L236.511 95.5919C236.632 95.5919 236.717 95.4897 236.693 95.4176L235.903 92.8443C235.875 92.801 235.834 92.768 235.786 92.7506C235.737 92.7331 235.684 92.7322 235.635 92.7481L235.027 92.8563C234.899 92.8563 234.82 92.9525 234.839 93.0306L235.592 95.604C235.635 95.6761 235.757 95.7242 235.903 95.7002Z" fill="#263238"/>
<path d="M214.812 99.3436L215.42 99.2354C215.542 99.2354 215.627 99.1332 215.603 99.061L214.849 96.4877C214.849 96.4095 214.709 96.3675 214.588 96.3855L213.98 96.4937C213.858 96.4937 213.773 96.5959 213.797 96.6681L214.551 99.2414C214.569 99.3196 214.691 99.3617 214.812 99.3436Z" fill="#263238"/>
<path d="M221.14 98.2795L225.901 97.4558C226.034 97.4558 226.126 97.3416 226.101 97.2634L225.28 94.4616C225.28 94.3774 225.128 94.3293 224.995 94.3534L220.228 95.1771C220.094 95.1771 220.003 95.2853 220.027 95.3695L220.848 98.1713C220.872 98.2494 221.006 98.2975 221.14 98.2795Z" fill="#E0E0E0"/>
<path d="M250.318 92.9405L249.211 97.4017L254.61 97.3236C254.61 97.3236 256.221 94.137 254.336 92.718L250.318 92.9405Z" fill="#7F3E3B"/>
<path d="M251.54 100.919L252.5 100.877C253.01 100.854 253.493 100.647 253.859 100.296C254.225 99.945 254.449 99.4738 254.488 98.971L254.61 97.2996L249.211 97.3777L249.369 99.0552C249.42 99.5819 249.674 100.069 250.078 100.416C250.482 100.763 251.005 100.943 251.54 100.919Z" fill="#7F3E3B"/>
<path d="M113.55 84.98L122.281 95.2973C123.064 96.2226 124.059 96.9505 125.183 97.4209C126.306 97.8914 127.527 98.0909 128.744 98.0029L167.528 95.1831C170.422 94.9728 173.281 95.9073 175.478 97.7811C177.675 99.6549 179.03 102.315 179.245 105.176L184.516 176.021C184.724 178.879 183.776 181.702 181.882 183.87C179.988 186.039 177.301 187.376 174.411 187.589L66.8801 195.405C63.9857 195.615 61.1254 194.68 58.9282 192.805C56.7311 190.93 55.377 188.268 55.1639 185.406L48.3604 94.173C48.2114 92.163 48.8759 90.1769 50.2076 88.6513C51.5394 87.1258 53.4294 86.1858 55.4619 86.0382L107.093 82.2743C108.309 82.1859 109.529 82.3852 110.652 82.8557C111.775 83.3262 112.768 84.0544 113.55 84.98Z" fill="#FBA0B1"/>
<g opacity="0.2">
<path d="M113.55 84.98L122.281 95.2973C123.064 96.2226 124.059 96.9505 125.183 97.4209C126.306 97.8914 127.527 98.0909 128.744 98.0029L167.528 95.1831C170.422 94.9728 173.281 95.9073 175.478 97.7811C177.675 99.6549 179.03 102.315 179.245 105.176L184.516 176.021C184.724 178.879 183.776 181.702 181.882 183.87C179.988 186.039 177.301 187.376 174.411 187.589L66.8801 195.405C63.9857 195.615 61.1254 194.68 58.9282 192.805C56.7311 190.93 55.377 188.268 55.1639 185.406L48.3604 94.173C48.2114 92.163 48.8759 90.1769 50.2076 88.6513C51.5394 87.1258 53.4294 86.1858 55.4619 86.0382L107.093 82.2743C108.309 82.1859 109.529 82.3852 110.652 82.8557C111.775 83.3262 112.768 84.0544 113.55 84.98Z" fill="black"/>
</g>
<path d="M94.0563 88.4504L57.2442 91.1301C56.4104 91.1908 55.7841 91.9085 55.8455 92.7331L55.8482 92.769C55.9096 93.5936 56.6353 94.2129 57.4692 94.1522L94.2812 91.4725C95.1151 91.4118 95.7413 90.6941 95.68 89.8696L95.6773 89.8336C95.6159 89.009 94.8902 88.3897 94.0563 88.4504Z" fill="white"/>
<path d="M88.7713 95.5606L57.4045 97.7319C56.5684 97.7898 55.9381 98.5069 55.9966 99.3338L55.9992 99.3698C56.0577 100.197 56.7829 100.82 57.6191 100.762L88.9858 98.5909C89.8219 98.533 90.4522 97.8158 90.3937 96.989L90.3912 96.9529C90.3326 96.1261 89.6074 95.5027 88.7713 95.5606Z" fill="white"/>
<path d="M177.943 183.566L64.9704 191.797C63.6062 191.893 62.259 191.451 61.2234 190.568C60.1877 189.685 59.5479 188.432 59.4436 187.084L54.3182 118.199C54.2194 116.849 54.6657 115.516 55.5592 114.492C56.4528 113.467 57.7207 112.835 59.0849 112.734L172.063 104.508C173.428 104.411 174.776 104.852 175.812 105.736C176.848 106.619 177.488 107.873 177.59 109.222L182.722 178.101C182.817 179.451 182.368 180.785 181.473 181.809C180.577 182.833 179.308 183.465 177.943 183.566Z" fill="#E0E0E0"/>
<path d="M172.053 104.512L60.6949 112.618C57.8517 112.825 55.7165 115.272 55.9258 118.084L61.053 186.962C61.2623 189.774 63.7368 191.885 66.5799 191.678L177.938 183.572C180.781 183.365 182.916 180.918 182.707 178.107L177.58 109.228C177.37 106.417 174.896 104.305 172.053 104.512Z" fill="white"/>
<path d="M200.074 187.294L199.855 186.729C201.261 186.202 202.559 185.428 203.686 184.444L204.087 184.895C202.907 185.928 201.547 186.74 200.074 187.294Z" fill="#FBA0B1"/>
<path d="M207.19 180.927L206.648 180.656C207.671 178.649 208.121 176.404 207.95 174.163L207.281 165.144L207.889 165.102L208.558 174.12C208.734 176.47 208.261 178.822 207.19 180.927Z" fill="#FBA0B1"/>
<path d="M196.194 186.007L77.9263 194.617L66.8789 195.405C69.8104 195.191 72.536 193.834 74.4561 191.634C76.3762 189.433 77.3336 186.567 77.1176 183.669L73.5669 135.737C73.4932 134.789 73.6098 133.835 73.9102 132.931C74.2106 132.028 74.6887 131.192 75.3171 130.471C75.9454 129.751 76.7116 129.161 77.5716 128.734C78.4316 128.308 79.3683 128.054 80.3279 127.987L195.021 119.648C195.981 119.574 196.946 119.689 197.86 119.986C198.775 120.282 199.621 120.755 200.35 121.376C201.079 121.998 201.676 122.756 202.108 123.607C202.539 124.457 202.796 125.384 202.864 126.334L206.433 174.295C206.644 177.19 205.684 180.05 203.764 182.246C201.845 184.442 199.122 185.795 196.194 186.007Z" fill="#FBA0B1"/>
</svg>
