<svg width="24" height="24" viewBox="0 0 24 24" fill="none" xmlns="http://www.w3.org/2000/svg">
<path d="M10.5391 2.40002H3.02612C2.68034 2.40002 2.40002 2.68034 2.40002 3.02612V10.5392C2.40002 10.8849 2.68034 11.1653 3.02612 11.1653H10.5392C10.8849 11.1653 11.1653 10.8849 11.1653 10.5392V3.02612C11.1652 2.68034 10.8849 2.40002 10.5391 2.40002ZM9.91306 9.91306H3.65218V3.65218H9.91306V9.91306Z" fill="#232B34"/>
<path d="M8.03475 4.90442H5.5304C5.18465 4.90442 4.9043 5.18473 4.9043 5.53052V8.03488C4.9043 8.38062 5.18461 8.66097 5.5304 8.66097H8.03475C8.3805 8.66097 8.66085 8.38066 8.66085 8.03488V5.53048C8.66085 5.18473 8.3805 4.90442 8.03475 4.90442ZM7.40865 7.40874H6.15649V6.15658H7.40865V7.40874Z" fill="#232B34"/>
<path d="M20.9739 2.40002H13.4609C13.1152 2.40002 12.8348 2.68034 12.8348 3.02612V10.5392C12.8348 10.8849 13.1152 11.1653 13.4609 11.1653H20.974C21.3197 11.1653 21.6001 10.8849 21.6001 10.5392V3.02612C21.6 2.68034 21.3197 2.40002 20.9739 2.40002ZM20.3479 9.91306H14.087V3.65218H20.3479V9.91306Z" fill="#232B34"/>
<path d="M18.4696 4.90442H15.9652C15.6195 4.90442 15.3391 5.18473 15.3391 5.53052V8.03488C15.3391 8.38062 15.6194 8.66097 15.9652 8.66097H18.4696C18.8153 8.66097 19.0957 8.38066 19.0957 8.03488V5.53048C19.0956 5.18473 18.8153 4.90442 18.4696 4.90442ZM17.8435 7.40874H16.5913V6.15658H17.8435V7.40874Z" fill="#232B34"/>
<path d="M10.5391 12.8348H3.02612C2.68034 12.8348 2.40002 13.1152 2.40002 13.4609V20.974C2.40002 21.3197 2.68034 21.6 3.02612 21.6H10.5392C10.8849 21.6 11.1653 21.3197 11.1653 20.9739V13.4609C11.1652 13.1152 10.8849 12.8348 10.5391 12.8348ZM9.91306 20.3479H3.65218V14.087H9.91306V20.3479Z" fill="#232B34"/>
<path d="M8.03475 15.3391H5.5304C5.18465 15.3391 4.9043 15.6194 4.9043 15.9652V18.4696C4.9043 18.8153 5.18461 19.0957 5.5304 19.0957H8.03475C8.3805 19.0957 8.66085 18.8154 8.66085 18.4696V15.9652C8.66085 15.6195 8.3805 15.3391 8.03475 15.3391ZM7.40865 17.8435H6.15649V16.5913H7.40865V17.8435Z" fill="#232B34"/>
<path d="M14.087 12.8348H12.8348V14.087H14.087V12.8348Z" fill="#232B34"/>
<path d="M14.087 15.3391H12.8348V16.5913H14.087V15.3391Z" fill="#232B34"/>
<path d="M14.087 17.8435H12.8348V19.0957H14.087V17.8435Z" fill="#232B34"/>
<path d="M15.3391 14.0869H14.0869V15.3391H15.3391V14.0869Z" fill="#232B34"/>
<path d="M15.3391 16.5913H14.0869V17.8435H15.3391V16.5913Z" fill="#232B34"/>
<path d="M15.3391 19.0956H14.0869V20.3477H15.3391V19.0956Z" fill="#232B34"/>
<path d="M16.5913 12.8348H15.3391V14.087H16.5913V12.8348Z" fill="#232B34"/>
<path d="M16.5913 15.3391H15.3391V16.5913H16.5913V15.3391Z" fill="#232B34"/>
<path d="M16.5913 17.8435H15.3391V19.0957H16.5913V17.8435Z" fill="#232B34"/>
<path d="M17.8435 14.0869H16.5913V15.3391H17.8435V14.0869Z" fill="#232B34"/>
<path d="M17.8435 16.5913H16.5913V17.8435H17.8435V16.5913Z" fill="#232B34"/>
<path d="M17.8435 19.0956H16.5913V20.3477H17.8435V19.0956Z" fill="#232B34"/>
<path d="M19.0957 12.8348H17.8435V14.087H19.0957V12.8348Z" fill="#232B34"/>
<path d="M19.0957 15.3391H17.8435V16.5913H19.0957V15.3391Z" fill="#232B34"/>
<path d="M19.0957 17.8435H17.8435V19.0957H19.0957V17.8435Z" fill="#232B34"/>
<path d="M20.3477 14.0869H19.0956V15.3391H20.3477V14.0869Z" fill="#232B34"/>
<path d="M20.3477 16.5913H19.0956V17.8435H20.3477V16.5913Z" fill="#232B34"/>
<path d="M20.3477 19.0956H19.0956V20.3477H20.3477V19.0956Z" fill="#232B34"/>
<path d="M14.087 20.3478H12.8348V21.5999H14.087V20.3478Z" fill="#232B34"/>
<path d="M16.5913 20.3478H15.3391V21.5999H16.5913V20.3478Z" fill="#232B34"/>
<path d="M19.0957 20.3478H17.8435V21.5999H19.0957V20.3478Z" fill="#232B34"/>
<path d="M21.5999 12.8348H20.3478V14.087H21.5999V12.8348Z" fill="#232B34"/>
<path d="M21.5999 15.3391H20.3478V16.5913H21.5999V15.3391Z" fill="#232B34"/>
<path d="M21.5999 17.8435H20.3478V19.0957H21.5999V17.8435Z" fill="#232B34"/>
<path d="M21.5999 20.3478H20.3478V21.5999H21.5999V20.3478Z" fill="#232B34"/>
</svg>
