<svg width="10" height="10" viewBox="0 0 10 10" fill="none" xmlns="http://www.w3.org/2000/svg">
<rect width="10" height="10" rx="5" fill="#30B565"/>
<path d="M7.23667 3.40329C7.20568 3.37204 7.16882 3.34725 7.1282 3.33032C7.08758 3.3134 7.04401 3.30469 7 3.30469C6.956 3.30469 6.91243 3.3134 6.87181 3.33032C6.83119 3.34725 6.79432 3.37204 6.76334 3.40329L4.28 5.88995L3.23667 4.84329C3.2045 4.81221 3.16652 4.78777 3.1249 4.77137C3.08328 4.75497 3.03884 4.74692 2.99411 4.7477C2.94938 4.74847 2.90525 4.75805 2.86422 4.77588C2.8232 4.79371 2.78608 4.81945 2.755 4.85162C2.72392 4.88379 2.69949 4.92177 2.68308 4.96339C2.66668 5.00501 2.65864 5.04945 2.65941 5.09418C2.66019 5.13891 2.66976 5.18304 2.68759 5.22407C2.70543 5.2651 2.73116 5.30221 2.76334 5.33329L4.04334 6.61329C4.07432 6.64453 4.11119 6.66933 4.15181 6.68625C4.19243 6.70317 4.236 6.71189 4.28 6.71189C4.32401 6.71189 4.36758 6.70317 4.4082 6.68625C4.44882 6.66933 4.48568 6.64453 4.51667 6.61329L7.23667 3.89329C7.2705 3.86207 7.29751 3.82419 7.31598 3.78202C7.33445 3.73986 7.34398 3.69432 7.34398 3.64829C7.34398 3.60225 7.33445 3.55672 7.31598 3.51455C7.29751 3.47238 7.2705 3.4345 7.23667 3.40329V3.40329Z" fill="white"/>
</svg>
