<svg width="32" height="32" viewBox="0 0 32 32" fill="none" xmlns="http://www.w3.org/2000/svg">
<g clip-path="url(#clip0_221_4423)">
<path d="M17.5 31.5H2.5C1.96957 31.5 1.46086 31.2893 1.08579 30.9142C0.710714 30.5391 0.5 30.0304 0.5 29.5V2.5C0.5 1.96957 0.710714 1.46086 1.08579 1.08579C1.46086 0.710714 1.96957 0.5 2.5 0.5H16.085C16.3502 0.500057 16.6045 0.605451 16.792 0.793L23.207 7.208C23.3946 7.39549 23.4999 7.64981 23.5 7.915V31.5H17.5Z" fill="#D7DEE3"/>
<path d="M23.357 7.50011H17.5C17.2348 7.50011 16.9804 7.39476 16.7929 7.20722C16.6054 7.01968 16.5 6.76533 16.5 6.50011V0.641113L23.357 7.50011Z" fill="#748494"/>
<path d="M8.5 4.5H13.5" stroke="#405261" stroke-linecap="round" stroke-linejoin="round"/>
<path d="M8.5 6.5H13.5" stroke="#405261" stroke-linecap="round" stroke-linejoin="round"/>
<path d="M8.5 11.5H14.5" stroke="#405261" stroke-linecap="round" stroke-linejoin="round"/>
<path d="M8.5 13.5H14.5" stroke="#405261" stroke-linecap="round" stroke-linejoin="round"/>
<path d="M8.5 18.5H14.5" stroke="#405261" stroke-linecap="round" stroke-linejoin="round"/>
<path d="M8.5 20.5H14.5" stroke="#405261" stroke-linecap="round" stroke-linejoin="round"/>
<path d="M8.5 25.5H14.5" stroke="#405261" stroke-linecap="round" stroke-linejoin="round"/>
<path d="M8.5 27.5H14.5" stroke="#405261" stroke-linecap="round" stroke-linejoin="round"/>
<path d="M26.5 29.5H17.5V28C17.5001 27.3455 17.6607 26.7009 17.9679 26.1229C18.2751 25.545 18.7195 25.0512 19.262 24.685L20.131 24.098C20.3976 23.9181 20.6169 23.6765 20.7702 23.3937C20.9236 23.111 21.0064 22.7954 21.0118 22.4738C21.0172 22.1522 20.945 21.8341 20.8012 21.5463C20.6575 21.2586 20.4464 21.0098 20.186 20.821L19.152 20.071C18.6406 19.7002 18.2243 19.2136 17.9372 18.6509C17.65 18.0883 17.5002 17.4657 17.5 16.834V15.5H26.5V16.877C26.5 17.5146 26.3477 18.1429 26.0556 18.7096C25.7636 19.2764 25.3403 19.7651 24.821 20.135L23.787 20.872C23.5273 21.057 23.3157 21.3013 23.1696 21.5847C23.0235 21.868 22.9473 22.1822 22.9473 22.501C22.9473 22.8198 23.0235 23.134 23.1696 23.4173C23.3157 23.7007 23.5273 23.945 23.787 24.13L24.822 24.867C25.3409 25.237 25.764 25.7255 26.0558 26.2921C26.3477 26.8586 26.5 27.4867 26.5 28.124V29.5Z" fill="#FFCA65"/>
<path d="M18.5 13.5H25.5C25.7652 13.5 26.0196 13.6054 26.2071 13.7929C26.3946 13.9804 26.5 14.2348 26.5 14.5V15.5H17.5V14.5C17.5 14.2348 17.6054 13.9804 17.7929 13.7929C17.9804 13.6054 18.2348 13.5 18.5 13.5ZM17.5 29.5H26.5V30.5C26.5 30.7652 26.3946 31.0196 26.2071 31.2071C26.0196 31.3946 25.7652 31.5 25.5 31.5H18.5C18.2348 31.5 17.9804 31.3946 17.7929 31.2071C17.6054 31.0196 17.5 30.7652 17.5 30.5V29.5Z" fill="#748494"/>
<path d="M3.5 21.5H5.5" stroke="#405261" stroke-linecap="round" stroke-linejoin="round"/>
<path d="M3.5 26.5H5.5" stroke="#405261" stroke-linecap="round" stroke-linejoin="round"/>
<path d="M5.5 25.5V28.5" stroke="#405261" stroke-linecap="round" stroke-linejoin="round"/>
<path d="M3.5 24.5V26.5" stroke="#405261" stroke-linecap="round" stroke-linejoin="round"/>
<path d="M3.5 14.5H5.5" stroke="#405261" stroke-linecap="round" stroke-linejoin="round"/>
<path d="M3.5 10.5H5.5" stroke="#405261" stroke-linecap="round" stroke-linejoin="round"/>
<path d="M3.5 12.5H5.5" stroke="#405261" stroke-linecap="round" stroke-linejoin="round"/>
<path d="M5.5 10.5V12.5" stroke="#405261" stroke-linecap="round" stroke-linejoin="round"/>
<path d="M3.5 12.5V14.5" stroke="#405261" stroke-linecap="round" stroke-linejoin="round"/>
<path d="M3.5 17.5H5.5" stroke="#405261" stroke-linecap="round" stroke-linejoin="round"/>
<path d="M3.5 19.5H5.5" stroke="#405261" stroke-linecap="round" stroke-linejoin="round"/>
<path d="M5.5 17.5V21.5" stroke="#405261" stroke-linecap="round" stroke-linejoin="round"/>
<path d="M3.5 7.5H5.5" stroke="#405261" stroke-linecap="round" stroke-linejoin="round"/>
<path d="M3.5 4.5L4.5 3.5V7.5" stroke="#405261" stroke-linecap="round" stroke-linejoin="round"/>
<path d="M5.5 7.00001H5V3.50001C5.00018 3.40099 4.97095 3.30414 4.91602 3.22175C4.86109 3.13936 4.78294 3.07514 4.69146 3.03722C4.59999 2.9993 4.49932 2.9894 4.40221 3.00877C4.3051 3.02814 4.21593 3.0759 4.146 3.14601L3.146 4.14601C3.05492 4.24031 3.00452 4.36661 3.00566 4.49771C3.0068 4.62881 3.05939 4.75421 3.15209 4.84692C3.24479 4.93962 3.3702 4.9922 3.5013 4.99334C3.6324 4.99448 3.7587 4.94409 3.853 4.85301L4 4.70701V7.00001H3.5C3.36739 7.00001 3.24021 7.05269 3.14645 7.14645C3.05268 7.24022 3 7.3674 3 7.50001C3 7.63262 3.05268 7.75979 3.14645 7.85356C3.24021 7.94733 3.36739 8.00001 3.5 8.00001H5.5C5.63261 8.00001 5.75979 7.94733 5.85355 7.85356C5.94732 7.75979 6 7.63262 6 7.50001C6 7.3674 5.94732 7.24022 5.85355 7.14645C5.75979 7.05269 5.63261 7.00001 5.5 7.00001ZM5.5 10H3.5C3.36739 10 3.24021 10.0527 3.14645 10.1465C3.05268 10.2402 3 10.3674 3 10.5C3 10.6326 3.05268 10.7598 3.14645 10.8536C3.24021 10.9473 3.36739 11 3.5 11H5V12H3.5C3.36739 12 3.24021 12.0527 3.14645 12.1465C3.05268 12.2402 3 12.3674 3 12.5V14.5C3 14.6326 3.05268 14.7598 3.14645 14.8536C3.24021 14.9473 3.36739 15 3.5 15H5.5C5.63261 15 5.75979 14.9473 5.85355 14.8536C5.94732 14.7598 6 14.6326 6 14.5C6 14.3674 5.94732 14.2402 5.85355 14.1465C5.75979 14.0527 5.63261 14 5.5 14H4V13H5.5C5.63261 13 5.75979 12.9473 5.85355 12.8536C5.94732 12.7598 6 12.6326 6 12.5V10.5C6 10.3674 5.94732 10.2402 5.85355 10.1465C5.75979 10.0527 5.63261 10 5.5 10ZM5.5 17H3.5C3.36739 17 3.24021 17.0527 3.14645 17.1465C3.05268 17.2402 3 17.3674 3 17.5C3 17.6326 3.05268 17.7598 3.14645 17.8536C3.24021 17.9473 3.36739 18 3.5 18H5V19H3.5C3.36739 19 3.24021 19.0527 3.14645 19.1465C3.05268 19.2402 3 19.3674 3 19.5C3 19.6326 3.05268 19.7598 3.14645 19.8536C3.24021 19.9473 3.36739 20 3.5 20H5V21H3.5C3.36739 21 3.24021 21.0527 3.14645 21.1465C3.05268 21.2402 3 21.3674 3 21.5C3 21.6326 3.05268 21.7598 3.14645 21.8536C3.24021 21.9473 3.36739 22 3.5 22H5.5C5.63261 22 5.75979 21.9473 5.85355 21.8536C5.94732 21.7598 6 21.6326 6 21.5V17.5C6 17.3674 5.94732 17.2402 5.85355 17.1465C5.75979 17.0527 5.63261 17 5.5 17ZM8.5 7.00001H13.5C13.6326 7.00001 13.7598 6.94733 13.8536 6.85356C13.9473 6.75979 14 6.63262 14 6.50001C14 6.3674 13.9473 6.24022 13.8536 6.14645C13.7598 6.05269 13.6326 6.00001 13.5 6.00001H8.5C8.36739 6.00001 8.24021 6.05269 8.14645 6.14645C8.05268 6.24022 8 6.3674 8 6.50001C8 6.63262 8.05268 6.75979 8.14645 6.85356C8.24021 6.94733 8.36739 7.00001 8.5 7.00001ZM8.5 5.00001H13.5C13.6326 5.00001 13.7598 4.94733 13.8536 4.85356C13.9473 4.75979 14 4.63262 14 4.50001C14 4.3674 13.9473 4.24022 13.8536 4.14645C13.7598 4.05269 13.6326 4.00001 13.5 4.00001H8.5C8.36739 4.00001 8.24021 4.05269 8.14645 4.14645C8.05268 4.24022 8 4.3674 8 4.50001C8 4.63262 8.05268 4.75979 8.14645 4.85356C8.24021 4.94733 8.36739 5.00001 8.5 5.00001ZM5.5 25C5.36739 25 5.24021 25.0527 5.14645 25.1465C5.05268 25.2402 5 25.3674 5 25.5V26H4V24.5C4 24.3674 3.94732 24.2402 3.85355 24.1465C3.75979 24.0527 3.63261 24 3.5 24C3.36739 24 3.24021 24.0527 3.14645 24.1465C3.05268 24.2402 3 24.3674 3 24.5V26.5C3 26.6326 3.05268 26.7598 3.14645 26.8536C3.24021 26.9473 3.36739 27 3.5 27H5V28.5C5 28.6326 5.05268 28.7598 5.14645 28.8536C5.24021 28.9473 5.36739 29 5.5 29C5.63261 29 5.75979 28.9473 5.85355 28.8536C5.94732 28.7598 6 28.6326 6 28.5V25.5C6 25.3674 5.94732 25.2402 5.85355 25.1465C5.75979 25.0527 5.63261 25 5.5 25ZM14.5 25H8.5C8.36739 25 8.24021 25.0527 8.14645 25.1465C8.05268 25.2402 8 25.3674 8 25.5C8 25.6326 8.05268 25.7598 8.14645 25.8536C8.24021 25.9473 8.36739 26 8.5 26H14.5C14.6326 26 14.7598 25.9473 14.8536 25.8536C14.9473 25.7598 15 25.6326 15 25.5C15 25.3674 14.9473 25.2402 14.8536 25.1465C14.7598 25.0527 14.6326 25 14.5 25ZM14.5 27H8.5C8.36739 27 8.24021 27.0527 8.14645 27.1465C8.05268 27.2402 8 27.3674 8 27.5C8 27.6326 8.05268 27.7598 8.14645 27.8536C8.24021 27.9473 8.36739 28 8.5 28H14.5C14.6326 28 14.7598 27.9473 14.8536 27.8536C14.9473 27.7598 15 27.6326 15 27.5C15 27.3674 14.9473 27.2402 14.8536 27.1465C14.7598 27.0527 14.6326 27 14.5 27ZM14.5 11H8.5C8.36739 11 8.24021 11.0527 8.14645 11.1465C8.05268 11.2402 8 11.3674 8 11.5C8 11.6326 8.05268 11.7598 8.14645 11.8536C8.24021 11.9473 8.36739 12 8.5 12H14.5C14.6326 12 14.7598 11.9473 14.8536 11.8536C14.9473 11.7598 15 11.6326 15 11.5C15 11.3674 14.9473 11.2402 14.8536 11.1465C14.7598 11.0527 14.6326 11 14.5 11ZM24.077 21.278L25.111 20.542C25.6947 20.1254 26.1705 19.5755 26.4991 18.9381C26.8276 18.3007 26.9993 17.5941 27 16.877V14.5C27 14.1022 26.842 13.7207 26.5607 13.4393C26.2794 13.158 25.8978 13 25.5 13H24V7.91501C24.0006 7.71792 23.9621 7.52267 23.8867 7.34055C23.8114 7.15844 23.7007 6.99307 23.561 6.85401L17.146 0.439007C17.0069 0.299339 16.8416 0.188628 16.6595 0.113275C16.4773 0.0379225 16.2821 -0.000575914 16.085 6.51086e-06H2.5C1.83696 6.51086e-06 1.20107 0.263399 0.732233 0.73224C0.263392 1.20108 0 1.83697 0 2.50001L0 29.5C0 30.163 0.263392 30.7989 0.732233 31.2678C1.20107 31.7366 1.83696 32 2.5 32H25.5C25.8978 32 26.2794 31.842 26.5607 31.5607C26.842 31.2794 27 30.8978 27 30.5V28.124C26.9993 27.4069 26.8275 26.7003 26.499 26.0629C26.1704 25.4255 25.6946 24.8757 25.111 24.459L24.076 23.722C23.8814 23.5833 23.7227 23.4 23.6132 23.1876C23.5037 22.9751 23.4466 22.7395 23.4466 22.5005C23.4466 22.2615 23.5037 22.0259 23.6132 21.8134C23.7227 21.601 23.8814 21.4177 24.076 21.279L24.077 21.278ZM25.5 14C25.6326 14 25.7598 14.0527 25.8536 14.1465C25.9473 14.2402 26 14.3674 26 14.5V15H18V14.5C18 14.3674 18.0527 14.2402 18.1464 14.1465C18.2402 14.0527 18.3674 14 18.5 14H25.5ZM17 1.70801L22.292 7.00001H18.5C18.1022 7.00001 17.7206 6.84197 17.4393 6.56067C17.158 6.27936 17 5.89783 17 5.50001V1.70801ZM2.5 31C2.10218 31 1.72064 30.842 1.43934 30.5607C1.15804 30.2794 1 29.8978 1 29.5V2.50001C1 2.10218 1.15804 1.72065 1.43934 1.43935C1.72064 1.15804 2.10218 1.00001 2.5 1.00001H16V5.50001C16 6.16305 16.2634 6.79893 16.7322 7.26777C17.2011 7.73661 17.837 8.00001 18.5 8.00001H23V13H18.5C18.1022 13 17.7206 13.158 17.4393 13.4393C17.158 13.7207 17 14.1022 17 14.5V16.834C17.0008 17.5447 17.1696 18.2451 17.4925 18.8781C17.8154 19.5112 18.2832 20.0591 18.858 20.477L19.892 21.227C20.0873 21.3686 20.2456 21.5553 20.3534 21.7712C20.4612 21.987 20.5153 22.2257 20.5112 22.4669C20.5071 22.7082 20.4448 22.9449 20.3297 23.1569C20.2146 23.369 20.05 23.5501 19.85 23.685L18.981 24.272C18.3711 24.684 17.8716 25.2393 17.5262 25.8893C17.1808 26.5392 17.0001 27.264 17 28V30.5C17.0017 30.6707 17.0328 30.8399 17.092 31H2.5ZM26 30.5C26 30.6326 25.9473 30.7598 25.8536 30.8536C25.7598 30.9473 25.6326 31 25.5 31H18.5C18.3674 31 18.2402 30.9473 18.1464 30.8536C18.0527 30.7598 18 30.6326 18 30.5V30H26V30.5ZM22.447 22.5C22.4452 22.8992 22.54 23.2928 22.7234 23.6474C22.9067 24.0019 23.1732 24.3068 23.5 24.536L24.535 25.273C24.9881 25.5976 25.3574 26.0256 25.6122 26.5214C25.8669 27.0172 25.9999 27.5666 26 28.124V29H18V28C18.0002 27.4274 18.1409 26.8635 18.4097 26.3579C18.6785 25.8523 19.0673 25.4204 19.542 25.1L20.41 24.514C20.744 24.2892 21.0188 23.9871 21.211 23.6333C21.4032 23.2795 21.5071 22.8846 21.5139 22.482C21.5206 22.0794 21.4301 21.6812 21.2499 21.3212C21.0697 20.9611 20.8053 20.6499 20.479 20.414L19.445 19.663C18.9985 19.3385 18.6349 18.9131 18.3838 18.4215C18.1327 17.9299 18.0012 17.386 18 16.834V16H26V16.877C25.9995 17.4348 25.866 17.9844 25.6105 18.4803C25.355 18.9761 24.9849 19.4039 24.531 19.728L23.497 20.464C23.1708 20.6935 22.9049 20.9986 22.722 21.3531C22.5392 21.7076 22.4448 22.1011 22.447 22.5ZM14.5 13H8.5C8.36739 13 8.24021 13.0527 8.14645 13.1465C8.05268 13.2402 8 13.3674 8 13.5C8 13.6326 8.05268 13.7598 8.14645 13.8536C8.24021 13.9473 8.36739 14 8.5 14H14.5C14.6326 14 14.7598 13.9473 14.8536 13.8536C14.9473 13.7598 15 13.6326 15 13.5C15 13.3674 14.9473 13.2402 14.8536 13.1465C14.7598 13.0527 14.6326 13 14.5 13ZM14.5 20H8.5C8.36739 20 8.24021 20.0527 8.14645 20.1465C8.05268 20.2402 8 20.3674 8 20.5C8 20.6326 8.05268 20.7598 8.14645 20.8536C8.24021 20.9473 8.36739 21 8.5 21H14.5C14.6326 21 14.7598 20.9473 14.8536 20.8536C14.9473 20.7598 15 20.6326 15 20.5C15 20.3674 14.9473 20.2402 14.8536 20.1465C14.7598 20.0527 14.6326 20 14.5 20ZM14.5 18H8.5C8.36739 18 8.24021 18.0527 8.14645 18.1465C8.05268 18.2402 8 18.3674 8 18.5C8 18.6326 8.05268 18.7598 8.14645 18.8536C8.24021 18.9473 8.36739 19 8.5 19H14.5C14.6326 19 14.7598 18.9473 14.8536 18.8536C14.9473 18.7598 15 18.6326 15 18.5C15 18.3674 14.9473 18.2402 14.8536 18.1465C14.7598 18.0527 14.6326 18 14.5 18Z" fill="#405261"/>
</g>
<defs>
<clipPath id="clip0_221_4423">
<rect width="32" height="32" fill="white"/>
</clipPath>
</defs>
</svg>
