<svg width="224" height="165" viewBox="0 0 224 165" fill="none" xmlns="http://www.w3.org/2000/svg">
<path d="M23.962 61.2063C20.7857 86.1923 33.6026 111.808 53.8521 126.788C74.1015 141.768 100.748 146.714 125.682 143.124C143.481 140.573 161.135 133.595 173.681 120.715C186.226 107.834 192.839 88.4824 187.786 71.2268C185.876 64.7103 182.126 58.395 176.175 55.1218C166.673 49.9087 154.95 53.7292 144.829 57.6465C134.708 61.5638 123.005 65.4216 113.48 60.2531C106.162 56.2725 102.402 48.0766 97.0395 41.7016C87.9201 30.862 73.1035 25.1051 59.0578 26.9484C57.2991 27.1798 55.5576 27.5268 53.8446 27.9873C38.9014 31.9977 27.6037 44.2747 24.3418 59.4004L23.962 61.2063Z" fill="#EBEBEB"/>
<path d="M92.6827 36.1905H137.538C137.538 36.1905 133.398 16.3842 114.772 16.3842C98.205 16.3842 92.6827 36.1905 92.6827 36.1905Z" fill="#FBA0B1"/>
<path d="M115.591 0H114.63V16.3768H115.591V0Z" fill="#FBA0B1"/>
<path d="M214.984 163.779C214.984 163.831 166.855 163.876 107.496 163.876C48.1362 163.876 0 163.842 0 163.779C0 163.716 48.1213 163.682 107.496 163.682C166.87 163.682 214.984 163.723 214.984 163.779Z" fill="#263238"/>
<path d="M11.9009 140.458C12.5305 140.503 13.1444 140.675 13.7062 140.963C14.2679 141.251 14.7658 141.649 15.1703 142.133C15.9746 143.108 16.5441 144.255 16.8348 145.485C17.4641 147.838 17.0769 150.62 16.4066 152.962C13.8596 152.05 12.2845 149.331 11.5658 147.901C10.4487 145.645 9.78214 140.878 11.8898 140.454" fill="#FBA0B1"/>
<path d="M20.0744 155.818C19.692 155.225 19.4733 154.541 19.4406 153.836C19.4079 153.131 19.5623 152.43 19.8882 151.804C20.2244 151.184 20.6807 150.637 21.2305 150.195C21.7804 149.753 22.4127 149.425 23.0906 149.231C23.7125 149.037 24.4349 148.959 24.9748 149.32C25.2182 149.504 25.4078 149.75 25.5237 150.033C25.6396 150.315 25.6777 150.623 25.6339 150.925C25.5362 151.53 25.2791 152.098 24.8892 152.571C23.6492 154.25 22.1448 155.647 20.0484 155.818" fill="#FBA0B1"/>
<path d="M20.3574 163.686C20.3022 163.528 20.2635 163.364 20.242 163.198C20.175 162.848 20.0856 162.398 19.9776 161.858C19.6434 160.379 19.5503 158.856 19.7021 157.348C19.8776 155.833 20.4548 154.392 21.374 153.174C21.6548 152.81 21.9787 152.481 22.3384 152.195C22.4362 152.117 22.5381 152.045 22.6438 151.979C22.6774 151.951 22.7151 151.928 22.7555 151.912C22.2845 152.314 21.8542 152.762 21.4708 153.249C20.6001 154.467 20.0519 155.887 19.8771 157.374C19.6388 159.11 19.9329 160.7 20.1042 161.843C20.1936 162.413 20.2681 162.874 20.309 163.195C20.3384 163.357 20.3545 163.521 20.3574 163.686Z" fill="#263238"/>
<path d="M12.7201 144.044C12.7627 144.102 12.7977 144.166 12.8244 144.233C12.8914 144.382 12.9808 144.569 13.0851 144.803C13.3122 145.298 13.6287 146.017 14.0123 146.907C14.7793 148.691 15.8071 151.171 16.8795 153.934C17.9519 156.697 18.8642 159.218 19.4861 161.053C19.8063 161.969 20.0558 162.714 20.2308 163.232C20.309 163.478 20.3686 163.675 20.417 163.828C20.4436 163.896 20.4623 163.967 20.4729 164.04C20.4351 163.977 20.4051 163.909 20.3835 163.839C20.3276 163.69 20.2569 163.496 20.1638 163.254L19.3781 161.094C18.7116 159.273 17.7806 156.756 16.7119 153.997C15.6432 151.238 14.6304 148.75 13.8931 146.956C13.5207 146.073 13.234 145.354 13.0218 144.829C12.9249 144.591 12.8467 144.401 12.7872 144.248C12.7592 144.182 12.7368 144.114 12.7201 144.044Z" fill="#263238"/>
<path d="M17.3301 158.48C16.5639 157.205 15.505 156.13 14.2411 155.344C12.9772 154.559 11.5445 154.086 10.0614 153.963C9.31668 153.911 8.40065 154.038 8.06552 154.708C7.73038 155.378 8.17723 156.198 8.6911 156.741C9.7829 157.884 11.1884 158.677 12.7304 159.021C14.2725 159.366 15.882 159.246 17.3561 158.678" fill="#FBA0B1"/>
<path d="M11.2083 155.982C11.3662 155.974 11.5245 155.98 11.6812 156C11.8648 156.01 12.0476 156.031 12.2286 156.064C12.4409 156.105 12.6903 156.127 12.951 156.201C13.2424 156.263 13.5296 156.343 13.8112 156.44C14.1374 156.545 14.4569 156.669 14.7682 156.812C15.484 157.133 16.1611 157.534 16.7864 158.007C17.4045 158.492 17.9643 159.047 18.4546 159.661C18.6664 159.928 18.8616 160.208 19.0392 160.499C19.1998 160.75 19.3465 161.01 19.4786 161.277C19.5905 161.494 19.69 161.718 19.7765 161.947C19.8512 162.117 19.9146 162.291 19.9664 162.468C20.0216 162.617 20.0627 162.77 20.0893 162.926C20.0484 162.926 19.8696 162.286 19.3669 161.333C19.23 161.077 19.0796 160.828 18.9164 160.588C18.7349 160.306 18.5385 160.034 18.328 159.773C17.3541 158.569 16.112 157.61 14.7011 156.972C14.3772 156.831 14.0681 156.697 13.7665 156.6C13.4896 156.499 13.2074 156.413 12.9212 156.343C11.8786 156.056 11.2046 156.023 11.2083 155.982Z" fill="#263238"/>
<path d="M180.238 39.2775C179.143 39.527 178.611 40.7893 178.506 41.9064C178.402 43.0236 178.544 44.2077 178.074 45.228C177.546 46.3749 176.283 47.2239 176.242 48.4862C176.216 49.257 176.674 49.9757 176.652 50.7539C176.615 52.02 175.326 52.9882 175.256 54.2393C175.207 55.1516 175.814 56.023 175.669 56.9241C175.557 57.6242 175.01 58.1753 174.779 58.8455C174.321 60.1861 175.241 61.6569 176.436 62.4091C177.106 62.8301 177.859 63.0998 178.644 63.1994C179.429 63.299 180.226 63.226 180.979 62.9856C181.733 62.7451 182.425 62.343 183.007 61.8074C183.589 61.2718 184.047 60.6155 184.349 59.8844C185.012 58.2758 184.866 56.4624 184.721 54.7308C184.274 49.329 183.942 43.9197 183.723 38.503" fill="#263238"/>
<path d="M177.058 58.3355C177.283 58.1954 177.459 57.9884 177.561 57.7434C177.668 57.452 177.711 57.1407 177.687 56.8311C177.646 56.4205 177.555 56.0165 177.415 55.6283C177.237 55.1404 177.171 54.6186 177.222 54.1016C177.315 53.5207 177.732 53.0441 178.108 52.5749C178.311 52.3453 178.48 52.0883 178.611 51.8115C178.742 51.5317 178.763 51.2127 178.67 50.9179C178.477 50.3109 177.881 49.864 177.609 49.1603C177.481 48.8119 177.461 48.4332 177.549 48.073C177.634 47.7352 177.759 47.4088 177.922 47.1011C178.236 46.5468 178.486 45.9583 178.667 45.3472C178.927 44.1668 178.804 43.0385 178.983 42.1113C179.082 41.3687 179.412 40.6759 179.925 40.1303C180.07 39.9834 180.236 39.858 180.417 39.7579C180.479 39.7255 180.545 39.7017 180.614 39.6872C180.381 39.8157 180.166 39.9761 179.977 40.1638C179.502 40.7149 179.202 41.3958 179.117 42.1188C179.052 42.6126 179.017 43.1101 179.013 43.6082C179.012 44.1945 178.954 44.7793 178.842 45.3547C178.664 45.9798 178.414 46.5822 178.097 47.1495C177.818 47.7341 177.561 48.4193 177.806 49.0597C178.052 49.7002 178.644 50.1433 178.871 50.8285C178.974 51.167 178.949 51.5313 178.801 51.8525C178.656 52.1571 178.467 52.4392 178.242 52.6903C177.87 53.1595 177.464 53.6064 177.374 54.1277C177.322 54.6221 177.381 55.122 177.546 55.5911C177.679 55.9914 177.761 56.4067 177.791 56.8274C177.81 57.1514 177.752 57.4752 177.624 57.7732C177.544 57.96 177.415 58.122 177.252 58.2424C177.193 58.285 177.128 58.3166 177.058 58.3355Z" fill="#455A64"/>
<path d="M174.146 67.1643L170.795 76.8459L156.779 77.5906L154.44 82.8038L169.074 84.2933C169.766 84.5771 170.507 84.7179 171.255 84.707C172.002 84.6961 172.739 84.5339 173.422 84.23C174.105 83.9262 174.719 83.4871 175.228 82.9392C175.736 82.3914 176.128 81.7461 176.38 81.0425L180.286 70.1395L174.146 67.1643Z" fill="#B78876"/>
<path d="M203.12 158.518C203.12 158.518 192.85 125.891 192.63 124.833C192.433 123.872 196.354 100.395 196.853 94.2988L182.975 94.8164V94.9542L177.077 95.2819L182.357 161.981H188.743L188.11 139.843C192.049 150.415 197.695 161.191 197.695 161.191L203.12 158.518Z" fill="#B78876"/>
<path d="M188.37 147.786C188.37 147.585 188.292 140.368 188.292 140.368C188.214 140.8 185.846 134.105 185.902 133.699C185.931 133.487 188.37 147.786 188.37 147.786Z" fill="#A36957"/>
<path d="M185.634 130.527C185.601 130.659 185.587 130.796 185.593 130.932C185.572 131.305 185.572 131.678 185.593 132.05C185.593 132.284 185.626 132.537 185.656 132.813C185.686 133.089 185.727 133.379 185.79 133.681C185.922 134.339 186.098 134.989 186.315 135.624C186.777 136.976 187.291 138.156 187.652 139.013C187.823 139.385 187.972 139.739 188.099 140.022C188.144 140.154 188.207 140.279 188.285 140.394C188.265 140.266 188.227 140.14 188.173 140.022C188.088 139.776 187.957 139.423 187.801 138.987C187.473 138.115 186.982 136.924 186.524 135.587C186.307 134.961 186.129 134.321 185.991 133.673C185.924 133.375 185.879 133.089 185.838 132.82C185.797 132.552 185.768 132.299 185.749 132.076C185.704 131.614 185.686 131.242 185.675 130.981C185.682 130.828 185.668 130.675 185.634 130.527Z" fill="#A36957"/>
<path d="M182.238 162.32V161.72L188.78 161.433L188.799 163.91L188.397 163.936C186.598 164.04 179.255 164.345 178.056 163.984C176.712 163.582 182.238 162.32 182.238 162.32Z" fill="#455A64"/>
<path d="M188.884 163.761C188.847 163.763 188.81 163.763 188.773 163.761L188.452 163.783L187.268 163.835C186.27 163.876 184.889 163.913 183.366 163.921C181.843 163.928 180.458 163.902 179.456 163.872L178.276 163.824H177.952H177.84C177.877 163.821 177.914 163.821 177.952 163.824H178.276L179.46 163.846C180.458 163.846 181.839 163.876 183.362 163.869C184.885 163.861 186.27 163.835 187.268 163.809L188.452 163.779H188.884V163.761Z" fill="#263238"/>
<path d="M180.104 163.969C180.05 163.774 179.975 163.586 179.88 163.407C179.763 163.242 179.626 163.091 179.475 162.956C179.678 163.029 179.847 163.175 179.948 163.366C180.071 163.542 180.126 163.756 180.104 163.969Z" fill="#263238"/>
<path d="M182.033 162.99C182.033 162.99 181.925 162.889 181.828 162.74C181.731 162.591 181.672 162.461 181.69 162.45C181.709 162.439 181.798 162.547 181.895 162.696C181.992 162.845 182.051 162.979 182.033 162.99Z" fill="#263238"/>
<path d="M182.562 162.725C182.562 162.744 182.442 162.673 182.331 162.573C182.219 162.472 182.137 162.379 182.152 162.364C182.167 162.349 182.271 162.416 182.383 162.517C182.495 162.617 182.576 162.692 182.562 162.725Z" fill="#263238"/>
<path d="M182.893 162.092C182.783 162.132 182.666 162.148 182.55 162.137C182.436 162.152 182.32 162.141 182.212 162.104C182.32 162.064 182.436 162.048 182.55 162.059C182.666 162.043 182.783 162.055 182.893 162.092Z" fill="#263238"/>
<path d="M183.005 161.66C182.894 161.732 182.765 161.771 182.632 161.772C182.506 161.789 182.377 161.771 182.26 161.72C182.383 161.699 182.508 161.689 182.632 161.69C182.755 161.668 182.88 161.658 183.005 161.66Z" fill="#263238"/>
<path d="M181.813 162.42C181.674 162.446 181.531 162.446 181.392 162.42C181.242 162.402 181.093 162.369 180.949 162.323C180.86 162.299 180.774 162.264 180.692 162.219C180.643 162.19 180.606 162.143 180.588 162.089C180.581 162.058 180.583 162.025 180.595 161.995C180.606 161.966 180.626 161.94 180.651 161.921C180.754 161.871 180.867 161.845 180.982 161.844C181.096 161.843 181.21 161.867 181.314 161.915C181.418 161.963 181.51 162.034 181.583 162.122C181.657 162.21 181.71 162.313 181.739 162.424C181.746 162.461 181.746 162.499 181.739 162.535C181.696 162.401 181.631 162.275 181.545 162.163C181.446 162.052 181.317 161.971 181.173 161.932C181.008 161.879 180.829 161.892 180.674 161.969C180.61 162.018 180.636 162.096 180.707 162.141C180.783 162.182 180.863 162.216 180.945 162.241C181.085 162.287 181.229 162.323 181.374 162.349C181.653 162.409 181.813 162.409 181.813 162.42Z" fill="#263238"/>
<path d="M181.705 162.442C181.651 162.356 181.632 162.252 181.653 162.152C181.667 162.042 181.706 161.938 181.768 161.847C181.803 161.784 181.853 161.732 181.914 161.694C181.974 161.657 182.043 161.635 182.115 161.631C182.157 161.64 182.194 161.666 182.218 161.702C182.242 161.738 182.252 161.781 182.245 161.824C182.236 161.891 182.212 161.955 182.174 162.01C182.118 162.103 182.052 162.189 181.977 162.267C181.912 162.342 181.83 162.399 181.739 162.435C181.739 162.435 181.82 162.36 181.936 162.226C182.003 162.15 182.062 162.066 182.111 161.977C182.167 161.888 182.208 161.727 182.111 161.709C182.014 161.69 181.902 161.806 181.839 161.888C181.78 161.968 181.739 162.061 181.72 162.159C181.705 162.253 181.7 162.348 181.705 162.442Z" fill="#263238"/>
<path d="M188.747 161.981C188.747 161.981 188.56 161.981 188.266 161.999C187.883 162.045 187.521 162.198 187.22 162.439C186.919 162.681 186.692 163.002 186.565 163.366C186.468 163.645 186.46 163.835 186.445 163.831C186.43 163.828 186.445 163.783 186.445 163.701C186.455 163.581 186.477 163.462 186.512 163.347C186.631 162.966 186.859 162.628 187.168 162.375C187.481 162.127 187.861 161.978 188.259 161.947C188.382 161.932 188.507 161.932 188.631 161.947C188.671 161.953 188.71 161.965 188.747 161.981Z" fill="#263238"/>
<path d="M185.615 163.239C185.303 163.312 184.982 163.343 184.662 163.332C184.343 163.348 184.023 163.321 183.712 163.251C183.712 163.228 184.137 163.251 184.662 163.251C185.187 163.251 185.611 163.217 185.615 163.239Z" fill="#263238"/>
<path d="M186.888 163.228C186.888 163.228 186.855 163.317 186.81 163.414C186.766 163.511 186.743 163.6 186.721 163.597C186.699 163.593 186.687 163.496 186.74 163.381C186.792 163.265 186.874 163.21 186.888 163.228Z" fill="#263238"/>
<path d="M187.369 162.629C187.369 162.629 187.343 162.711 187.276 162.778C187.209 162.845 187.142 162.889 187.123 162.874C187.104 162.86 187.149 162.792 187.216 162.722C187.283 162.651 187.35 162.61 187.369 162.629Z" fill="#263238"/>
<path d="M188.054 162.353C188.054 162.375 187.965 162.375 187.868 162.409C187.771 162.442 187.704 162.495 187.685 162.48C187.667 162.465 187.723 162.375 187.842 162.335C187.961 162.294 188.061 162.331 188.054 162.353Z" fill="#263238"/>
<path d="M188.542 162.219C188.542 162.241 188.516 162.275 188.46 162.294C188.404 162.312 188.356 162.316 188.348 162.294C188.341 162.271 188.378 162.238 188.43 162.219C188.482 162.2 188.534 162.2 188.542 162.219Z" fill="#263238"/>
<path d="M197.564 161.742L197.319 161.195L203.168 158.257L204.2 160.491L203.828 160.681C202.23 161.511 195.658 164.796 194.414 164.96C193.04 165.157 197.564 161.742 197.564 161.742Z" fill="#455A64"/>
<path d="M204.222 160.331L204.125 160.391L203.839 160.54L202.781 161.076C201.887 161.519 200.644 162.118 199.255 162.751C197.866 163.384 196.592 163.924 195.669 164.308L194.57 164.751L194.273 164.867C194.238 164.882 194.202 164.894 194.165 164.9L194.265 164.852L194.559 164.721L195.647 164.256C196.566 163.861 197.832 163.31 199.221 162.677C200.61 162.044 201.858 161.456 202.759 161.024L203.824 160.514L204.118 160.376L204.222 160.331Z" fill="#263238"/>
<path d="M196.309 164.118C196.18 163.961 196.034 163.819 195.874 163.694C195.699 163.59 195.513 163.508 195.319 163.448C195.533 163.445 195.742 163.508 195.919 163.628C196.096 163.747 196.233 163.919 196.309 164.118Z" fill="#263238"/>
<path d="M197.654 162.435C197.654 162.435 197.512 162.39 197.363 162.293C197.214 162.197 197.106 162.104 197.117 162.085C197.129 162.066 197.259 162.13 197.408 162.226C197.557 162.323 197.665 162.416 197.654 162.435Z" fill="#263238"/>
<path d="M198.019 161.981C198.019 161.999 197.892 161.981 197.747 161.936C197.602 161.891 197.494 161.835 197.497 161.813C197.591 161.804 197.686 161.82 197.773 161.858C197.914 161.891 198.026 161.943 198.019 161.981Z" fill="#263238"/>
<path d="M198.071 161.266C198.071 161.288 197.948 161.366 197.777 161.448C197.678 161.507 197.567 161.544 197.453 161.556C197.453 161.534 197.575 161.456 197.743 161.374C197.843 161.315 197.955 161.278 198.071 161.266Z" fill="#263238"/>
<path d="M197.996 160.826C197.996 160.826 197.888 160.975 197.695 161.083C197.585 161.158 197.455 161.197 197.322 161.195C197.429 161.123 197.542 161.062 197.661 161.012C197.844 160.912 197.978 160.808 197.996 160.826Z" fill="#263238"/>
<path d="M197.233 162.01C197.119 162.088 196.994 162.146 196.861 162.182C196.714 162.224 196.565 162.255 196.414 162.275C196.322 162.286 196.23 162.286 196.138 162.275C196.081 162.27 196.027 162.244 195.989 162.2C195.972 162.174 195.963 162.143 195.963 162.111C195.963 162.079 195.972 162.048 195.989 162.022C196.102 161.884 196.26 161.791 196.434 161.757C196.609 161.723 196.79 161.751 196.946 161.835C197.039 161.884 197.12 161.951 197.184 162.033C197.229 162.092 197.248 162.13 197.244 162.133C197.152 162.031 197.043 161.946 196.92 161.884C196.789 161.822 196.643 161.8 196.499 161.821C196.414 161.829 196.331 161.855 196.256 161.896C196.18 161.937 196.114 161.992 196.06 162.059C196.019 162.13 196.06 162.189 196.16 162.2C196.246 162.208 196.332 162.208 196.417 162.2C196.566 162.185 196.713 162.159 196.857 162.122C197.069 162.063 197.233 161.999 197.233 162.01Z" fill="#263238"/>
<path d="M197.129 162.074C197.046 162.015 196.987 161.927 196.965 161.828C196.932 161.723 196.924 161.612 196.942 161.504C196.949 161.433 196.973 161.364 197.014 161.305C197.054 161.245 197.109 161.197 197.173 161.165C197.266 161.135 197.482 161.325 197.497 161.396C197.512 161.467 197.389 161.43 197.382 161.489C197.37 161.595 197.345 161.699 197.307 161.798C197.28 161.894 197.229 161.981 197.158 162.051C197.158 162.051 197.203 161.951 197.255 161.783C197.282 161.684 197.301 161.584 197.311 161.482C197.311 161.377 197.311 161.217 197.192 161.243C197.073 161.269 197.039 161.415 197.013 161.519C196.99 161.616 196.99 161.716 197.013 161.813C197.044 161.903 197.083 161.99 197.129 162.074Z" fill="#263238"/>
<path d="M203.366 158.763C203.366 158.763 203.187 158.827 202.934 158.979C202.603 159.177 202.333 159.464 202.156 159.806C201.983 160.152 201.91 160.538 201.943 160.923C201.966 161.221 202.036 161.392 202.022 161.4C201.997 161.363 201.979 161.323 201.966 161.281C201.929 161.167 201.903 161.049 201.888 160.931C201.834 160.534 201.903 160.131 202.085 159.774C202.266 159.418 202.552 159.125 202.904 158.935C203.009 158.876 203.12 158.829 203.235 158.793C203.277 158.777 203.321 158.767 203.366 158.763Z" fill="#263238"/>
<path d="M201.024 161.199C200.499 161.564 199.912 161.831 199.292 161.988C199.292 161.966 199.683 161.817 200.16 161.616C200.636 161.415 201.012 161.18 201.024 161.199Z" fill="#263238"/>
<path d="M202.182 160.666C202.2 160.666 202.182 160.759 202.182 160.867C202.182 160.975 202.182 161.065 202.182 161.072C202.182 161.08 202.107 160.99 202.107 160.867C202.107 160.744 202.163 160.655 202.182 160.666Z" fill="#263238"/>
<path d="M202.372 159.921C202.39 159.921 202.372 160.007 202.349 160.096C202.327 160.186 202.271 160.253 202.252 160.245C202.234 160.238 202.252 160.16 202.275 160.07C202.297 159.981 202.349 159.914 202.372 159.921Z" fill="#263238"/>
<path d="M202.885 159.374C202.885 159.396 202.811 159.43 202.736 159.501C202.662 159.572 202.621 159.646 202.602 159.639C202.584 159.631 202.602 159.527 202.684 159.441C202.766 159.356 202.882 159.374 202.885 159.374Z" fill="#263238"/>
<path d="M203.276 159.069C203.276 159.069 203.276 159.128 203.232 159.169C203.187 159.21 203.146 159.233 203.131 159.218C203.116 159.203 203.131 159.158 203.176 159.117C203.221 159.076 203.262 159.054 203.276 159.069Z" fill="#263238"/>
<path d="M195.952 83.2768L194.865 69.9832L200.45 70.0838C200.45 70.0838 200.707 68.1214 199.884 63.8242C199.378 61.1878 197.624 59.5718 195.654 58.611V58.5738L195.483 58.5291C193.861 57.8011 192.129 57.3493 190.359 57.1923L183.489 57.2705C183.489 57.2705 178.242 56.6003 175.349 60.3575C174.232 61.7985 170.765 71.6626 170.765 71.6626L179.013 75.6321L178.242 70.1619C178.242 70.1619 178.398 74.1277 178.905 75.3751C179.184 76.0752 180.022 78.2498 180.022 78.2498L179.914 84.811L195.952 83.2768Z" fill="#FBA0B1"/>
<path d="M192.165 68.0543L191.145 72.3961H200.763L200.13 65.1125L192.165 68.0543Z" fill="#FBA0B1"/>
<path d="M200.763 72.3961C200.343 72.3187 199.917 72.2763 199.489 72.2695C198.7 72.2248 197.628 72.1839 196.406 72.1913C195.185 72.1988 194.109 72.2509 193.319 72.3105C192.892 72.3253 192.467 72.3777 192.05 72.4669C192.476 72.5008 192.904 72.5008 193.33 72.4669C194.116 72.4408 195.192 72.411 196.406 72.4073C197.62 72.4036 198.696 72.4073 199.486 72.4259C199.912 72.4498 200.339 72.4398 200.763 72.3961Z" fill="#263238"/>
<path d="M191.748 65.079C191.702 65.4495 191.692 65.8236 191.718 66.1961C191.718 66.8775 191.748 67.8159 191.789 68.8548C191.83 69.8937 191.878 70.8358 191.923 71.5135C191.925 71.889 191.965 72.2633 192.042 72.6306C192.088 72.2601 192.098 71.886 192.072 71.5135C192.072 70.8321 192.042 69.89 192.001 68.8511C191.96 67.8122 191.912 66.8738 191.867 66.1924C191.865 65.8181 191.826 65.4451 191.748 65.079Z" fill="#263238"/>
<g opacity="0.3">
<path d="M182.997 68.8399C182.997 68.8399 185.135 84.6917 191.145 84.2709C191.145 84.2709 193.852 84.2411 194.719 82.4426V81.7351L182.997 68.8399Z" fill="black"/>
</g>
<g opacity="0.3">
<path d="M191.748 66.0137L190.597 73.785L191.342 75.1479L192.571 72.4817L192.05 72.4668L191.748 66.0137Z" fill="black"/>
</g>
<path d="M179.988 78.2571C179.917 78.1411 179.862 78.0158 179.825 77.8847C179.732 77.6427 179.609 77.2889 179.452 76.8458C179.079 75.6912 178.772 74.5163 178.533 73.3269C178.294 72.1368 178.142 70.9309 178.078 69.7187C178.056 69.2532 178.048 68.8771 178.056 68.6016C178.046 68.4669 178.055 68.3317 178.082 68.1994C178.112 68.1994 178.134 68.7729 178.212 69.6889C178.317 70.8901 178.487 72.0847 178.722 73.2673C178.998 74.6526 179.329 75.8926 179.583 76.7825C179.702 77.1958 179.802 77.5496 179.884 77.84C179.935 77.9745 179.97 78.1145 179.988 78.2571Z" fill="#263238"/>
<path d="M182.416 82.8112C182.364 82.8112 182.215 82.4872 182.085 82.0665C181.973 81.8086 181.923 81.5279 181.94 81.2473C182.104 81.4748 182.217 81.7352 182.271 82.0106C182.378 82.2635 182.428 82.5369 182.416 82.8112Z" fill="#263238"/>
<path d="M183.247 82.7517C182.965 82.0047 182.953 81.1829 183.213 80.4281C183.242 80.8148 183.242 81.2032 183.213 81.5899C183.254 81.9757 183.265 82.3641 183.247 82.7517Z" fill="#263238"/>
<path d="M179.18 75.8144C179.154 75.8591 177.237 74.9505 174.894 73.7813C172.552 72.612 170.672 71.6215 170.694 71.5731C170.716 71.5247 172.638 72.437 174.98 73.6063C177.322 74.7755 179.203 75.766 179.18 75.8144Z" fill="#263238"/>
<path d="M182.562 58.5551C182.602 56.6709 182.614 54.6899 182.614 54.6899C182.614 54.6899 180.197 54.2244 179.776 51.0444C179.374 48.0133 180.499 40.8973 180.499 40.8973C184.029 39.5642 187.697 40.7744 190.113 43.6342L189.514 58.9275C189.443 60.7037 187.86 62.0591 185.961 61.9697C184.04 61.8766 182.521 60.3499 182.562 58.5551Z" fill="#B78876"/>
<path d="M180.312 46.5834C180.309 46.6878 180.346 46.7895 180.415 46.8677C180.484 46.9459 180.581 46.9947 180.685 47.0041C180.738 47.0093 180.791 47.0035 180.842 46.9874C180.892 46.9712 180.939 46.9449 180.979 46.91C181.019 46.8752 181.052 46.8325 181.075 46.7847C181.098 46.7369 181.111 46.6848 181.113 46.6318C181.116 46.5278 181.079 46.4265 181.01 46.3489C180.941 46.2713 180.844 46.2233 180.741 46.2147C180.688 46.2067 180.633 46.2102 180.582 46.225C180.53 46.2399 180.482 46.2657 180.442 46.3007C180.401 46.3357 180.369 46.3791 180.346 46.4279C180.324 46.4767 180.312 46.5297 180.312 46.5834Z" fill="#263238"/>
<path d="M180.163 46.0509C180.212 46.1031 180.536 45.8834 180.964 45.8983C181.392 45.9132 181.709 46.1366 181.761 46.0844C181.813 46.0323 181.739 45.9653 181.601 45.8573C181.414 45.7222 181.191 45.6481 180.96 45.645C180.734 45.6364 180.51 45.7017 180.324 45.8312C180.186 45.9318 180.137 46.0249 180.163 46.0509Z" fill="#263238"/>
<path d="M184.747 46.8589C184.743 46.9636 184.78 47.0658 184.849 47.1442C184.918 47.2226 185.015 47.2712 185.12 47.2797C185.173 47.2878 185.228 47.2842 185.279 47.2692C185.331 47.2541 185.379 47.228 185.42 47.1926C185.461 47.1571 185.493 47.1133 185.515 47.064C185.537 47.0148 185.549 46.9613 185.548 46.9074C185.552 46.8031 185.516 46.7013 185.446 46.6235C185.377 46.5457 185.28 46.4979 185.176 46.4903C185.122 46.4822 185.068 46.4858 185.017 46.5006C184.965 46.5154 184.917 46.5412 184.877 46.5763C184.836 46.6113 184.803 46.6546 184.781 46.7034C184.759 46.7522 184.747 46.8053 184.747 46.8589Z" fill="#263238"/>
<path d="M184.718 46.3265C184.766 46.3823 185.09 46.1626 185.518 46.1738C185.946 46.185 186.263 46.4121 186.319 46.36C186.375 46.3079 186.293 46.2408 186.155 46.1366C185.971 45.9979 185.748 45.9222 185.518 45.9206C185.29 45.9138 185.066 45.9789 184.878 46.1068C184.744 46.2073 184.695 46.3004 184.718 46.3265Z" fill="#263238"/>
<path d="M183.049 49.5251C182.821 49.4465 182.583 49.3977 182.342 49.3799C182.23 49.3799 182.126 49.339 182.111 49.2645C182.102 49.1481 182.131 49.0319 182.193 48.9331L182.543 48.0952C182.869 47.3832 183.136 46.646 183.344 45.8908C182.962 46.575 182.636 47.2885 182.368 48.0245C182.252 48.3187 182.137 48.6017 182.029 48.8698C181.957 49.0028 181.933 49.1568 181.962 49.3054C181.977 49.3458 182 49.3823 182.031 49.412C182.062 49.4417 182.1 49.4638 182.141 49.4767C182.203 49.4946 182.266 49.5046 182.331 49.5065C182.568 49.5431 182.81 49.5494 183.049 49.5251Z" fill="#263238"/>
<path d="M182.614 54.6898C184.103 54.7495 185.581 54.395 186.881 53.6658C186.881 53.6658 185.797 55.8144 182.636 55.4383L182.614 54.6898Z" fill="#A36957"/>
<path d="M186.118 45.0567C186.028 45.1945 185.693 45.1349 185.321 45.0567C184.948 44.9785 184.621 44.9152 184.576 44.7551C184.531 44.595 184.922 44.3828 185.421 44.4833C185.92 44.5838 186.207 44.9376 186.118 45.0567Z" fill="#263238"/>
<path d="M181.772 44.4236C181.739 44.5837 181.381 44.6433 180.972 44.6619C180.562 44.6806 180.201 44.6619 180.152 44.4981C180.104 44.3342 180.45 44.1034 180.945 44.081C181.441 44.0587 181.806 44.2709 181.772 44.4236Z" fill="#263238"/>
<path d="M183.057 50.5715C183.01 50.5604 182.96 50.5653 182.916 50.5856C182.873 50.6058 182.837 50.6402 182.815 50.6832C182.794 50.7212 182.783 50.764 182.783 50.8075C182.784 50.851 182.795 50.8936 182.817 50.9311C182.839 50.9686 182.871 50.9997 182.909 51.0214C182.946 51.043 182.989 51.0543 183.033 51.0543C183.076 51.0543 183.119 51.043 183.157 51.0214C183.194 50.9997 183.226 50.9686 183.248 50.9311C183.27 50.8936 183.282 50.851 183.282 50.8075C183.283 50.764 183.272 50.7212 183.25 50.6832C183.224 50.6332 183.181 50.5938 183.129 50.5714C183.076 50.5491 183.018 50.5452 182.964 50.5603" fill="#A36957"/>
<path d="M183.157 50.6161C183.157 50.5975 183.087 50.4895 182.897 50.5305C182.84 50.5453 182.788 50.5748 182.746 50.616C182.704 50.6571 182.674 50.7086 182.658 50.7651C182.638 50.8364 182.64 50.912 182.663 50.9823C182.687 51.0526 182.73 51.1144 182.789 51.1598C182.851 51.2022 182.924 51.2249 182.999 51.2249C183.074 51.2249 183.147 51.2022 183.209 51.1598C183.259 51.1265 183.298 51.0796 183.322 51.0249C183.345 50.9701 183.353 50.9097 183.343 50.8507C183.306 50.6534 183.161 50.6236 183.154 50.6497C183.146 50.6757 183.206 50.7428 183.195 50.8582C183.192 50.8867 183.183 50.9142 183.167 50.9382C183.151 50.9622 183.13 50.9821 183.105 50.996C183.076 51.0126 183.044 51.0214 183.01 51.0214C182.977 51.0214 182.944 51.0126 182.915 50.996C182.889 50.9739 182.869 50.9455 182.858 50.9136C182.846 50.8816 182.843 50.8471 182.848 50.8135C182.853 50.7841 182.864 50.7562 182.881 50.7321C182.899 50.7081 182.922 50.6888 182.949 50.6757C183.053 50.6124 183.146 50.6422 183.157 50.6161Z" fill="#263238"/>
<path d="M188.668 47.3691C188.296 48.2404 187.373 48.9144 187.499 49.8565C187.581 50.4635 187.972 51.0295 187.898 51.6402C187.801 52.3849 187.008 52.936 186.892 53.6994C186.754 54.634 187.667 55.3601 188.028 56.2315C188.56 57.505 187.883 58.9349 187.864 60.3275C187.886 61.3849 188.29 62.3984 189.003 63.1803C189.715 63.9622 190.686 64.4595 191.737 64.58C192.586 64.6507 193.543 64.3938 193.971 63.664C194.343 63.0607 194.261 62.2937 194.477 61.6271C194.805 60.6292 195.755 59.8993 195.967 58.8716C196.339 57.0097 194.068 55.4458 194.217 53.5392C194.28 52.7238 194.783 52.0163 194.995 51.2268C195.13 50.708 195.14 50.1646 195.025 49.641C194.91 49.1174 194.673 48.6285 194.332 48.2144C193.77 47.5478 192.958 47.0973 192.47 46.3823C191.93 45.5594 191.912 44.5205 191.726 43.5486C191.476 42.3673 190.93 41.2686 190.14 40.3554C189.35 39.4421 188.342 38.744 187.209 38.3263C186.076 37.9086 184.856 37.785 183.662 37.967C182.468 38.1489 181.34 38.6306 180.383 39.3669C180.383 39.3669 179.843 41.8208 182.364 42.2341C184.885 42.6474 186.051 42.1708 186.334 43.1799C186.267 43.5956 186.3 44.0212 186.429 44.4219C186.559 44.8225 186.781 45.1868 187.078 45.4849C188.106 46.5946 189.085 46.3562 188.668 47.3691Z" fill="#263238"/>
<path d="M192.671 64.3902C192.594 64.3928 192.516 64.3853 192.441 64.3678C192.222 64.3291 192.008 64.2705 191.8 64.1928C191.031 63.898 190.357 63.3999 189.849 62.7517C189.493 62.3045 189.213 61.8011 189.022 61.2623C188.805 60.6486 188.69 60.0031 188.683 59.352C188.676 58.6344 188.766 57.919 188.951 57.2258C189.053 56.8596 189.177 56.5002 189.324 56.1496C189.477 55.8007 189.613 55.444 189.73 55.0809C189.832 54.7232 189.832 54.3439 189.73 53.9862C189.621 53.634 189.48 53.2925 189.309 52.9659C189.136 52.642 188.991 52.3045 188.873 51.9568C188.759 51.6126 188.732 51.2452 188.795 50.8881C188.944 50.188 189.368 49.6667 189.622 49.1342C189.863 48.6413 189.978 48.0962 189.957 47.5479C189.923 46.7454 189.632 45.9752 189.126 45.3509C188.931 45.1323 188.72 44.927 188.497 44.7365C188.758 44.8832 188.991 45.0748 189.186 45.3025C189.728 45.9258 190.048 46.7118 190.095 47.5367C190.125 48.109 190.013 48.6798 189.767 49.1975C189.51 49.7486 189.097 50.2736 188.97 50.9141C188.843 51.5546 189.145 52.2286 189.476 52.8765C189.657 53.2125 189.804 53.5654 189.916 53.9303C190.026 54.3199 190.026 54.7323 189.916 55.1219C189.792 55.4976 189.649 55.8667 189.488 56.2278C189.341 56.5708 189.217 56.9228 189.115 57.2816C188.93 57.9574 188.839 58.6552 188.843 59.3557C188.832 60.5488 189.217 61.7119 189.938 62.6624C190.42 63.3025 191.063 63.8046 191.8 64.1183C192.355 64.3343 192.675 64.3678 192.671 64.3902Z" fill="#455A64"/>
<path d="M192.299 45.6003C192.118 45.6473 191.932 45.6748 191.744 45.6823C191.233 45.7369 190.717 45.7231 190.21 45.6413C189.825 45.5844 189.456 45.4513 189.124 45.2499C188.791 45.0485 188.502 44.7828 188.274 44.4683C188.061 44.0705 187.891 43.6511 187.767 43.2172C187.608 42.7838 187.31 42.4156 186.918 42.1708C186.103 41.6532 185.146 41.5899 184.312 41.4894C183.542 41.451 182.795 41.2178 182.141 40.8117C181.702 40.5212 181.386 40.08 181.251 39.5717C181.218 39.4339 181.209 39.2916 181.225 39.1509C181.225 39.0541 181.247 39.0057 181.255 39.0057C181.259 39.1901 181.283 39.3736 181.325 39.5531C181.479 40.0283 181.796 40.4343 182.219 40.7C182.861 41.0748 183.587 41.2846 184.33 41.3106C185.164 41.4075 186.155 41.4559 187.026 42.007C187.453 42.2747 187.778 42.677 187.95 43.1501C188.066 43.573 188.227 43.9824 188.43 44.3715C188.864 44.9665 189.514 45.3676 190.24 45.4886C190.731 45.5799 191.231 45.6136 191.729 45.5892C191.919 45.5785 192.11 45.5822 192.299 45.6003Z" fill="#455A64"/>
<path d="M191.376 42.5693C191.235 42.6162 191.088 42.6377 190.94 42.6326C190.246 42.6373 189.577 42.37 189.078 41.8879C188.85 41.6595 188.656 41.4 188.501 41.1171C188.166 40.5511 187.842 39.8547 187.145 39.5643C186.475 39.3392 185.76 39.2767 185.06 39.3818C184.47 39.4648 183.871 39.4648 183.28 39.3818C182.869 39.3248 182.483 39.1547 182.163 38.8903C182.081 38.8183 182.008 38.7357 181.947 38.6445C181.902 38.58 181.884 38.5465 181.891 38.544C181.891 38.544 181.996 38.6632 182.212 38.8307C182.53 39.0572 182.9 39.2006 183.288 39.2478C183.867 39.3132 184.453 39.3031 185.03 39.218C185.761 39.0987 186.509 39.1627 187.209 39.4042C187.568 39.5658 187.876 39.8235 188.099 40.1489C188.295 40.4392 188.475 40.74 188.639 41.0501C188.785 41.3207 188.967 41.571 189.179 41.7948C189.365 41.984 189.58 42.1435 189.815 42.2677C190.162 42.4485 190.542 42.5539 190.932 42.5768C191.219 42.573 191.372 42.5507 191.376 42.5693Z" fill="#455A64"/>
<path d="M193.781 63.5858C193.762 63.5858 193.882 63.34 194.019 62.8783C194.206 62.2301 194.289 61.5565 194.265 60.8824C194.238 59.8846 193.966 58.9088 193.472 58.0412C193.2 57.5534 192.787 57.1178 192.448 56.5815C192.269 56.3084 192.142 56.004 192.076 55.6841C192.017 55.3475 192.045 55.0014 192.158 54.6787C192.366 54.0345 192.738 53.4946 192.82 52.9025C192.902 52.3105 192.619 51.7854 192.336 51.2902C192.19 51.0492 192.057 50.8006 191.938 50.5454C191.829 50.298 191.757 50.0357 191.726 49.7672C191.691 49.294 191.706 48.8185 191.77 48.3485C191.889 47.684 191.828 46.9998 191.591 46.3675C191.486 46.1459 191.337 45.9483 191.152 45.7866C191.152 45.7866 191.171 45.7866 191.197 45.8089C191.241 45.8308 191.281 45.8597 191.316 45.8945C191.462 46.0159 191.58 46.167 191.662 46.3377C191.932 46.9755 192.015 47.6763 191.904 48.3596C191.853 48.8209 191.847 49.2861 191.886 49.7486C191.978 50.2688 192.184 50.7623 192.489 51.1934C192.648 51.445 192.784 51.7105 192.895 51.9865C193.012 52.2845 193.051 52.6077 193.007 52.9249C192.917 53.5765 192.534 54.1276 192.34 54.7346C192.238 55.0274 192.211 55.341 192.262 55.6469C192.327 55.9427 192.445 56.2242 192.612 56.4773C192.928 56.9949 193.357 57.438 193.628 57.9481C194.127 58.845 194.394 59.8525 194.403 60.8787C194.415 61.5656 194.309 62.2494 194.09 62.9007C194.031 63.0769 193.958 63.2486 193.874 63.4145C193.851 63.4758 193.82 63.5334 193.781 63.5858Z" fill="#455A64"/>
<path d="M178.614 132.969C178.614 132.969 176.105 109.197 175.959 100.413C175.814 91.6289 179.91 82.9602 179.91 82.9602L195.952 82.2936C195.952 82.2936 199.124 91.2044 199.18 94.9542C199.292 102.23 197.248 109.413 197.482 115.185L198.019 132.984" fill="#263238"/>
<path d="M198.558 103.742C198.475 103.815 198.386 103.882 198.294 103.943L198.149 104.044L197.992 104.196C197.855 104.316 197.73 104.449 197.62 104.595C197.103 105.228 196.726 106.364 196.365 107.775C196.181 108.558 195.908 109.317 195.553 110.039C195.446 110.237 195.321 110.425 195.181 110.601C195.114 110.691 195.051 110.787 194.973 110.873L194.727 111.119C194.375 111.448 193.966 111.71 193.52 111.893C192.623 112.288 191.606 112.474 190.683 112.94C189.737 113.449 189.006 114.282 188.624 115.286C188.169 116.295 187.879 117.352 187.507 118.343C187.134 119.333 186.632 120.279 185.831 120.882C185.065 121.414 184.156 121.701 183.224 121.705C182.36 121.757 181.56 121.731 180.841 121.839C180.194 121.906 179.576 122.14 179.046 122.517C178.659 122.82 178.37 123.229 178.212 123.694C178.112 123.987 178.091 124.302 178.149 124.606C178.194 124.815 178.249 124.915 178.238 124.919C178.178 124.825 178.136 124.722 178.112 124.613C178.033 124.303 178.043 123.976 178.141 123.671C178.289 123.183 178.581 122.751 178.979 122.431C179.522 122.022 180.165 121.765 180.841 121.687C181.586 121.568 182.379 121.582 183.232 121.527C184.137 121.521 185.018 121.24 185.76 120.722C186.513 120.065 187.068 119.211 187.365 118.257C187.737 117.278 188.009 116.217 188.482 115.189C188.883 114.143 189.647 113.278 190.634 112.75C191.595 112.273 192.612 112.091 193.487 111.711C193.915 111.534 194.309 111.281 194.649 110.966L194.883 110.732C194.958 110.65 195.021 110.557 195.088 110.471C195.219 110.302 195.335 110.121 195.434 109.931C195.791 109.219 196.067 108.47 196.257 107.697C196.63 106.289 197.036 105.139 197.583 104.502C197.692 104.357 197.817 104.224 197.955 104.107C198.015 104.055 198.067 104.003 198.119 103.962L198.272 103.865C198.365 103.818 198.461 103.777 198.558 103.742Z" fill="#FAFAFA"/>
<path d="M198.655 92.7423C198.672 92.8469 198.68 92.9529 198.678 93.0588C198.677 93.3663 198.639 93.6725 198.566 93.9711C198.245 95.0604 197.615 96.0332 196.753 96.7713C196.183 97.2949 195.559 97.7556 194.891 98.1454C194.172 98.5699 193.379 98.9758 192.563 99.4375C191.707 99.8968 190.909 100.458 190.188 101.109C189.448 101.844 188.838 102.699 188.385 103.638C187.929 104.59 187.407 105.509 186.825 106.39C186.529 106.8 186.187 107.175 185.805 107.507C185.428 107.827 185.014 108.101 184.572 108.322C183.772 108.715 182.939 109.036 182.081 109.279C181.284 109.525 180.54 109.745 179.892 110.024C179.304 110.258 178.744 110.558 178.223 110.918C177.832 111.189 177.48 111.514 177.177 111.882C176.924 112.201 176.712 112.552 176.548 112.925C176.574 112.822 176.609 112.721 176.652 112.623C176.774 112.342 176.93 112.077 177.117 111.834C177.415 111.45 177.766 111.111 178.16 110.828C178.683 110.456 179.246 110.143 179.84 109.897C180.557 109.605 181.289 109.35 182.033 109.134C182.878 108.885 183.7 108.563 184.49 108.173C184.91 107.955 185.303 107.69 185.663 107.384C186.031 107.057 186.361 106.689 186.646 106.289C187.221 105.413 187.737 104.5 188.192 103.556C188.659 102.596 189.289 101.724 190.054 100.979C190.788 100.318 191.601 99.7503 192.474 99.2886C193.293 98.8306 194.086 98.4321 194.805 98.0113C195.471 97.6345 196.095 97.1876 196.667 96.6783C197.522 95.9622 198.158 95.0184 198.499 93.9562C198.595 93.5584 198.647 93.1514 198.655 92.7423Z" fill="#FAFAFA"/>
<path d="M176.041 101.657C176.027 101.634 176.015 101.609 176.008 101.582C175.98 101.511 175.956 101.437 175.937 101.363C175.873 101.066 175.886 100.759 175.974 100.469C176.183 99.7243 177.006 98.7673 178.331 98.2944C178.994 98.0672 179.743 97.922 180.525 97.7284C181.174 97.6208 181.788 97.3595 182.316 96.9663C182.844 96.5731 183.27 96.0594 183.559 95.4681C183.771 95.0341 183.957 94.5877 184.114 94.1313C184.405 93.1401 184.801 92.1827 185.295 91.2752C185.86 90.3832 186.719 89.7158 187.723 89.3873C188.636 89.091 189.568 88.8547 190.512 88.6798C191.354 88.518 192.17 88.2398 192.936 87.8531C193.584 87.4826 194.144 86.9741 194.574 86.3637C195.21 85.4823 195.573 84.4334 195.617 83.3475C195.618 82.9489 195.592 82.5508 195.539 82.1559C195.651 82.5427 195.703 82.9448 195.691 83.3475C195.677 84.4569 195.326 85.5358 194.686 86.4419C194.25 87.0725 193.679 87.5979 193.014 87.9797C192.238 88.3808 191.409 88.6704 190.553 88.8399C189.617 89.0175 188.694 89.255 187.79 89.5511C186.826 89.8669 186.002 90.508 185.459 91.3646C184.973 92.2597 184.582 93.2032 184.293 94.1797C184.132 94.6444 183.942 95.0983 183.723 95.5388C183.503 95.962 183.222 96.3509 182.889 96.6932C182.235 97.2896 181.43 97.6953 180.562 97.8661C179.772 98.0672 179.028 98.1938 178.376 98.4098C177.084 98.8492 176.265 99.7541 176.045 100.476C175.955 100.755 175.931 101.051 175.974 101.34C176.006 101.444 176.028 101.55 176.041 101.657Z" fill="#FAFAFA"/>
<path d="M197.278 121.765C197.293 121.842 197.301 121.921 197.304 121.999C197.311 122.225 197.287 122.45 197.233 122.67C196.999 123.477 196.504 124.184 195.825 124.68C195.372 125.041 194.871 125.337 194.336 125.559C193.766 125.801 193.137 125.995 192.474 126.2C191.786 126.401 191.113 126.65 190.459 126.944C189.781 127.269 189.172 127.723 188.668 128.281C188.125 128.847 187.656 129.469 187.134 130.02C186.636 130.554 186.056 131.006 185.418 131.361C184.331 131.954 183.115 132.271 181.876 132.284C181.047 132.293 180.223 132.156 179.441 131.878C179.229 131.805 179.022 131.717 178.823 131.614C178.75 131.584 178.682 131.545 178.618 131.499C178.693 131.519 178.767 131.545 178.838 131.577C179.042 131.664 179.251 131.741 179.463 131.808C180.244 132.052 181.059 132.167 181.876 132.146C183.087 132.115 184.273 131.792 185.332 131.204C185.951 130.854 186.512 130.411 186.996 129.89C187.507 129.346 187.972 128.728 188.527 128.147C189.061 127.568 189.703 127.1 190.419 126.769C191.082 126.473 191.765 126.224 192.463 126.025C193.118 125.824 193.744 125.652 194.325 125.407C194.844 125.194 195.333 124.912 195.777 124.569C196.444 124.097 196.942 123.424 197.196 122.647C197.251 122.356 197.278 122.061 197.278 121.765Z" fill="#FAFAFA"/>
<path d="M195.449 72.411L192.344 72.4855C192.224 73.1117 191.987 73.7094 191.644 74.2468C189.037 69.7411 187.037 63.7087 186.538 61.2846C186.613 61.0426 186.699 60.7745 186.807 60.4766C186.884 60.0241 186.87 59.5607 186.766 59.1137C186.676 58.5738 186.527 57.8476 186.483 57.5125C186.345 56.4848 186.177 56.3247 185.82 56.4401C185.336 56.6002 186.021 59.3185 185.622 59.3781C185.406 59.4079 185.146 58.477 185.071 57.7136C184.997 56.9502 184.647 54.5969 184.397 54.4405C184.025 54.2096 183.701 54.5745 183.798 55.3342C183.895 56.0938 184.01 58.4025 183.608 58.436C183.206 58.4695 182.863 54.5671 182.863 54.5671C182.863 54.5671 182.926 53.7181 182.457 53.7367C181.616 53.7739 182.275 57.8849 182.346 58.2759C182.398 58.544 181.973 58.5961 181.921 58.3019C181.869 58.0078 181.675 54.4032 180.804 54.433C180.141 54.433 181.314 57.8179 180.942 58.5998C180.569 59.3818 180.316 55.9486 179.687 55.9932C179.452 56.0119 179.277 56.0566 179.709 57.9966C180.123 59.538 180.62 61.0558 181.199 62.5432C182.197 67.924 186.576 85.1386 193.438 81.9884C197.281 80.2233 198.838 72.411 198.838 72.411H195.449Z" fill="#B78876"/>
<path d="M182.211 58.5365C182.241 58.5439 182.272 58.5439 182.301 58.5365C182.346 58.5227 182.384 58.4935 182.41 58.4539C182.435 58.4143 182.445 58.367 182.439 58.3205C182.439 58.0896 182.394 57.7545 182.342 57.3188C182.255 56.7937 182.197 56.2641 182.171 55.7325C182.171 55.4197 182.171 55.0846 182.189 54.7309C182.195 54.551 182.213 54.3718 182.245 54.1946C182.275 54.0271 182.387 53.8223 182.517 53.8558H182.539C182.67 53.8558 182.774 53.9526 182.815 54.109C182.861 54.2711 182.878 54.4399 182.867 54.608C182.944 55.6508 183.077 56.6888 183.265 57.7173C183.295 57.855 183.325 57.9965 183.37 58.138C183.389 58.2104 183.414 58.2814 183.444 58.3503C183.463 58.3886 183.484 58.4259 183.507 58.462C183.524 58.4892 183.547 58.5121 183.574 58.529C183.601 58.5458 183.632 58.556 183.664 58.5588C183.718 58.5528 183.769 58.5309 183.811 58.4958C183.853 58.4606 183.883 58.4139 183.898 58.3615C183.93 58.2886 183.954 58.2124 183.969 58.1343C183.998 57.9842 184.018 57.8325 184.029 57.68C184.063 57.0595 184.054 56.4375 184.003 55.8182C183.955 55.509 183.943 55.1955 183.965 54.8835C183.979 54.7488 184.044 54.6246 184.148 54.5372C184.172 54.523 184.198 54.514 184.226 54.5108C184.253 54.5076 184.281 54.5103 184.308 54.5186C184.34 54.5262 184.37 54.5388 184.397 54.5558C184.416 54.57 184.43 54.5894 184.438 54.6117C184.556 54.9137 184.642 55.2268 184.695 55.5463C184.762 55.874 184.818 56.2129 184.87 56.5517C184.922 56.8906 184.971 57.2332 185.012 57.5795C185.044 57.9368 185.101 58.2915 185.183 58.6407C185.227 58.8193 185.283 58.9947 185.351 59.1658C185.389 59.2615 185.441 59.3507 185.507 59.4302C185.532 59.4632 185.566 59.4884 185.605 59.5029C185.644 59.5174 185.686 59.5206 185.727 59.5121C185.764 59.4996 185.798 59.4777 185.825 59.4483C185.852 59.419 185.87 59.3832 185.879 59.3445C185.923 59.1542 185.937 58.9582 185.92 58.7636C185.92 58.5774 185.898 58.3912 185.879 58.2125C185.853 57.8997 185.823 57.5906 185.812 57.2853C185.803 57.1353 185.803 56.9848 185.812 56.8347C185.82 56.7683 185.836 56.7032 185.861 56.6411C185.868 56.6206 185.88 56.6017 185.894 56.5853H185.943C186.188 56.4847 186.27 56.8273 186.337 57.1028C186.404 57.3784 186.43 57.6912 186.49 57.9854C186.587 58.57 186.713 59.1546 186.777 59.7132C186.82 59.9806 186.81 60.2539 186.747 60.5175C186.658 60.7856 186.568 61.05 186.483 61.3143V61.3404V61.3627C186.919 63.1921 187.475 64.9908 188.147 66.7472C188.735 68.3372 189.327 69.7262 189.845 70.8433C190.363 71.9604 190.832 72.8354 191.152 73.4238L191.524 74.0903C191.565 74.1698 191.613 74.2447 191.67 74.3138C191.638 74.2311 191.6 74.1513 191.554 74.0754L191.182 73.394C190.877 72.7945 190.437 71.9045 189.931 70.7874C189.424 69.6703 188.851 68.2814 188.277 66.6914C187.621 64.9376 187.076 63.1442 186.646 61.3218V61.3739C186.732 61.1133 186.818 60.8489 186.907 60.5845C186.985 60.2943 187 59.991 186.952 59.6945C186.885 59.1099 186.762 58.5439 186.665 57.9556C186.609 57.6651 186.572 57.3672 186.512 57.0619C186.509 56.905 186.482 56.7495 186.434 56.6001C186.392 56.5093 186.319 56.4357 186.229 56.3916C186.134 56.3603 186.031 56.3603 185.935 56.3916H185.876C185.844 56.4017 185.815 56.4182 185.79 56.44C185.749 56.4751 185.717 56.5199 185.697 56.5704C185.663 56.651 185.641 56.7364 185.634 56.8236C185.622 56.9847 185.622 57.1465 185.634 57.3076C185.634 57.6204 185.678 57.9332 185.704 58.246C185.704 58.4285 185.734 58.6184 185.742 58.786C185.756 58.9539 185.748 59.1231 185.716 59.2887C185.716 59.3259 185.686 59.3184 185.716 59.3371L185.693 59.3147C185.646 59.2539 185.608 59.186 185.581 59.1136C185.516 58.9526 185.463 58.7871 185.421 58.6184C185.34 58.2793 185.284 57.9345 185.254 57.5869C185.214 57.2369 185.166 56.8906 185.109 56.548C185.056 56.2054 184.997 55.8703 184.93 55.5352C184.874 55.1941 184.779 54.8605 184.647 54.5409C184.621 54.4876 184.581 54.4424 184.531 54.4106C184.488 54.3855 184.442 54.3655 184.394 54.351C184.341 54.3371 184.285 54.3339 184.231 54.3415C184.177 54.3492 184.124 54.3676 184.077 54.3957C184 54.4531 183.936 54.5257 183.889 54.609C183.841 54.6923 183.812 54.7845 183.802 54.8798C183.777 55.049 183.777 55.2208 183.802 55.3899C183.802 55.5501 183.839 55.7065 183.85 55.8629C183.902 56.4721 183.913 57.0842 183.883 57.6949C183.875 57.84 183.856 57.9843 183.828 58.1269C183.817 58.1934 183.798 58.2585 183.772 58.3205C183.762 58.345 183.748 58.3677 183.731 58.3875C183.731 58.421 183.705 58.3875 183.708 58.4322C183.708 58.395 183.708 58.4322 183.708 58.3838C183.692 58.3587 183.677 58.3325 183.664 58.3056C183.638 58.246 183.615 58.179 183.593 58.1157C183.552 57.9816 183.522 57.8439 183.492 57.7098C183.298 56.6902 183.158 55.661 183.072 54.6266C183.083 54.4394 183.061 54.2516 183.008 54.0718C182.984 53.9779 182.933 53.8928 182.863 53.826C182.827 53.7908 182.783 53.7634 182.736 53.7455C182.689 53.7275 182.638 53.7195 182.588 53.7217H182.61C182.547 53.7125 182.483 53.7221 182.425 53.7492C182.367 53.7764 182.319 53.8199 182.286 53.8744C182.231 53.9632 182.193 54.0618 182.174 54.1649C182.143 54.3495 182.126 54.5362 182.122 54.7234C182.122 55.0958 182.122 55.4197 182.122 55.7362C182.157 56.2712 182.226 56.8035 182.327 57.33C182.39 57.7619 182.439 58.0971 182.461 58.3242C182.468 58.364 182.461 58.405 182.442 58.4403C182.422 58.4756 182.391 58.503 182.353 58.5178C182.241 58.529 182.208 58.5327 182.211 58.5365Z" fill="#A36957"/>
<path d="M157.959 77.5385C157.232 77.523 156.507 77.6069 155.803 77.788C153.878 78.2944 150.56 80.3052 150.422 82.7889H152.835C152.835 82.7889 151.484 85.6636 151.878 85.3955C152.91 84.7029 154.958 82.6213 154.958 82.6213L157.959 77.5385Z" fill="#B78876"/>
<path d="M190.85 34.258C190.795 34.258 190.579 32.2696 190.363 29.7896C190.147 27.3096 190.013 25.3212 190.065 25.3212C190.117 25.3212 190.337 27.3096 190.553 29.7896C190.769 32.2696 190.903 34.258 190.85 34.258Z" fill="#263238"/>
<path d="M201.429 25.4737C201.47 25.5035 199.843 27.8681 197.791 30.7539C195.74 33.6398 194.038 35.9671 193.993 35.9224C193.949 35.8777 195.58 33.5281 197.631 30.6422C199.683 27.7564 201.385 25.4439 201.429 25.4737Z" fill="#263238"/>
<path d="M205.823 36.1907C205.823 36.2428 203.932 36.6785 201.578 37.1626C199.225 37.6467 197.304 37.9967 197.292 37.9446C197.281 37.8924 199.18 37.4567 201.537 36.9727C203.895 36.4886 205.797 36.1386 205.823 36.1907Z" fill="#263238"/>
<path d="M79.1918 87.3356L66.0099 155.032L64.297 163.895L152.176 163.47C156.123 163.452 159.624 159.948 160.886 154.742L176.473 90.8321C177.438 86.8813 175.323 82.7703 172.329 82.7741L83.3623 82.8671C81.426 82.8634 79.6908 84.6955 79.1918 87.3356Z" fill="#FBA0B1"/>
<g opacity="0.5">
<path d="M79.1918 87.3356L66.0099 155.032L64.297 163.895L152.176 163.47C156.123 163.452 159.624 159.948 160.886 154.742L176.473 90.8321C177.438 86.8813 175.323 82.7703 172.329 82.7741L83.3623 82.8671C81.426 82.8634 79.6908 84.6955 79.1918 87.3356Z" fill="black"/>
</g>
<path d="M143.757 150.437L134.448 75.4383C134.075 72.3662 131.621 70.0724 128.728 70.0836L108.322 70.1469C107.564 70.1554 106.815 70.3183 106.122 70.6256C105.429 70.9329 104.805 71.3782 104.289 71.9343L94.6079 82.2377L37.8588 82.5431C34.392 82.5617 31.7259 85.846 32.1839 89.5324L40.8266 158.849C41.1989 161.917 43.6529 164.207 46.5387 164.204L145.459 164.006C156.473 164.233 157.527 160.983 157.527 160.983C144.881 163.779 143.757 150.456 143.757 150.437Z" fill="#FBA0B1"/>
<g opacity="0.5">
<path d="M101.102 135.438L97.7656 139.02L72.0721 115.904L75.4085 112.321L101.102 135.438Z" fill="white"/>
<path d="M96.3692 111.528L100.056 114.846L76.8086 139.813L73.1184 136.496L96.3692 111.528Z" fill="white"/>
</g>
<path d="M157.881 38.6445C157.76 38.5937 157.657 38.5097 157.582 38.4022C157.508 38.2947 157.465 38.1682 157.46 38.0376L157.311 34.582C157.306 34.4746 157.326 34.3675 157.369 34.2691C157.412 34.1707 157.478 34.0837 157.561 34.0151C157.643 33.9464 157.741 33.898 157.846 33.8736C157.95 33.8492 158.059 33.8495 158.164 33.8745C158.452 33.9367 158.75 33.9394 159.04 33.8824C159.329 33.8254 159.604 33.7099 159.847 33.5431C160.071 33.4013 160.263 33.2152 160.413 32.9961C160.562 32.7771 160.665 32.5298 160.715 32.2696C160.748 32.006 160.729 31.7384 160.657 31.4825C160.586 31.2267 160.463 30.9878 160.298 30.7801C160.123 30.5437 159.904 30.3441 159.652 30.1927C159.4 30.0413 159.121 29.941 158.83 29.8976C158.245 29.865 157.665 30.0311 157.185 30.369C156.705 30.7069 156.353 31.1968 156.187 31.7594C156.131 31.9299 156.012 32.0723 155.854 32.1571C155.696 32.2418 155.511 32.2623 155.338 32.2143C155.165 32.1664 155.018 32.0536 154.926 31.8994C154.835 31.7453 154.806 31.5618 154.846 31.387C155.099 30.5021 155.65 29.7313 156.405 29.2044C157.159 28.6775 158.073 28.4265 158.991 28.4937C159.468 28.5574 159.929 28.7164 160.344 28.9614C160.759 29.2064 161.121 29.5324 161.407 29.9199C161.686 30.2791 161.89 30.6905 162.007 31.1299C162.124 31.5693 162.152 32.0278 162.089 32.4781C162.004 32.9277 161.828 33.3553 161.572 33.7344C161.316 34.1136 160.985 34.4362 160.599 34.6825C160.041 35.0586 159.388 35.2714 158.715 35.2969L158.83 37.9631C158.835 38.0802 158.809 38.1966 158.757 38.3013C158.704 38.4061 158.626 38.4958 158.529 38.5623C158.433 38.6288 158.321 38.6698 158.205 38.6816C158.088 38.6933 157.97 38.6755 157.862 38.6296L157.881 38.6445Z" fill="#FBA0B1"/>
<path d="M158.901 40.0595C158.909 40.172 158.883 40.2842 158.827 40.3821C158.771 40.4799 158.688 40.5589 158.587 40.6092C158.486 40.6594 158.372 40.6786 158.26 40.6643C158.149 40.6499 158.044 40.6028 157.959 40.5287C157.874 40.4547 157.812 40.3571 157.783 40.2483C157.753 40.1395 157.757 40.0244 157.793 39.9176C157.829 39.8107 157.896 39.7169 157.985 39.6481C158.074 39.5792 158.182 39.5384 158.294 39.5307C158.369 39.5252 158.444 39.5345 158.515 39.5581C158.586 39.5817 158.652 39.6192 158.708 39.6684C158.765 39.7176 158.811 39.7775 158.844 39.8446C158.877 39.9117 158.896 39.9848 158.901 40.0595Z" fill="#FBA0B1"/>
<path d="M145.917 33.7702C145.933 33.6965 145.944 33.6219 145.95 33.5468C145.95 33.3829 145.991 33.1744 146.021 32.8802C146.058 32.519 146.118 32.1608 146.203 31.8078C146.252 31.5993 146.278 31.3684 146.352 31.1338C146.427 30.8992 146.501 30.646 146.583 30.3891C147.014 29.116 147.643 27.9186 148.445 26.8404C149.497 25.4442 150.83 24.2847 152.359 23.4369C153.229 22.9464 154.155 22.5637 155.118 22.2975C156.157 22.0221 157.227 21.8819 158.302 21.8804C158.868 21.8713 159.434 21.9012 159.996 21.9698C160.283 21.9996 160.566 22.0741 160.852 22.1225C161.142 22.1721 161.428 22.2418 161.709 22.331C162.883 22.659 163.999 23.1651 165.019 23.8316C167.288 25.303 169.016 27.4727 169.942 30.013C170.441 31.3737 170.693 32.8125 170.687 34.2617C170.702 35.7547 170.438 37.2374 169.908 38.6333L169.741 39.0578L169.718 39.1137L169.741 39.1695C170.675 41.3181 171.603 43.4294 172.478 45.4737L172.634 45.295L167.049 43.1539L166.982 43.1278L166.926 43.18C165.448 44.6116 163.639 45.6555 161.66 46.2185C159.97 46.684 158.199 46.7856 156.466 46.5167C154.733 46.2477 153.077 45.6143 151.606 44.6583C150.402 43.8686 149.341 42.8801 148.467 41.7352C147.202 40.0639 146.382 38.0983 146.084 36.023C146.04 35.6506 146.002 35.3379 145.969 35.0549C145.935 34.7719 145.969 34.541 145.95 34.3436C145.932 34.1463 145.95 34.0159 145.95 33.908C145.969 33.9051 145.986 33.8954 145.997 33.8807C146.009 33.866 146.015 33.8475 146.013 33.8287C146.012 33.81 146.003 33.7925 145.99 33.7797C145.976 33.7669 145.958 33.7598 145.939 33.7598C145.92 33.7598 145.902 33.7669 145.888 33.7797C145.875 33.7925 145.866 33.81 145.865 33.8287C145.863 33.8475 145.869 33.866 145.881 33.8807C145.892 33.8954 145.909 33.9051 145.928 33.908C145.928 34.0159 145.928 34.1612 145.928 34.3436C145.928 34.5261 145.928 34.7793 145.928 35.0623C145.928 35.3453 145.991 35.6693 146.028 36.0379C146.151 36.9336 146.364 37.8144 146.665 38.6668C147.091 39.7925 147.665 40.8568 148.371 41.832C149.247 42.9974 150.317 44.0048 151.532 44.8109C153.02 45.7909 154.7 46.4431 156.46 46.7243C158.22 47.0055 160.019 46.9092 161.739 46.4419C163.741 45.8731 165.573 44.8192 167.071 43.3736L166.948 43.3997L172.534 45.5519L172.813 45.6599L172.69 45.3732C171.804 43.3289 170.888 41.2213 169.957 39.069V39.177L170.128 38.7413C170.671 37.3149 170.942 35.7991 170.925 34.2729C170.937 32.7928 170.684 31.3226 170.18 29.931C169.234 27.3402 167.468 25.1292 165.15 23.6343C164.104 22.9522 162.958 22.4371 161.753 22.1076C161.469 22.0174 161.177 21.9489 160.882 21.9028C160.592 21.8506 160.305 21.7762 160.015 21.7501C159.445 21.6794 158.872 21.6471 158.298 21.6533C157.206 21.6579 156.119 21.8056 155.066 22.0927C154.09 22.3697 153.152 22.7622 152.269 23.2619C150.725 24.1305 149.384 25.3172 148.333 26.7436C147.533 27.8396 146.914 29.0565 146.498 30.3481C146.419 30.6162 146.345 30.8731 146.278 31.0928C146.219 31.3173 146.171 31.5448 146.136 31.7743C146.056 32.1297 146.004 32.4907 145.98 32.8542C145.958 33.1409 145.943 33.3606 145.932 33.5244C145.916 33.6053 145.911 33.688 145.917 33.7702Z" fill="#263238"/>
</svg>
