<svg width="10" height="10" viewBox="0 0 10 10" fill="none" xmlns="http://www.w3.org/2000/svg">
<rect width="10" height="10" rx="5" fill="#F0AF09"/>
<path d="M5 2C5.06567 1.99998 5.13069 2.0129 5.19136 2.03803C5.25203 2.06315 5.30716 2.09998 5.35359 2.14641C5.40002 2.19284 5.43685 2.24797 5.46197 2.30864C5.4871 2.36931 5.50002 2.43433 5.5 2.5V4.5H6.5C6.63261 4.5 6.75978 4.55268 6.85355 4.64645C6.94732 4.74021 7 4.86739 7 5C7 5.13261 6.94732 5.25978 6.85355 5.35355C6.75978 5.44732 6.63261 5.5 6.5 5.5H5C4.93433 5.50002 4.86931 5.48709 4.80864 5.46197C4.74797 5.43685 4.69284 5.40002 4.64641 5.35359C4.59998 5.30716 4.56315 5.25203 4.53803 5.19136C4.5129 5.13069 4.49998 5.06566 4.5 5V2.5C4.49998 2.43433 4.5129 2.36931 4.53803 2.30864C4.56315 2.24797 4.59998 2.19284 4.64641 2.14641C4.69284 2.09998 4.74797 2.06315 4.80864 2.03803C4.86931 2.0129 4.93433 1.99998 5 2V2Z" fill="white"/>
<path d="M0 5C0 5.9889 0.293245 6.9556 0.842652 7.77785C1.39206 8.60009 2.17295 9.24096 3.08658 9.6194C4.00021 9.99783 5.00554 10.0968 5.97545 9.90392C6.94535 9.711 7.83627 9.23479 8.53553 8.53553C9.23479 7.83627 9.711 6.94535 9.90392 5.97545C10.0968 5.00554 9.99783 4.00021 9.6194 3.08658C9.24096 2.17295 8.60009 1.39206 7.77785 0.842652C6.9556 0.293245 5.9889 0 5 0C4.34339 0 3.69321 0.129329 3.08658 0.380602C2.47995 0.631876 1.92876 1.00017 1.46447 1.46447C0.526784 2.40215 0 3.67392 0 5V5ZM4.5 2.5C4.5 2.36739 4.55268 2.24021 4.64645 2.14645C4.74021 2.05268 4.86739 2 5 2C5.13261 2 5.25978 2.05268 5.35355 2.14645C5.44732 2.24021 5.5 2.36739 5.5 2.5V4.5H6.5C6.63261 4.5 6.75978 4.55268 6.85355 4.64645C6.94732 4.74021 7 4.86739 7 5C7 5.13261 6.94732 5.25978 6.85355 5.35355C6.75978 5.44732 6.63261 5.5 6.5 5.5H5C4.93433 5.50002 4.86931 5.48709 4.80864 5.46197C4.74797 5.43685 4.69284 5.40002 4.64641 5.35359C4.59997 5.30716 4.56315 5.25203 4.53802 5.19136C4.5129 5.13069 4.49998 5.06566 4.5 5V2.5Z" fill="#F0AF09"/>
</svg>
