<svg width="32" height="32" viewBox="0 0 32 32" fill="none" xmlns="http://www.w3.org/2000/svg">
<circle opacity="0.25" cx="16" cy="16" r="16" fill="#ED6B4F"/>
<path d="M16 10C16.1313 9.99997 16.2614 10.0258 16.3827 10.0761C16.5041 10.1263 16.6143 10.2 16.7072 10.2928C16.8 10.3857 16.8737 10.4959 16.9239 10.6173C16.9742 10.7386 17 10.8687 17 11V15H19C19.2652 15 19.5196 15.1054 19.7071 15.2929C19.8946 15.4804 20 15.7348 20 16C20 16.2652 19.8946 16.5196 19.7071 16.7071C19.5196 16.8946 19.2652 17 19 17H16C15.8687 17 15.7386 16.9742 15.6173 16.9239C15.4959 16.8737 15.3857 16.8 15.2928 16.7072C15.2 16.6143 15.1263 16.5041 15.0761 16.3827C15.0258 16.2614 15 16.1313 15 16V11C15 10.8687 15.0258 10.7386 15.0761 10.6173C15.1263 10.4959 15.2 10.3857 15.2928 10.2928C15.3857 10.2 15.4959 10.1263 15.6173 10.0761C15.7386 10.0258 15.8687 9.99997 16 10Z" fill="#ED6B4F"/>
<path d="M6 16C6 17.9778 6.58649 19.9112 7.6853 21.5557C8.78412 23.2002 10.3459 24.4819 12.1732 25.2388C14.0004 25.9957 16.0111 26.1937 17.9509 25.8079C19.8907 25.422 21.6725 24.4696 23.0711 23.0711C24.4696 21.6725 25.422 19.8907 25.8079 17.9509C26.1937 16.0111 25.9957 14.0004 25.2388 12.1732C24.4819 10.3459 23.2002 8.78412 21.5557 7.6853C19.9112 6.58649 17.9778 6 16 6C14.6868 6 13.3864 6.25866 12.1732 6.7612C10.9599 7.26375 9.85752 8.00035 8.92893 8.92893C7.05357 10.8043 6 13.3478 6 16ZM15 11C15 10.7348 15.1054 10.4804 15.2929 10.2929C15.4804 10.1054 15.7348 10 16 10C16.2652 10 16.5196 10.1054 16.7071 10.2929C16.8946 10.4804 17 10.7348 17 11V15H19C19.2652 15 19.5196 15.1054 19.7071 15.2929C19.8946 15.4804 20 15.7348 20 16C20 16.2652 19.8946 16.5196 19.7071 16.7071C19.5196 16.8946 19.2652 17 19 17H16C15.8687 17 15.7386 16.9742 15.6173 16.9239C15.4959 16.8737 15.3857 16.8 15.2928 16.7072C15.2 16.6143 15.1263 16.5041 15.0761 16.3827C15.0258 16.2614 15 16.1313 15 16V11Z" fill="#ED6B4F"/>
<path d="M15.2929 11.2929C15.4804 11.1054 15.7348 11 16 11C16.2652 11 16.5196 11.1054 16.7071 11.2929C16.8947 11.4804 17 11.7348 17 12V16C17 16.2652 16.8947 16.5196 16.7071 16.7071C16.5196 16.8946 16.2652 17 16 17C15.7348 17 15.4804 16.8946 15.2929 16.7071C15.1054 16.5196 15 16.2652 15 16V12C15 11.7348 15.1054 11.4804 15.2929 11.2929Z" fill="white"/>
<path d="M16.83 19.44C16.8679 19.4957 16.8981 19.5563 16.92 19.62C16.9558 19.6755 16.9828 19.7362 17 19.8C17.0049 19.8666 17.0049 19.9334 17 20C16.9984 20.1307 16.9713 20.2598 16.92 20.38C16.8751 20.5041 16.8035 20.6168 16.7101 20.7101C16.6168 20.8034 16.5041 20.8751 16.38 20.92C16.2603 20.9729 16.1309 21.0002 16 21.0002C15.8691 21.0002 15.7397 20.9729 15.62 20.92C15.4959 20.8751 15.3832 20.8034 15.2899 20.7101C15.1966 20.6168 15.1249 20.5041 15.08 20.38C15.0288 20.2598 15.0016 20.1307 15 20C14.9993 19.8684 15.0245 19.7379 15.0742 19.6161C15.124 19.4943 15.1973 19.3834 15.29 19.29C15.3872 19.2017 15.4988 19.1306 15.62 19.08C15.8021 19.0034 16.0028 18.9825 16.1968 19.0199C16.3908 19.0572 16.5694 19.1512 16.71 19.29L16.83 19.44Z" fill="white"/>
</svg>
