<svg width="32" height="32" viewBox="0 0 32 32" fill="none" xmlns="http://www.w3.org/2000/svg">
<circle opacity="0.25" cx="16" cy="16" r="16" fill="#F0AF09"/>
<path d="M16 10C16.1313 9.99997 16.2614 10.0258 16.3827 10.0761C16.5041 10.1263 16.6143 10.2 16.7072 10.2928C16.8 10.3857 16.8737 10.4959 16.9239 10.6173C16.9742 10.7386 17 10.8687 17 11V15H19C19.2652 15 19.5196 15.1054 19.7071 15.2929C19.8946 15.4804 20 15.7348 20 16C20 16.2652 19.8946 16.5196 19.7071 16.7071C19.5196 16.8946 19.2652 17 19 17H16C15.8687 17 15.7386 16.9742 15.6173 16.9239C15.4959 16.8737 15.3857 16.8 15.2928 16.7072C15.2 16.6143 15.1263 16.5041 15.0761 16.3827C15.0258 16.2614 15 16.1313 15 16V11C15 10.8687 15.0258 10.7386 15.0761 10.6173C15.1263 10.4959 15.2 10.3857 15.2928 10.2928C15.3857 10.2 15.4959 10.1263 15.6173 10.0761C15.7386 10.0258 15.8687 9.99997 16 10Z" fill="white"/>
<path d="M6 16C6 17.9778 6.58649 19.9112 7.6853 21.5557C8.78412 23.2002 10.3459 24.4819 12.1732 25.2388C14.0004 25.9957 16.0111 26.1937 17.9509 25.8079C19.8907 25.422 21.6725 24.4696 23.0711 23.0711C24.4696 21.6725 25.422 19.8907 25.8079 17.9509C26.1937 16.0111 25.9957 14.0004 25.2388 12.1732C24.4819 10.3459 23.2002 8.78412 21.5557 7.6853C19.9112 6.58649 17.9778 6 16 6C14.6868 6 13.3864 6.25866 12.1732 6.7612C10.9599 7.26375 9.85752 8.00035 8.92893 8.92893C7.05357 10.8043 6 13.3478 6 16ZM15 11C15 10.7348 15.1054 10.4804 15.2929 10.2929C15.4804 10.1054 15.7348 10 16 10C16.2652 10 16.5196 10.1054 16.7071 10.2929C16.8946 10.4804 17 10.7348 17 11V15H19C19.2652 15 19.5196 15.1054 19.7071 15.2929C19.8946 15.4804 20 15.7348 20 16C20 16.2652 19.8946 16.5196 19.7071 16.7071C19.5196 16.8946 19.2652 17 19 17H16C15.8687 17 15.7386 16.9742 15.6173 16.9239C15.4959 16.8737 15.3857 16.8 15.2928 16.7072C15.2 16.6143 15.1263 16.5041 15.0761 16.3827C15.0258 16.2614 15 16.1313 15 16V11Z" fill="#F0AF09"/>
</svg>
