<svg width="20" height="20" viewBox="0 0 20 20" fill="none" xmlns="http://www.w3.org/2000/svg">
<path d="M6.90833 11.075C6.83023 11.1524 6.76823 11.2446 6.72592 11.3461C6.68362 11.4477 6.66183 11.5566 6.66183 11.6666C6.66183 11.7766 6.68362 11.8856 6.72592 11.9871C6.76823 12.0887 6.83023 12.1808 6.90833 12.2583L9.40833 14.7583C9.4858 14.8364 9.57797 14.8984 9.67952 14.9407C9.78107 14.983 9.88999 15.0048 10 15.0048C10.11 15.0048 10.2189 14.983 10.3205 14.9407C10.422 14.8984 10.5142 14.8364 10.5917 14.7583L13.0917 12.2583C13.2486 12.1014 13.3367 11.8885 13.3367 11.6666C13.3367 11.4447 13.2486 11.2319 13.0917 11.075C12.9347 10.918 12.7219 10.8299 12.5 10.8299C12.2781 10.8299 12.0653 10.918 11.9083 11.075L10.8333 12.1583V2.49996C10.8333 2.27895 10.7455 2.06698 10.5893 1.9107C10.433 1.75442 10.221 1.66663 10 1.66663C9.77899 1.66663 9.56702 1.75442 9.41074 1.9107C9.25446 2.06698 9.16667 2.27895 9.16667 2.49996V12.1583L8.09167 11.075C8.0142 10.9969 7.92203 10.9349 7.82048 10.8926C7.71893 10.8502 7.61001 10.8285 7.5 10.8285C7.38999 10.8285 7.28107 10.8502 7.17952 10.8926C7.07797 10.9349 6.9858 10.9969 6.90833 11.075ZM15 7.49996H13.3333C13.1123 7.49996 12.9004 7.58776 12.7441 7.74404C12.5878 7.90032 12.5 8.11228 12.5 8.33329C12.5 8.55431 12.5878 8.76627 12.7441 8.92255C12.9004 9.07883 13.1123 9.16663 13.3333 9.16663H15C15.221 9.16663 15.433 9.25442 15.5893 9.4107C15.7455 9.56698 15.8333 9.77895 15.8333 9.99996V15.8333C15.8333 16.0543 15.7455 16.2663 15.5893 16.4225C15.433 16.5788 15.221 16.6666 15 16.6666H5C4.77899 16.6666 4.56702 16.5788 4.41074 16.4225C4.25446 16.2663 4.16667 16.0543 4.16667 15.8333V9.99996C4.16667 9.77895 4.25446 9.56698 4.41074 9.4107C4.56702 9.25442 4.77899 9.16663 5 9.16663H6.66667C6.88768 9.16663 7.09964 9.07883 7.25592 8.92255C7.4122 8.76627 7.5 8.55431 7.5 8.33329C7.5 8.11228 7.4122 7.90032 7.25592 7.74404C7.09964 7.58776 6.88768 7.49996 6.66667 7.49996H5C4.33696 7.49996 3.70107 7.76335 3.23223 8.23219C2.76339 8.70103 2.5 9.33692 2.5 9.99996V15.8333C2.5 16.4963 2.76339 17.1322 3.23223 17.6011C3.70107 18.0699 4.33696 18.3333 5 18.3333H15C15.663 18.3333 16.2989 18.0699 16.7678 17.6011C17.2366 17.1322 17.5 16.4963 17.5 15.8333V9.99996C17.5 9.33692 17.2366 8.70103 16.7678 8.23219C16.2989 7.76335 15.663 7.49996 15 7.49996Z" fill="#434E5B"/>
</svg>
