<svg width="64" height="64" viewBox="0 0 64 64" fill="none" xmlns="http://www.w3.org/2000/svg">
<rect width="64" height="64" fill="white"/>
<rect width="64" height="64" fill="#FFCA65"/>
<path fill-rule="evenodd" clip-rule="evenodd" d="M48.1667 32.008H45.9906C45.9971 32.0462 46.0004 32.0852 46.0004 32.1245V35.7415H46.3333V45.0751C46.3333 45.5702 46.1402 46.045 45.7964 46.3951C45.4525 46.7451 44.9862 46.9418 44.5 46.9418C44.0138 46.9418 43.5475 46.7451 43.2036 46.3951C42.8598 46.045 42.6667 45.5702 42.6667 45.0751V35.7415H43.2003V32.4744V32.008H42.6667V15.2075C42.6679 14.8786 42.5838 14.5551 42.4229 14.2699C42.2619 13.9848 42.0298 13.7479 41.75 13.5835C41.4713 13.4196 41.1551 13.3334 40.8333 13.3334C40.5115 13.3334 40.1954 13.4196 39.9167 13.5835L34.6667 16.7942L28.9167 13.5835C28.638 13.4196 28.3218 13.3334 28 13.3334C27.6782 13.3334 27.362 13.4196 27.0833 13.5835L21.3333 16.7942L16.0833 13.5835C15.8046 13.4196 15.4885 13.3334 15.1667 13.3334C14.8449 13.3334 14.5287 13.4196 14.25 13.5835C13.9702 13.7479 13.7381 13.9848 13.5771 14.2699C13.4162 14.5551 13.3321 14.8786 13.3333 15.2075V45.0751C13.3333 46.5603 13.9128 47.9848 14.9443 49.035C15.9757 50.0852 17.3747 50.6752 18.8333 50.6752H44.5C45.9587 50.6752 47.3576 50.0852 48.3891 49.035C49.4205 47.9848 50 46.5603 50 45.0751V33.8747C50 33.3797 49.8068 32.9049 49.463 32.5548C49.1192 32.2047 48.6529 32.008 48.1667 32.008ZM18.7989 46.9415C18.8104 46.9417 18.8219 46.9418 18.8333 46.9418H39.33C39.33 46.9417 39.3299 46.9416 39.3299 46.9415H18.7989Z" fill="white"/>
<path d="M32.0012 29.208H27.3344C27.0869 29.208 26.8494 29.3063 26.6744 29.4813C26.4994 29.6564 26.401 29.8938 26.401 30.1413C26.401 30.3889 26.4994 30.6263 26.6744 30.8013C26.8494 30.9764 27.0869 31.0747 27.3344 31.0747H29.2011C30.3584 31.0735 31.4749 31.5024 32.3338 32.2781C33.1927 33.0539 33.7327 34.121 33.849 35.2725C33.9653 36.424 33.6496 37.5776 32.9632 38.5094C32.2768 39.4412 31.2687 40.0847 30.1345 40.315V41.3417C30.1345 41.8368 29.9378 42.3116 29.5877 42.6616C29.2376 43.0117 28.7628 43.2084 28.2678 43.2084C27.7727 43.2084 27.2979 43.0117 26.9478 42.6616C26.5977 42.3116 26.401 41.8368 26.401 41.3417V40.4083H24.5343C24.0392 40.4083 23.5644 40.2116 23.2143 39.8616C22.8643 39.5115 22.6676 39.0367 22.6676 38.5416C22.6676 38.0465 22.8643 37.5717 23.2143 37.2216C23.5644 36.8715 24.0392 36.6749 24.5343 36.6749H29.2011C29.4487 36.6749 29.6861 36.5765 29.8611 36.4015C30.0361 36.2264 30.1345 35.989 30.1345 35.7415C30.1345 35.494 30.0361 35.2566 29.8611 35.0815C29.6861 34.9065 29.4487 34.8081 29.2011 34.8081H27.3344C26.1771 34.8093 25.0606 34.3804 24.2017 33.6047C23.3428 32.829 22.8028 31.7618 22.6865 30.6103C22.5702 29.4589 22.8859 28.3053 23.5723 27.3735C24.2587 26.4417 25.2669 25.7982 26.401 25.5679V24.5412C26.401 24.0461 26.5977 23.5713 26.9478 23.2212C27.2979 22.8711 27.7727 22.6744 28.2678 22.6744C28.7628 22.6744 29.2376 22.8711 29.5877 23.2212C29.9378 23.5713 30.1345 24.0461 30.1345 24.5412V25.4745H32.0012C32.4963 25.4745 32.9711 25.6712 33.3212 26.0213C33.6713 26.3714 33.8679 26.8462 33.8679 27.3412C33.8679 27.8363 33.6713 28.3111 33.3212 28.6612C32.9711 29.0113 32.4963 29.208 32.0012 29.208Z" fill="#F5B845"/>
<path fill-rule="evenodd" clip-rule="evenodd" d="M44.9167 30.0515H42.6667V29.6764H42.6667V31.1763V34.9263V35.3014C42.6667 35.9071 42.9493 36.9478 43.585 37.5452C44.1202 37.5051 44.6256 37.2746 45.0077 36.8925C45.4296 36.4705 45.6667 35.8982 45.6667 35.3015V30.8015C45.6667 30.6026 45.5877 30.4118 45.447 30.2712C45.3064 30.1305 45.1156 30.0515 44.9167 30.0515ZM42.6667 34.9742V35.3015C42.6667 35.3609 42.6737 35.4196 42.6874 35.4765C42.6689 35.2889 42.6669 35.1116 42.6667 34.9742Z" fill="#F0AF09"/>
</svg>
