<svg width="87" height="96" viewBox="0 0 87 96" fill="none" xmlns="http://www.w3.org/2000/svg">
<path d="M31.8359 70.1579C31.8359 70.1579 39.8405 81.8287 31.616 94.7657C25.4916 104.389 40.2254 112.723 50.8689 104.146C56.5865 99.5332 58.9945 106.448 62.546 103.728C69.572 98.3331 67.9777 95.063 79.9516 88.3578C88.0772 83.7996 88.55 67.2842 84.5477 61.9112C79.4349 55.0519 76.8839 69.9157 70.2207 60.1716C66.8012 55.162 57.8729 66.4805 53.2549 61.7681C48.6478 57.0447 31.7919 62.1865 31.8359 70.1579Z" fill="#4644B5"/>
<path d="M36.9488 55.3932C36.9488 55.3932 45.0743 52.5966 49.2856 53.6866C53.4858 54.7766 53.6507 59.3129 54.6733 64.5207C55.7069 69.7285 65.2838 67.2072 69.4401 72.8885C73.5853 78.5808 71.2433 89.4809 66.3944 96.032C57.1253 108.562 39.9615 102.055 39.8955 97.6505C39.6756 82.4894 31.649 75.2557 31.1322 71.0498C30.6044 66.8439 28.3944 63.1224 36.9488 55.3932Z" fill="#4644B5"/>
<path d="M52.5527 37.3273L12.3732 47.4519C9.98931 48.0526 7.60163 46.6261 7.00093 44.2422L1.08127 20.7499C0.480563 18.366 1.90712 15.9783 4.29102 15.3776L44.5139 5.24214C46.8978 4.64143 49.2855 6.06799 49.8862 8.45189L55.8058 31.9441C56.3632 34.339 54.9366 36.7266 52.5527 37.3273Z" fill="#DDA439"/>
<path d="M55.1967 36.6611L15.0171 46.7857C12.6332 47.3864 10.2456 45.9598 9.64485 43.5759L3.72519 20.0837C3.12448 17.6998 4.55104 15.3121 6.93494 14.7114L47.1578 4.57589C49.5417 3.97519 51.9294 5.40174 52.5301 7.78564L58.4498 31.2779C59.0071 33.6727 57.5806 36.0604 55.1967 36.6611Z" fill="#F5B845"/>
<path d="M30.2905 22.7009L11.6994 46.6075C12.5025 47.0505 13.4568 47.1788 14.4103 46.9385L55.7601 36.5191C56.7137 36.2788 57.4932 35.7136 57.9904 34.943L30.2905 22.7009Z" fill="#FFCA65"/>
<path d="M31.7978 28.6826L50.3998 4.81932C49.5967 4.37634 48.6425 4.24803 47.6889 4.48831L6.38245 14.8969C5.42889 15.1371 4.64939 15.7023 4.15215 16.473L31.7978 28.6826Z" fill="#FFCA65"/>
<path d="M3.81909 15.5417L31.5081 27.7403L50.1101 3.87709" fill="#F5B845"/>
<path d="M46.7074 14.9226C50.3141 14.0137 52.5012 10.3532 51.5924 6.74646C50.6835 3.13976 47.023 0.952697 43.4163 1.86153C39.8096 2.77036 37.6225 6.43092 38.5313 10.0376C39.4402 13.6443 43.1007 15.8314 46.7074 14.9226Z" fill="#279452"/>
<path d="M47.5645 14.7067C51.1712 13.7979 53.3582 10.1373 52.4494 6.53064C51.5406 2.92394 47.88 0.736876 44.2733 1.64571C40.6666 2.55454 38.4796 6.2151 39.3884 9.82181C40.2972 13.4285 43.9578 15.6156 47.5645 14.7067Z" fill="#30B565"/>
<path d="M39.9945 59.7091C39.9945 59.7091 45.1623 57.7713 47.4933 60.3037C49.8243 62.847 51.0668 63.1773 51.6935 62.9902C52.3313 62.803 55.7178 69.8606 52.848 73.4279C49.9783 77.0062 49.0766 77.0392 49.8573 79.7918C50.649 82.5443 53.4858 84.4821 54.3104 84.9335C55.1241 85.385 67.8347 87.4219 56.2896 96.5603C52.881 99.2579 47.3614 108.826 46.3608 107.427C29.6588 84.317 42.5124 89.8331 42.5124 89.8331C42.5124 89.8331 49.3075 84.9996 45.822 81.6525C42.3365 78.2944 38.62 75.696 37.3446 72.8553C36.0691 70.0147 36.5529 66.8878 36.5529 66.8878C36.5529 66.8878 40.3023 65.5886 39.9945 59.7091Z" fill="#E86161"/>
<path d="M39.2028 95.2722C39.2028 95.2722 25.0077 73.6481 21.918 68.0549C20.5326 65.5446 22.4568 63.9371 27.5917 69.3321C32.7265 74.7382 40.6542 84.273 43.381 90.7801C46.1079 97.2871 42.4354 98.6414 39.2028 95.2722Z" fill="#E86161"/>
<path d="M61.3144 88.7431C61.3144 88.7431 62.5129 57.8374 62.1721 51.4515C62.0181 48.5778 59.5332 48.2365 58.0378 55.5473C56.5424 62.8471 56.1796 75.4758 55.8057 79.935C55.234 86.9595 60.3578 93.3124 61.3144 88.7431Z" fill="#E86161"/>
<path d="M61.5828 54.9861C61.5828 54.9861 59.5379 54.9861 59.17 54.0341C58.1314 51.3915 56.6274 47.2713 56.6166 43.4634C56.595 37.2489 56.833 32.9917 56.833 32.9917L58.272 33.1136C58.272 33.1136 61.8965 47.9948 62.2103 50.5994C62.3401 51.658 62.3618 52.2444 62.2211 52.8232C62.0155 53.6686 62.6214 52.7242 61.5828 54.9861Z" fill="#E86161"/>
<path d="M24.7811 69.5834C24.7811 69.5834 25.6531 70.1247 25.2021 68.5558C24.436 65.8834 22.9726 61.647 20.5863 58.1664C16.801 52.6488 15.2039 48.7053 15.2039 48.7053L13.3573 49.0948C13.3573 49.0948 19.4122 63.8311 20.7716 66.2342C21.6502 67.7845 21.9828 68.1929 23.1035 69.0632C23.7114 69.5312 24.4336 70.204 24.7811 69.5834Z" fill="#E86161"/>
<path d="M7.02805 45.5861L6.62756 42.7776C6.62756 42.7776 7.63555 43.5346 7.77649 44.5533C7.90374 45.4256 8.04974 46.4894 8.04974 46.4894L7.02805 45.5861Z" fill="#E86161"/>
<path d="M9.31704 47.3812L8.62078 45.6217L9.53452 44.1C9.53452 44.1 10.0568 44.2588 9.768 45.7531C9.70091 46.0884 10.5322 47.9993 10.5322 47.9993L9.31704 47.3812Z" fill="#E86161"/>
<path d="M15.8211 51.9956C15.8211 51.9956 12.2913 50.9342 8.79805 48.5225C5.30481 46.1108 5.86201 45.2634 5.24381 44.0809C4.6256 42.8983 3.6153 41.3301 4.87023 42.2313C6.12515 43.1325 7.24169 45.4814 7.87275 45.9881C8.50526 46.4838 9.66259 46.7054 10.7377 47.127C11.8142 47.5378 12.5471 47.9469 11.7448 47.0619C10.944 46.166 10.6725 45.8742 10.5027 45.4848C10.333 45.0955 10.0231 44.5097 10.439 44.2211C10.8533 43.9433 11.2015 44.823 11.4621 45.1134C11.7337 45.4053 13.5603 46.4275 13.9423 46.723C14.3243 47.0185 15.0927 48.4878 15.6726 49.3763C16.2525 50.2649 17.8244 54.019 17.1184 54.5687C17.1293 54.5702 16.8977 52.4063 15.8211 51.9956Z" fill="#E86161"/>
<path d="M59.6123 25.6957L57.9342 23.4083C57.9342 23.4083 57.7432 24.6544 58.3549 25.481C58.8742 26.1935 59.5138 27.0559 59.5138 27.0559L59.6123 25.6957Z" fill="#E86161"/>
<path d="M59.2319 28.5797L58.4989 26.8351L56.7815 26.3866C56.7815 26.3866 56.5193 26.8654 57.7708 27.7314C58.0534 27.9242 58.7957 29.8714 58.7957 29.8714L59.2319 28.5797Z" fill="#E86161"/>
<path d="M57.8105 36.4267C57.8105 36.4267 59.591 33.1994 60.401 29.0325C61.2109 24.8656 60.22 24.6496 59.8348 23.3721C59.4496 22.0945 59.0748 20.267 58.8082 21.7888C58.5415 23.3106 59.3864 25.7704 59.2897 26.5739C59.1843 27.3706 58.5122 28.3384 58.0387 29.3917C57.5565 30.4382 57.3189 31.2432 57.2733 30.0495C57.2191 28.8491 57.209 28.4506 57.058 28.0536C56.9071 27.6567 56.7188 27.0213 56.2197 27.1058C55.7293 27.1971 56.0958 28.0693 56.1126 28.4592C56.1226 28.8577 55.532 30.8659 55.4656 31.3442C55.3993 31.8226 55.8777 33.4102 56.0847 34.4508C56.2917 35.4915 57.7939 39.274 58.6829 39.1732C58.6762 39.1818 57.3283 37.4733 57.8105 36.4267Z" fill="#E86161"/>
<path d="M49.2964 119.308C58.1697 117.733 66.7791 121.587 78.764 122.765C77.7854 119.726 74.8717 113.582 67.01 107.659C61.7652 103.695 63.1616 104.158 62.4029 102.231C61.6332 100.271 61.4133 98.7735 61.9301 98.234C64.0412 95.9989 67.3288 90.3947 59.4781 84.4933C55.3879 81.4214 53.3317 81.1572 53.3317 81.1572C53.3317 81.1572 55.6957 83.0729 56.4874 87.8844C57.1361 91.8921 57.0042 95.2062 56.8612 95.0631C52.1552 90.0314 42.6333 89.1946 42.6333 89.1946C42.6333 89.1946 45.0522 89.9764 44.5574 94.8759C44.0956 99.4562 40.0164 97.6615 40.0164 97.6615C42.1055 102.561 45.8659 106.877 47.0974 109.244C49.3954 113.692 49.3074 116.005 49.2964 119.308Z" fill="#00B8AD"/>
<path d="M46.8556 68.8588C47.8561 68.5725 48.8457 68.3193 49.8243 68.088C50.1982 69.9818 48.9777 71.9086 46.9765 72.4921C45.0193 73.0537 43.0072 72.1178 42.2815 70.3892C43.7549 69.8277 45.2722 69.3212 46.8556 68.8588Z" fill="white"/>
<path d="M63.9753 95.8777C64.811 93.6096 64.0743 92.3214 64.0743 92.3214C64.0743 92.3214 63.2167 95.6025 61.9962 97.7275C60.5998 100.183 59.2033 101.537 56.7294 102.99C54.2554 104.444 52.0344 104.378 52.892 105.545C53.7496 106.723 59.4123 103.001 64.6131 107.835C66.3284 109.431 70.0558 111.799 73.4094 116.015C74.8278 117.788 79.138 123.778 78.5002 122.027C77.3127 118.801 74.267 113.131 67.0101 107.659C61.7653 103.695 63.1617 104.157 62.403 102.231C61.6223 100.271 63.7225 96.5824 63.9753 95.8777Z" fill="#00A69C"/>
<path d="M40.0383 84.4492C40.0383 84.4492 45.525 89.3818 45.8219 94.7658C46.1188 100.15 40.4892 99.5442 38.9938 97.6064C37.4984 95.6686 36.7507 94.1712 36.7507 94.1712C36.7507 94.1712 39.4336 93.863 40.0383 84.4492Z" fill="#00A69C"/>
<path d="M55.6738 75.4758C55.6738 75.4758 57.7959 81.3112 62.0511 80.6286C62.2051 80.6066 62.6119 85.6713 62.1611 87.576C61.7103 89.4808 55.7838 84.2179 55.4429 81.9718C55.1131 79.7368 55.6738 75.4758 55.6738 75.4758Z" fill="#00A69C"/>
<path d="M49.3514 78.3055C49.3514 78.3055 49.6593 83.1831 54.1014 84.8896C62.348 88.0716 57.3121 91.3306 59.2693 91.705C62.9087 92.3986 67.5158 87.0146 62.6448 84.4602C55.9157 80.915 57.2681 78.845 55.9926 76.0044C54.7282 73.1527 51.0667 73.9125 49.3514 78.3055Z" fill="#4644B5"/>
<path fill-rule="evenodd" clip-rule="evenodd" d="M41.0738 68.0377C41.1443 68.2862 41.2326 68.4572 41.3178 68.5519L40.7821 69.0338C40.5924 68.823 40.4653 68.5329 40.3805 68.2343C40.2941 67.9297 40.2433 67.5856 40.2252 67.2396C40.1897 66.5598 40.2774 65.8073 40.5279 65.2912C40.6524 65.0347 40.8453 64.7792 41.1408 64.67C41.457 64.553 41.7825 64.6408 42.0764 64.847C42.3641 65.0489 42.6591 65.3868 42.9677 65.863C43.2792 66.3437 43.618 66.9867 43.9856 67.822L43.3261 68.1122C42.968 67.2987 42.6467 66.6928 42.363 66.2549C42.0764 65.8125 41.8411 65.5622 41.6625 65.4369C41.4901 65.3159 41.4134 65.3374 41.3907 65.3458C41.3473 65.3619 41.2647 65.4234 41.1761 65.6058C41.0005 65.9678 40.9124 66.582 40.9448 67.202C40.9607 67.5059 41.0049 67.7951 41.0738 68.0377Z" fill="#212A54"/>
<path fill-rule="evenodd" clip-rule="evenodd" d="M47.3917 66.8153C47.3917 66.8153 47.3917 66.8153 47.0314 66.822C46.6712 66.8287 46.6712 66.8286 46.6712 66.8285L46.6712 66.827L46.6711 66.823L46.6709 66.8081C46.6707 66.7953 46.6706 66.7766 46.6704 66.7527C46.6701 66.705 46.67 66.6362 46.6707 66.5511C46.6722 66.3811 46.6771 66.1449 46.6907 65.8797C46.7175 65.3592 46.7794 64.6911 46.9302 64.1981C47.0022 63.9624 47.1137 63.6987 47.3075 63.5325C47.414 63.4411 47.5523 63.3737 47.7173 63.3687C47.8779 63.3639 48.0239 63.4194 48.1489 63.4994C48.3867 63.6518 48.6165 63.9368 48.8523 64.3286C49.0942 64.7305 49.3658 65.285 49.6731 66.0229L49.0079 66.2999C48.7076 65.5789 48.4515 65.06 48.2349 64.7002C48.0122 64.3302 47.8527 64.1654 47.7602 64.1062C47.7585 64.1051 47.7568 64.104 47.7552 64.103C47.7219 64.1463 47.671 64.2394 47.6192 64.4087C47.4965 64.8103 47.4368 65.4015 47.4103 65.9167C47.3973 66.1693 47.3927 66.3949 47.3913 66.5574C47.3906 66.6385 47.3907 66.7036 47.3909 66.7482C47.3911 66.7704 47.3913 66.7876 47.3914 66.7989L47.3916 66.8116L47.3916 66.8146L47.3917 66.8153ZM47.7247 64.0879C47.7247 64.0879 47.7249 64.0879 47.7254 64.0881L47.7247 64.0879Z" fill="#212A54"/>
<path fill-rule="evenodd" clip-rule="evenodd" d="M43.8126 62.5394C43.8126 62.5392 43.8126 62.5391 44.1727 62.5501C44.5328 62.561 44.5328 62.5609 44.5328 62.5608L44.5328 62.5615L44.5327 62.5667C44.5326 62.5716 44.5324 62.5796 44.5323 62.5904C44.5321 62.6122 44.5321 62.6455 44.5327 62.6893C44.5339 62.7771 44.5379 62.9072 44.5488 63.0716C44.5708 63.4008 44.6208 63.8659 44.733 64.4048C44.958 65.4861 45.4288 66.8435 46.4051 67.9988L45.8547 68.4639C44.7748 67.186 44.2671 65.7027 44.0275 64.5516C43.9074 63.9744 43.8536 63.4755 43.8299 63.1196C43.818 62.9415 43.8136 62.7988 43.8122 62.6994C43.8115 62.6498 43.8116 62.6109 43.8118 62.5839C43.8119 62.5703 43.8121 62.5598 43.8123 62.5523L43.8125 62.5433L43.8125 62.5406L43.8126 62.5394ZM44.5328 62.5608C44.5328 62.5608 44.5328 62.5608 44.5328 62.5608V62.5608Z" fill="#212A54"/>
<path d="M49.355 5.60499C49.3085 5.55813 49.2532 5.52093 49.1923 5.49555C49.1313 5.47016 49.066 5.45709 49 5.45709C48.934 5.45709 48.8686 5.47016 48.8077 5.49555C48.7468 5.52093 48.6915 5.55813 48.645 5.60499L44.92 9.33499L43.355 7.76499C43.3067 7.71837 43.2497 7.68171 43.1873 7.65711C43.1249 7.63251 43.0582 7.62045 42.9911 7.62161C42.924 7.62277 42.8578 7.63713 42.7963 7.66388C42.7348 7.69062 42.6791 7.72923 42.6325 7.77749C42.5859 7.82575 42.5492 7.88272 42.5246 7.94515C42.5 8.00758 42.4879 8.07424 42.4891 8.14133C42.4903 8.20842 42.5046 8.27463 42.5314 8.33616C42.5581 8.3977 42.5967 8.45337 42.645 8.49999L44.565 10.42C44.6115 10.4669 44.6668 10.5041 44.7277 10.5294C44.7886 10.5548 44.854 10.5679 44.92 10.5679C44.986 10.5679 45.0513 10.5548 45.1123 10.5294C45.1732 10.5041 45.2285 10.4669 45.275 10.42L49.355 6.33999C49.4057 6.29317 49.4462 6.23634 49.4739 6.17309C49.5016 6.10984 49.5159 6.04154 49.5159 5.97249C49.5159 5.90344 49.5016 5.83514 49.4739 5.77189C49.4462 5.70864 49.4057 5.65181 49.355 5.60499Z" fill="white"/>
</svg>
